<svg width="164" height="64" viewBox="0 0 164 64" fill="none" xmlns="http://www.w3.org/2000/svg">
<path d="M17.1875 16.3125C18.6458 16.3125 20.0625 16.5625 21.4375 17.0625C22.8542 17.5625 24.2083 18.2917 25.5 19.25C25.7083 19.4583 25.9375 19.6667 26.1875 19.875C26.3958 19.6667 26.625 19.4583 26.875 19.25C28.1667 18.2917 29.5 17.5625 30.875 17.0625C32.2917 16.5625 33.7083 16.3125 35.125 16.3125C36.5833 16.3125 38 16.5625 39.375 17.0625C40.7917 17.5625 42.125 18.3125 43.375 19.3125C44.6667 20.2708 45.7917 21.5625 46.75 23.1875C47.75 24.8125 48.25 26.75 48.25 29V51.5625C48 54.0625 46.625 55.4167 44.125 55.625C42.9583 55.625 41.9375 55.25 41.0625 54.5C40.2292 53.7083 39.8125 52.7292 39.8125 51.5625V29.5C39.8125 28.5 39.625 27.6667 39.25 27C38.875 26.2917 38.4583 25.75 38 25.375C37.5417 24.9583 37.0625 24.6667 36.5625 24.5C36.0625 24.2917 35.5625 24.1875 35.0625 24.1875C34.5625 24.1875 34.0625 24.2917 33.5625 24.5C33.1042 24.6667 32.6458 24.9583 32.1875 25.375C31.7292 25.75 31.3125 26.2917 30.9375 27C30.5625 27.6667 30.3542 28.5 30.3125 29.5V51.5625C30.0625 54.0625 28.6875 55.4167 26.1875 55.625C25.0208 55.625 24 55.25 23.125 54.5C22.2917 53.7083 21.875 52.7292 21.875 51.5625V29.5C21.875 28.5 21.6875 27.6667 21.3125 27C20.9375 26.2917 20.5208 25.75 20.0625 25.375C19.6042 24.9583 19.125 24.6667 18.625 24.5C18.125 24.2917 17.625 24.1875 17.125 24.1875C16.625 24.1875 16.125 24.2917 15.625 24.5C15.1667 24.6667 14.7083 24.9583 14.25 25.375C13.7917 25.75 13.375 26.2917 13 27C12.625 27.6667 12.4167 28.5 12.375 29.5V51.5625C12.1667 54.0625 10.8125 55.4167 8.3125 55.625C7.14583 55.625 6.125 55.25 5.25 54.5C4.41667 53.7083 4 52.7292 4 51.5625V29C4.08333 26.75 4.60417 24.8125 5.5625 23.1875C6.52083 21.5625 7.64583 20.2708 8.9375 19.3125C10.2292 18.3125 11.5625 17.5625 12.9375 17.0625C14.3542 16.5625 15.7708 16.3125 17.1875 16.3125Z" fill="url(#paint0_linear_18_19)"/>
<path d="M59.2734 34.9609C58.1276 34.9219 57.2617 34.6549 56.6758 34.1602C56.0898 33.6523 55.6667 33.0859 55.4062 32.4609C55.1458 31.8229 55.0156 31.1784 55.0156 30.5273C55.0156 29.8503 55.1393 29.1992 55.3867 28.5742C55.6471 27.9362 56.0703 27.3698 56.6562 26.875C57.2552 26.3672 58.0104 26.1068 58.9219 26.0938H65.25C66.1615 26.1068 66.9102 26.3672 67.4961 26.875C68.0951 27.3698 68.5182 27.9362 68.7656 28.5742C69.026 29.1992 69.1562 29.8503 69.1562 30.5273C69.1562 31.1784 69.026 31.8229 68.7656 32.4609C68.5052 33.0859 68.082 33.6523 67.4961 34.1602C66.9102 34.6549 66.0443 34.9219 64.8984 34.9609H59.2734ZM58.8438 28.7109C58.5964 28.7109 58.3815 28.8151 58.1992 29.0234C58.0169 29.2188 57.8802 29.4531 57.7891 29.7266C57.7109 29.987 57.6719 30.2474 57.6719 30.5078C57.6719 30.7812 57.7109 31.0547 57.7891 31.3281C57.8802 31.5885 58.0169 31.8229 58.1992 32.0312C58.3815 32.2266 58.5964 32.3307 58.8438 32.3438H65.3281C65.5755 32.3307 65.7904 32.2266 65.9727 32.0312C66.1549 31.8229 66.2852 31.5885 66.3633 31.3281C66.4544 31.0547 66.5 30.7812 66.5 30.5078C66.5 30.2474 66.4544 29.987 66.3633 29.7266C66.2852 29.4531 66.1549 29.2188 65.9727 29.0234C65.7904 28.8151 65.5755 28.7109 65.3281 28.7109H58.8438ZM77.6328 35.293C76.9557 35.293 76.2852 35.2148 75.6211 35.0586C74.9701 34.9023 74.3451 34.6745 73.7461 34.375C73.1471 34.0625 72.6198 33.6523 72.1641 33.1445C71.7083 32.6367 71.4609 32.0312 71.4219 31.3281V30.5078V27.168C71.4219 26.8034 71.5521 26.5039 71.8125 26.2695C72.0859 26.0221 72.4049 25.8984 72.7695 25.8984C73.5508 25.9635 73.974 26.3867 74.0391 27.168V28.0273V30.7227C74.0651 31.1263 74.2148 31.4648 74.4883 31.7383C74.7747 31.9987 75.0872 32.207 75.4258 32.3633C75.7773 32.5195 76.1354 32.6367 76.5 32.7148C76.8776 32.793 77.2552 32.832 77.6328 32.832C78.0104 32.832 78.3815 32.793 78.7461 32.7148C79.1237 32.6367 79.4818 32.5195 79.8203 32.3633C80.1719 32.207 80.4844 31.9987 80.7578 31.7383C81.0443 31.4648 81.2005 31.1263 81.2266 30.7227V28.0273V27.168C81.2266 26.8034 81.3568 26.5039 81.6172 26.2695C81.8906 26.0221 82.2096 25.8984 82.5742 25.8984C83.3555 25.9635 83.7852 26.3867 83.8633 27.168V30.5078V31.3281C83.8242 32.0312 83.5703 32.6367 83.1016 33.1445C82.6458 33.6523 82.1185 34.0625 81.5195 34.375C80.9206 34.6745 80.2891 34.9023 79.625 35.0586C78.974 35.2148 78.3099 35.293 77.6328 35.293ZM98.7656 27.2266C98.7656 27.5521 98.6354 27.8255 98.375 28.0469C98.1276 28.2552 97.8216 28.3594 97.457 28.3594H89.1953C89.026 28.3594 88.8893 28.3919 88.7852 28.457C88.681 28.5221 88.6029 28.5938 88.5508 28.6719C88.4987 28.737 88.4727 28.7956 88.4727 28.8477C88.4727 28.9128 88.4987 28.9844 88.5508 29.0625C88.6029 29.1276 88.681 29.1927 88.7852 29.2578C88.8893 29.3099 89.026 29.3424 89.1953 29.3555H95.582C96.4023 29.3685 97.0794 29.5312 97.6133 29.8438C98.1471 30.1432 98.5247 30.5013 98.7461 30.918C98.9805 31.3216 99.0977 31.7318 99.0977 32.1484C99.0977 32.5521 98.9805 32.9622 98.7461 33.3789C98.5117 33.7826 98.1276 34.1406 97.5938 34.4531C97.0729 34.7526 96.4023 34.9023 95.582 34.9023C95.4388 34.9154 95.3346 34.9219 95.2695 34.9219H87.6914C87.3268 34.9219 87.0143 34.8177 86.7539 34.6094C86.5065 34.388 86.3828 34.1211 86.3828 33.8086C86.3828 33.4831 86.513 33.2096 86.7734 32.9883C87.0208 32.7799 87.3268 32.6758 87.6914 32.6758H95.7383C95.9336 32.6888 96.0898 32.6628 96.207 32.5977C96.3372 32.5326 96.4349 32.4609 96.5 32.3828C96.5651 32.3047 96.5977 32.2266 96.5977 32.1484C96.5977 32.1094 96.5651 32.0443 96.5 31.9531C96.4349 31.849 96.3372 31.7708 96.207 31.7188C96.0898 31.6536 95.9336 31.6146 95.7383 31.6016H89.332C88.5768 31.5885 87.9518 31.4323 87.457 31.1328C86.9622 30.8203 86.6107 30.4622 86.4023 30.0586C86.194 29.6549 86.0898 29.2513 86.0898 28.8477C86.0898 28.444 86.194 28.0469 86.4023 27.6562C86.6237 27.2526 86.9753 26.9076 87.457 26.6211C87.9518 26.3216 88.5768 26.1589 89.332 26.1328C89.4622 26.1198 89.5599 26.1133 89.625 26.1133H97.457C97.8216 26.1133 98.1276 26.224 98.375 26.4453C98.6354 26.6536 98.7656 26.9141 98.7656 27.2266ZM105.504 23.125C105.868 23.125 106.181 23.2487 106.441 23.4961C106.702 23.7305 106.839 24.0299 106.852 24.3945V26.0938H113.492C113.857 26.0938 114.169 26.2174 114.43 26.4648C114.677 26.7253 114.801 27.0378 114.801 27.4023C114.801 27.7669 114.671 28.0794 114.41 28.3398C114.163 28.5872 113.857 28.7109 113.492 28.7109H106.852V29.1016C106.839 29.6354 106.871 30.1302 106.949 30.5859C107.04 31.0286 107.249 31.4258 107.574 31.7773C107.9 32.1289 108.31 32.3177 108.805 32.3438H113.57C113.935 32.3568 114.234 32.4935 114.469 32.7539C114.716 33.0143 114.84 33.3268 114.84 33.6914C114.827 34.043 114.697 34.3424 114.449 34.5898C114.215 34.8242 113.922 34.9479 113.57 34.9609H108.141C107.229 34.9089 106.474 34.6029 105.875 34.043C105.289 33.4701 104.866 32.7734 104.605 31.9531C104.358 31.1328 104.228 30.2604 104.215 29.3359V28.7109H101.969C101.604 28.7109 101.298 28.5807 101.051 28.3203C100.79 28.0729 100.66 27.7669 100.66 27.4023C100.66 27.0378 100.784 26.7318 101.031 26.4844C101.292 26.224 101.604 26.0938 101.969 26.0938H104.215V24.3945C104.228 24.043 104.358 23.75 104.605 23.5156C104.853 23.2682 105.152 23.138 105.504 23.125ZM127.633 33.9258V29.2188C127.633 28.8932 127.464 28.724 127.125 28.7109H120.289C120.042 28.724 119.827 28.8346 119.645 29.043C119.462 29.2383 119.326 29.4727 119.234 29.7461C119.156 30.0065 119.117 30.2734 119.117 30.5469C119.117 30.8073 119.156 31.0742 119.234 31.3477C119.326 31.6081 119.462 31.8424 119.645 32.0508C119.827 32.2461 120.042 32.3438 120.289 32.3438H125.289C125.654 32.3438 125.96 32.474 126.207 32.7344C126.467 32.9818 126.598 33.2878 126.598 33.6523C126.598 34.0169 126.467 34.3229 126.207 34.5703C125.96 34.8307 125.654 34.9609 125.289 34.9609H120.367C119.456 34.9479 118.701 34.694 118.102 34.1992C117.516 33.6914 117.092 33.125 116.832 32.5C116.585 31.862 116.461 31.2044 116.461 30.5273C116.461 29.8763 116.591 29.2383 116.852 28.6133C117.112 27.9753 117.535 27.4089 118.121 26.9141C118.707 26.4062 119.573 26.1328 120.719 26.0938H128.922C129.286 26.0938 129.599 26.2174 129.859 26.4648C130.12 26.6992 130.257 26.9987 130.27 27.3633V33.9258C130.27 34.2904 130.133 34.5964 129.859 34.8438C129.599 35.0781 129.286 35.1953 128.922 35.1953C128.141 35.1302 127.711 34.707 127.633 33.9258ZM137.262 35.1953C136.91 35.1823 136.611 35.0586 136.363 34.8242C136.116 34.5768 135.986 34.2773 135.973 33.9258V31.2891H133.727C133.362 31.2891 133.049 31.1654 132.789 30.918C132.542 30.6576 132.418 30.3451 132.418 29.9805C132.418 29.6159 132.548 29.3099 132.809 29.0625C133.056 28.8021 133.362 28.6719 133.727 28.6719H135.973C136.012 27.9036 136.142 27.1615 136.363 26.4453C136.624 25.625 137.047 24.9349 137.633 24.375C138.232 23.8021 138.987 23.4896 139.898 23.4375H145.328C145.68 23.4505 145.973 23.5807 146.207 23.8281C146.454 24.0625 146.585 24.3555 146.598 24.707C146.598 25.0716 146.474 25.3841 146.227 25.6445C145.992 25.9049 145.693 26.0417 145.328 26.0547H140.562C140.068 26.0807 139.658 26.2695 139.332 26.6211C139.007 26.9727 138.805 27.3698 138.727 27.8125C138.661 28.099 138.622 28.3854 138.609 28.6719H145.25C145.615 28.6719 145.921 28.8021 146.168 29.0625C146.428 29.3099 146.559 29.6159 146.559 29.9805C146.559 30.3451 146.435 30.6576 146.188 30.918C145.927 31.1654 145.615 31.2891 145.25 31.2891H138.609V33.9258C138.596 34.2904 138.46 34.5964 138.199 34.8438C137.939 35.0781 137.626 35.1953 137.262 35.1953ZM159.547 33.9258V29.2188C159.547 28.8932 159.378 28.724 159.039 28.7109H152.203C151.956 28.724 151.741 28.8346 151.559 29.043C151.376 29.2383 151.24 29.4727 151.148 29.7461C151.07 30.0065 151.031 30.2734 151.031 30.5469C151.031 30.8073 151.07 31.0742 151.148 31.3477C151.24 31.6081 151.376 31.8424 151.559 32.0508C151.741 32.2461 151.956 32.3438 152.203 32.3438H157.203C157.568 32.3438 157.874 32.474 158.121 32.7344C158.382 32.9818 158.512 33.2878 158.512 33.6523C158.512 34.0169 158.382 34.3229 158.121 34.5703C157.874 34.8307 157.568 34.9609 157.203 34.9609H152.281C151.37 34.9479 150.615 34.694 150.016 34.1992C149.43 33.6914 149.007 33.125 148.746 32.5C148.499 31.862 148.375 31.2044 148.375 30.5273C148.375 29.8763 148.505 29.2383 148.766 28.6133C149.026 27.9753 149.449 27.4089 150.035 26.9141C150.621 26.4062 151.487 26.1328 152.633 26.0938H160.836C161.201 26.0938 161.513 26.2174 161.773 26.4648C162.034 26.6992 162.171 26.9987 162.184 27.3633V33.9258C162.184 34.2904 162.047 34.5964 161.773 34.8438C161.513 35.0781 161.201 35.1953 160.836 35.1953C160.055 35.1302 159.625 34.707 159.547 33.9258Z" fill="url(#paint1_linear_18_19)"/>
<path d="M74.5781 43.125C74.9297 43.138 75.2292 43.2682 75.4766 43.5156C75.724 43.75 75.8542 44.043 75.8672 44.3945V47.6562H82.2148V44.3945C82.2279 44.0299 82.3646 43.7305 82.625 43.4961C82.8854 43.2487 83.1979 43.125 83.5625 43.125C83.9141 43.138 84.2135 43.2682 84.4609 43.5156C84.7083 43.75 84.8385 44.043 84.8516 44.3945V53.9648C84.7734 54.7461 84.3438 55.1693 83.5625 55.2344C83.1979 55.2344 82.8789 55.1172 82.6055 54.8828C82.3451 54.6354 82.2148 54.3294 82.2148 53.9648V50.2734H75.8672V53.9648C75.7891 54.7461 75.3594 55.1693 74.5781 55.2344C74.2135 55.2344 73.8945 55.1172 73.6211 54.8828C73.3607 54.6354 73.2305 54.3294 73.2305 53.9648V44.3945C73.2435 44.0299 73.3802 43.7305 73.6406 43.4961C73.901 43.2487 74.2135 43.125 74.5781 43.125ZM98.1914 53.9258V49.2188C98.1914 48.8932 98.0221 48.724 97.6836 48.7109H90.8477C90.6003 48.724 90.3854 48.8346 90.2031 49.043C90.0208 49.2383 89.8841 49.4727 89.793 49.7461C89.7148 50.0065 89.6758 50.2734 89.6758 50.5469C89.6758 50.8073 89.7148 51.0742 89.793 51.3477C89.8841 51.6081 90.0208 51.8424 90.2031 52.0508C90.3854 52.2461 90.6003 52.3438 90.8477 52.3438H95.8477C96.2122 52.3438 96.5182 52.474 96.7656 52.7344C97.026 52.9818 97.1562 53.2878 97.1562 53.6523C97.1562 54.0169 97.026 54.3229 96.7656 54.5703C96.5182 54.8307 96.2122 54.9609 95.8477 54.9609H90.9258C90.0143 54.9479 89.2591 54.694 88.6602 54.1992C88.0742 53.6914 87.651 53.125 87.3906 52.5C87.1432 51.862 87.0195 51.2044 87.0195 50.5273C87.0195 49.8763 87.1497 49.2383 87.4102 48.6133C87.6706 47.9753 88.0938 47.4089 88.6797 46.9141C89.2656 46.4062 90.1315 46.1328 91.2773 46.0938H99.4805C99.8451 46.0938 100.158 46.2174 100.418 46.4648C100.678 46.6992 100.815 46.9987 100.828 47.3633V53.9258C100.828 54.2904 100.691 54.5964 100.418 54.8438C100.158 55.0781 99.8451 55.1953 99.4805 55.1953C98.6992 55.1302 98.2695 54.707 98.1914 53.9258ZM115.75 47.2266C115.75 47.5521 115.62 47.8255 115.359 48.0469C115.112 48.2552 114.806 48.3594 114.441 48.3594H106.18C106.01 48.3594 105.874 48.3919 105.77 48.457C105.665 48.5221 105.587 48.5938 105.535 48.6719C105.483 48.737 105.457 48.7956 105.457 48.8477C105.457 48.9128 105.483 48.9844 105.535 49.0625C105.587 49.1276 105.665 49.1927 105.77 49.2578C105.874 49.3099 106.01 49.3424 106.18 49.3555H112.566C113.387 49.3685 114.064 49.5312 114.598 49.8438C115.132 50.1432 115.509 50.5013 115.73 50.918C115.965 51.3216 116.082 51.7318 116.082 52.1484C116.082 52.5521 115.965 52.9622 115.73 53.3789C115.496 53.7826 115.112 54.1406 114.578 54.4531C114.057 54.7526 113.387 54.9023 112.566 54.9023C112.423 54.9154 112.319 54.9219 112.254 54.9219H104.676C104.311 54.9219 103.999 54.8177 103.738 54.6094C103.491 54.388 103.367 54.1211 103.367 53.8086C103.367 53.4831 103.497 53.2096 103.758 52.9883C104.005 52.7799 104.311 52.6758 104.676 52.6758H112.723C112.918 52.6888 113.074 52.6628 113.191 52.5977C113.322 52.5326 113.419 52.4609 113.484 52.3828C113.549 52.3047 113.582 52.2266 113.582 52.1484C113.582 52.1094 113.549 52.0443 113.484 51.9531C113.419 51.849 113.322 51.7708 113.191 51.7188C113.074 51.6536 112.918 51.6146 112.723 51.6016H106.316C105.561 51.5885 104.936 51.4323 104.441 51.1328C103.947 50.8203 103.595 50.4622 103.387 50.0586C103.178 49.6549 103.074 49.2513 103.074 48.8477C103.074 48.444 103.178 48.0469 103.387 47.6562C103.608 47.2526 103.96 46.9076 104.441 46.6211C104.936 46.3216 105.561 46.1589 106.316 46.1328C106.447 46.1198 106.544 46.1133 106.609 46.1133H114.441C114.806 46.1133 115.112 46.224 115.359 46.4453C115.62 46.6536 115.75 46.9141 115.75 47.2266ZM130.652 47.2266C130.652 47.5521 130.522 47.8255 130.262 48.0469C130.014 48.2552 129.708 48.3594 129.344 48.3594H121.082C120.913 48.3594 120.776 48.3919 120.672 48.457C120.568 48.5221 120.49 48.5938 120.438 48.6719C120.385 48.737 120.359 48.7956 120.359 48.8477C120.359 48.9128 120.385 48.9844 120.438 49.0625C120.49 49.1276 120.568 49.1927 120.672 49.2578C120.776 49.3099 120.913 49.3424 121.082 49.3555H127.469C128.289 49.3685 128.966 49.5312 129.5 49.8438C130.034 50.1432 130.411 50.5013 130.633 50.918C130.867 51.3216 130.984 51.7318 130.984 52.1484C130.984 52.5521 130.867 52.9622 130.633 53.3789C130.398 53.7826 130.014 54.1406 129.48 54.4531C128.96 54.7526 128.289 54.9023 127.469 54.9023C127.326 54.9154 127.221 54.9219 127.156 54.9219H119.578C119.214 54.9219 118.901 54.8177 118.641 54.6094C118.393 54.388 118.27 54.1211 118.27 53.8086C118.27 53.4831 118.4 53.2096 118.66 52.9883C118.908 52.7799 119.214 52.6758 119.578 52.6758H127.625C127.82 52.6888 127.977 52.6628 128.094 52.5977C128.224 52.5326 128.322 52.4609 128.387 52.3828C128.452 52.3047 128.484 52.2266 128.484 52.1484C128.484 52.1094 128.452 52.0443 128.387 51.9531C128.322 51.849 128.224 51.7708 128.094 51.7188C127.977 51.6536 127.82 51.6146 127.625 51.6016H121.219C120.464 51.5885 119.839 51.4323 119.344 51.1328C118.849 50.8203 118.497 50.4622 118.289 50.0586C118.081 49.6549 117.977 49.2513 117.977 48.8477C117.977 48.444 118.081 48.0469 118.289 47.6562C118.51 47.2526 118.862 46.9076 119.344 46.6211C119.839 46.3216 120.464 46.1589 121.219 46.1328C121.349 46.1198 121.447 46.1133 121.512 46.1133H129.344C129.708 46.1133 130.014 46.224 130.262 46.4453C130.522 46.6536 130.652 46.9141 130.652 47.2266ZM144.07 53.9258V49.2188C144.07 48.8932 143.901 48.724 143.562 48.7109H136.727C136.479 48.724 136.264 48.8346 136.082 49.043C135.9 49.2383 135.763 49.4727 135.672 49.7461C135.594 50.0065 135.555 50.2734 135.555 50.5469C135.555 50.8073 135.594 51.0742 135.672 51.3477C135.763 51.6081 135.9 51.8424 136.082 52.0508C136.264 52.2461 136.479 52.3438 136.727 52.3438H141.727C142.091 52.3438 142.397 52.474 142.645 52.7344C142.905 52.9818 143.035 53.2878 143.035 53.6523C143.035 54.0169 142.905 54.3229 142.645 54.5703C142.397 54.8307 142.091 54.9609 141.727 54.9609H136.805C135.893 54.9479 135.138 54.694 134.539 54.1992C133.953 53.6914 133.53 53.125 133.27 52.5C133.022 51.862 132.898 51.2044 132.898 50.5273C132.898 49.8763 133.029 49.2383 133.289 48.6133C133.549 47.9753 133.973 47.4089 134.559 46.9141C135.145 46.4062 136.01 46.1328 137.156 46.0938H145.359C145.724 46.0938 146.036 46.2174 146.297 46.4648C146.557 46.6992 146.694 46.9987 146.707 47.3633V53.9258C146.707 54.2904 146.57 54.5964 146.297 54.8438C146.036 55.0781 145.724 55.1953 145.359 55.1953C144.578 55.1302 144.148 54.707 144.07 53.9258ZM155.457 45.8008C156.134 45.8008 156.798 45.8789 157.449 46.0352C158.113 46.1914 158.745 46.4258 159.344 46.7383C159.943 47.0378 160.47 47.4414 160.926 47.9492C161.395 48.457 161.648 49.0625 161.688 49.7656V50.5859V53.9258C161.609 54.707 161.18 55.1302 160.398 55.1953C160.034 55.1953 159.715 55.0781 159.441 54.8438C159.181 54.5964 159.051 54.2904 159.051 53.9258V53.0664V50.3711C159.025 49.9674 158.868 49.6354 158.582 49.375C158.309 49.1016 157.996 48.8867 157.645 48.7305C157.306 48.5742 156.948 48.457 156.57 48.3789C156.206 48.3008 155.835 48.2617 155.457 48.2617C155.079 48.2617 154.702 48.3008 154.324 48.3789C153.96 48.457 153.602 48.5742 153.25 48.7305C152.911 48.8867 152.599 49.1016 152.312 49.375C152.039 49.6354 151.889 49.9674 151.863 50.3711V53.0664V53.9258C151.798 54.707 151.375 55.1302 150.594 55.1953C150.229 55.1953 149.91 55.0781 149.637 54.8438C149.376 54.5964 149.246 54.2904 149.246 53.9258V50.5859V49.7656C149.285 49.0625 149.533 48.457 149.988 47.9492C150.444 47.4414 150.971 47.0378 151.57 46.7383C152.169 46.4258 152.794 46.1914 153.445 46.0352C154.109 45.8789 154.78 45.8008 155.457 45.8008Z" fill="url(#paint2_linear_18_19)"/>
<circle cx="62.5" cy="48.5" r="7.5" fill="url(#paint3_radial_18_19)"/>
<defs>
<linearGradient id="paint0_linear_18_19" x1="-1.36735e-09" y1="32.0685" x2="53" y2="31.9315" gradientUnits="userSpaceOnUse">
<stop offset="0.182692" stop-color="#08454C"/>
<stop offset="1" stop-color="#16AABB"/>
</linearGradient>
<linearGradient id="paint1_linear_18_19" x1="54" y1="28" x2="164" y2="28" gradientUnits="userSpaceOnUse">
<stop stop-color="#16AABB"/>
<stop offset="0.6875" stop-color="#0A4D55"/>
</linearGradient>
<linearGradient id="paint2_linear_18_19" x1="72" y1="48" x2="163" y2="48" gradientUnits="userSpaceOnUse">
<stop stop-color="#16AABB"/>
<stop offset="0.519231" stop-color="#0A4D55"/>
</linearGradient>
<radialGradient id="paint3_radial_18_19" cx="0" cy="0" r="1" gradientUnits="userSpaceOnUse" gradientTransform="translate(62.5 48.5) rotate(160.878) scale(7.938)">
<stop stop-color="white"/>
<stop offset="0.841346" stop-color="#16AABB"/>
</radialGradient>
</defs>
</svg>
