<svg width="89" height="13" viewBox="0 0 89 13" fill="none" xmlns="http://www.w3.org/2000/svg">
<path d="M1.57812 0.125C1.92969 0.138021 2.22917 0.268229 2.47656 0.515625C2.72396 0.75 2.85417 1.04297 2.86719 1.39453V4.65625H9.21484V1.39453C9.22786 1.02995 9.36458 0.730469 9.625 0.496094C9.88542 0.248698 10.1979 0.125 10.5625 0.125C10.9141 0.138021 11.2135 0.268229 11.4609 0.515625C11.7083 0.75 11.8385 1.04297 11.8516 1.39453V10.9648C11.7734 11.7461 11.3438 12.1693 10.5625 12.2344C10.1979 12.2344 9.87891 12.1172 9.60547 11.8828C9.34505 11.6354 9.21484 11.3294 9.21484 10.9648V7.27344H2.86719V10.9648C2.78906 11.7461 2.35938 12.1693 1.57812 12.2344C1.21354 12.2344 0.894531 12.1172 0.621094 11.8828C0.360677 11.6354 0.230469 11.3294 0.230469 10.9648V1.39453C0.24349 1.02995 0.380208 0.730469 0.640625 0.496094C0.901042 0.248698 1.21354 0.125 1.57812 0.125ZM25.1914 10.9258V6.21875C25.1914 5.89323 25.0221 5.72396 24.6836 5.71094H17.8477C17.6003 5.72396 17.3854 5.83464 17.2031 6.04297C17.0208 6.23828 16.8841 6.47266 16.793 6.74609C16.7148 7.00651 16.6758 7.27344 16.6758 7.54688C16.6758 7.80729 16.7148 8.07422 16.793 8.34766C16.8841 8.60807 17.0208 8.84245 17.2031 9.05078C17.3854 9.24609 17.6003 9.34375 17.8477 9.34375H22.8477C23.2122 9.34375 23.5182 9.47396 23.7656 9.73438C24.026 9.98177 24.1562 10.2878 24.1562 10.6523C24.1562 11.0169 24.026 11.3229 23.7656 11.5703C23.5182 11.8307 23.2122 11.9609 22.8477 11.9609H17.9258C17.0143 11.9479 16.2591 11.694 15.6602 11.1992C15.0742 10.6914 14.651 10.125 14.3906 9.5C14.1432 8.86198 14.0195 8.20443 14.0195 7.52734C14.0195 6.8763 14.1497 6.23828 14.4102 5.61328C14.6706 4.97526 15.0938 4.40885 15.6797 3.91406C16.2656 3.40625 17.1315 3.13281 18.2773 3.09375H26.4805C26.8451 3.09375 27.1576 3.21745 27.418 3.46484C27.6784 3.69922 27.8151 3.9987 27.8281 4.36328V10.9258C27.8281 11.2904 27.6914 11.5964 27.418 11.8438C27.1576 12.0781 26.8451 12.1953 26.4805 12.1953C25.6992 12.1302 25.2695 11.707 25.1914 10.9258ZM42.75 4.22656C42.75 4.55208 42.6198 4.82552 42.3594 5.04688C42.112 5.25521 41.806 5.35938 41.4414 5.35938H33.1797C33.0104 5.35938 32.8737 5.39193 32.7695 5.45703C32.6654 5.52214 32.5872 5.59375 32.5352 5.67188C32.4831 5.73698 32.457 5.79557 32.457 5.84766C32.457 5.91276 32.4831 5.98438 32.5352 6.0625C32.5872 6.1276 32.6654 6.19271 32.7695 6.25781C32.8737 6.3099 33.0104 6.34245 33.1797 6.35547H39.5664C40.3867 6.36849 41.0638 6.53125 41.5977 6.84375C42.1315 7.14323 42.5091 7.5013 42.7305 7.91797C42.9648 8.32161 43.082 8.73177 43.082 9.14844C43.082 9.55208 42.9648 9.96224 42.7305 10.3789C42.4961 10.7826 42.112 11.1406 41.5781 11.4531C41.0573 11.7526 40.3867 11.9023 39.5664 11.9023C39.4232 11.9154 39.319 11.9219 39.2539 11.9219H31.6758C31.3112 11.9219 30.9987 11.8177 30.7383 11.6094C30.4909 11.388 30.3672 11.1211 30.3672 10.8086C30.3672 10.4831 30.4974 10.2096 30.7578 9.98828C31.0052 9.77995 31.3112 9.67578 31.6758 9.67578H39.7227C39.918 9.6888 40.0742 9.66276 40.1914 9.59766C40.3216 9.53255 40.4193 9.46094 40.4844 9.38281C40.5495 9.30469 40.582 9.22656 40.582 9.14844C40.582 9.10938 40.5495 9.04427 40.4844 8.95312C40.4193 8.84896 40.3216 8.77083 40.1914 8.71875C40.0742 8.65365 39.918 8.61458 39.7227 8.60156H33.3164C32.5612 8.58854 31.9362 8.43229 31.4414 8.13281C30.9466 7.82031 30.5951 7.46224 30.3867 7.05859C30.1784 6.65495 30.0742 6.2513 30.0742 5.84766C30.0742 5.44401 30.1784 5.04688 30.3867 4.65625C30.6081 4.2526 30.9596 3.90755 31.4414 3.62109C31.9362 3.32161 32.5612 3.15885 33.3164 3.13281C33.4466 3.11979 33.5443 3.11328 33.6094 3.11328H41.4414C41.806 3.11328 42.112 3.22396 42.3594 3.44531C42.6198 3.65365 42.75 3.91406 42.75 4.22656ZM57.6523 4.22656C57.6523 4.55208 57.5221 4.82552 57.2617 5.04688C57.0143 5.25521 56.7083 5.35938 56.3438 5.35938H48.082C47.9128 5.35938 47.776 5.39193 47.6719 5.45703C47.5677 5.52214 47.4896 5.59375 47.4375 5.67188C47.3854 5.73698 47.3594 5.79557 47.3594 5.84766C47.3594 5.91276 47.3854 5.98438 47.4375 6.0625C47.4896 6.1276 47.5677 6.19271 47.6719 6.25781C47.776 6.3099 47.9128 6.34245 48.082 6.35547H54.4688C55.2891 6.36849 55.9661 6.53125 56.5 6.84375C57.0339 7.14323 57.4115 7.5013 57.6328 7.91797C57.8672 8.32161 57.9844 8.73177 57.9844 9.14844C57.9844 9.55208 57.8672 9.96224 57.6328 10.3789C57.3984 10.7826 57.0143 11.1406 56.4805 11.4531C55.9596 11.7526 55.2891 11.9023 54.4688 11.9023C54.3255 11.9154 54.2214 11.9219 54.1562 11.9219H46.5781C46.2135 11.9219 45.901 11.8177 45.6406 11.6094C45.3932 11.388 45.2695 11.1211 45.2695 10.8086C45.2695 10.4831 45.3997 10.2096 45.6602 9.98828C45.9076 9.77995 46.2135 9.67578 46.5781 9.67578H54.625C54.8203 9.6888 54.9766 9.66276 55.0938 9.59766C55.224 9.53255 55.3216 9.46094 55.3867 9.38281C55.4518 9.30469 55.4844 9.22656 55.4844 9.14844C55.4844 9.10938 55.4518 9.04427 55.3867 8.95312C55.3216 8.84896 55.224 8.77083 55.0938 8.71875C54.9766 8.65365 54.8203 8.61458 54.625 8.60156H48.2188C47.4635 8.58854 46.8385 8.43229 46.3438 8.13281C45.849 7.82031 45.4974 7.46224 45.2891 7.05859C45.0807 6.65495 44.9766 6.2513 44.9766 5.84766C44.9766 5.44401 45.0807 5.04688 45.2891 4.65625C45.5104 4.2526 45.862 3.90755 46.3438 3.62109C46.8385 3.32161 47.4635 3.15885 48.2188 3.13281C48.349 3.11979 48.4466 3.11328 48.5117 3.11328H56.3438C56.7083 3.11328 57.0143 3.22396 57.2617 3.44531C57.5221 3.65365 57.6523 3.91406 57.6523 4.22656ZM71.0703 10.9258V6.21875C71.0703 5.89323 70.901 5.72396 70.5625 5.71094H63.7266C63.4792 5.72396 63.2643 5.83464 63.082 6.04297C62.8997 6.23828 62.763 6.47266 62.6719 6.74609C62.5938 7.00651 62.5547 7.27344 62.5547 7.54688C62.5547 7.80729 62.5938 8.07422 62.6719 8.34766C62.763 8.60807 62.8997 8.84245 63.082 9.05078C63.2643 9.24609 63.4792 9.34375 63.7266 9.34375H68.7266C69.0911 9.34375 69.3971 9.47396 69.6445 9.73438C69.9049 9.98177 70.0352 10.2878 70.0352 10.6523C70.0352 11.0169 69.9049 11.3229 69.6445 11.5703C69.3971 11.8307 69.0911 11.9609 68.7266 11.9609H63.8047C62.8932 11.9479 62.138 11.694 61.5391 11.1992C60.9531 10.6914 60.5299 10.125 60.2695 9.5C60.0221 8.86198 59.8984 8.20443 59.8984 7.52734C59.8984 6.8763 60.0286 6.23828 60.2891 5.61328C60.5495 4.97526 60.9727 4.40885 61.5586 3.91406C62.1445 3.40625 63.0104 3.13281 64.1562 3.09375H72.3594C72.724 3.09375 73.0365 3.21745 73.2969 3.46484C73.5573 3.69922 73.694 3.9987 73.707 4.36328V10.9258C73.707 11.2904 73.5703 11.5964 73.2969 11.8438C73.0365 12.0781 72.724 12.1953 72.3594 12.1953C71.5781 12.1302 71.1484 11.707 71.0703 10.9258ZM82.457 2.80078C83.1341 2.80078 83.7982 2.87891 84.4492 3.03516C85.1133 3.19141 85.7448 3.42578 86.3438 3.73828C86.9427 4.03776 87.4701 4.44141 87.9258 4.94922C88.3945 5.45703 88.6484 6.0625 88.6875 6.76562V7.58594V10.9258C88.6094 11.707 88.1797 12.1302 87.3984 12.1953C87.0339 12.1953 86.7148 12.0781 86.4414 11.8438C86.181 11.5964 86.0508 11.2904 86.0508 10.9258V10.0664V7.37109C86.0247 6.96745 85.8685 6.63542 85.582 6.375C85.3086 6.10156 84.9961 5.88672 84.6445 5.73047C84.306 5.57422 83.9479 5.45703 83.5703 5.37891C83.2057 5.30078 82.8346 5.26172 82.457 5.26172C82.0794 5.26172 81.7018 5.30078 81.3242 5.37891C80.9596 5.45703 80.6016 5.57422 80.25 5.73047C79.9115 5.88672 79.599 6.10156 79.3125 6.375C79.0391 6.63542 78.8893 6.96745 78.8633 7.37109V10.0664V10.9258C78.7982 11.707 78.375 12.1302 77.5938 12.1953C77.2292 12.1953 76.9102 12.0781 76.6367 11.8438C76.3763 11.5964 76.2461 11.2904 76.2461 10.9258V7.58594V6.76562C76.2852 6.0625 76.5326 5.45703 76.9883 4.94922C77.444 4.44141 77.9714 4.03776 78.5703 3.73828C79.1693 3.42578 79.7943 3.19141 80.4453 3.03516C81.1094 2.87891 81.7799 2.80078 82.457 2.80078Z" fill="url(#paint0_linear_18_17)"/>
<defs>
<linearGradient id="paint0_linear_18_17" x1="-1" y1="5" x2="90" y2="5" gradientUnits="userSpaceOnUse">
<stop stop-color="#16AABB"/>
<stop offset="0.519231" stop-color="#0A4D55"/>
</linearGradient>
</defs>
</svg>
