<svg width="110" height="40" viewBox="0 0 110 40" fill="none" xmlns="http://www.w3.org/2000/svg">
<path d="M5.27344 16.9609C4.1276 16.9219 3.26172 16.6549 2.67578 16.1602C2.08984 15.6523 1.66667 15.0859 1.40625 14.4609C1.14583 13.8229 1.01562 13.1784 1.01562 12.5273C1.01562 11.8503 1.13932 11.1992 1.38672 10.5742C1.64714 9.9362 2.07031 9.36979 2.65625 8.875C3.25521 8.36719 4.01042 8.10677 4.92188 8.09375H11.25C12.1615 8.10677 12.9102 8.36719 13.4961 8.875C14.0951 9.36979 14.5182 9.9362 14.7656 10.5742C15.026 11.1992 15.1562 11.8503 15.1562 12.5273C15.1562 13.1784 15.026 13.8229 14.7656 14.4609C14.5052 15.0859 14.082 15.6523 13.4961 16.1602C12.9102 16.6549 12.0443 16.9219 10.8984 16.9609H5.27344ZM4.84375 10.7109C4.59635 10.7109 4.38151 10.8151 4.19922 11.0234C4.01693 11.2188 3.88021 11.4531 3.78906 11.7266C3.71094 11.987 3.67188 12.2474 3.67188 12.5078C3.67188 12.7812 3.71094 13.0547 3.78906 13.3281C3.88021 13.5885 4.01693 13.8229 4.19922 14.0312C4.38151 14.2266 4.59635 14.3307 4.84375 14.3438H11.3281C11.5755 14.3307 11.7904 14.2266 11.9727 14.0312C12.1549 13.8229 12.2852 13.5885 12.3633 13.3281C12.4544 13.0547 12.5 12.7812 12.5 12.5078C12.5 12.2474 12.4544 11.987 12.3633 11.7266C12.2852 11.4531 12.1549 11.2188 11.9727 11.0234C11.7904 10.8151 11.5755 10.7109 11.3281 10.7109H4.84375ZM23.6328 17.293C22.9557 17.293 22.2852 17.2148 21.6211 17.0586C20.9701 16.9023 20.3451 16.6745 19.7461 16.375C19.1471 16.0625 18.6198 15.6523 18.1641 15.1445C17.7083 14.6367 17.4609 14.0312 17.4219 13.3281V12.5078V9.16797C17.4219 8.80339 17.5521 8.50391 17.8125 8.26953C18.0859 8.02214 18.4049 7.89844 18.7695 7.89844C19.5508 7.96354 19.974 8.38672 20.0391 9.16797V10.0273V12.7227C20.0651 13.1263 20.2148 13.4648 20.4883 13.7383C20.7747 13.9987 21.0872 14.207 21.4258 14.3633C21.7773 14.5195 22.1354 14.6367 22.5 14.7148C22.8776 14.793 23.2552 14.832 23.6328 14.832C24.0104 14.832 24.3815 14.793 24.7461 14.7148C25.1237 14.6367 25.4818 14.5195 25.8203 14.3633C26.1719 14.207 26.4844 13.9987 26.7578 13.7383C27.0443 13.4648 27.2005 13.1263 27.2266 12.7227V10.0273V9.16797C27.2266 8.80339 27.3568 8.50391 27.6172 8.26953C27.8906 8.02214 28.2096 7.89844 28.5742 7.89844C29.3555 7.96354 29.7852 8.38672 29.8633 9.16797V12.5078V13.3281C29.8242 14.0312 29.5703 14.6367 29.1016 15.1445C28.6458 15.6523 28.1185 16.0625 27.5195 16.375C26.9206 16.6745 26.2891 16.9023 25.625 17.0586C24.974 17.2148 24.3099 17.293 23.6328 17.293ZM44.7656 9.22656C44.7656 9.55208 44.6354 9.82552 44.375 10.0469C44.1276 10.2552 43.8216 10.3594 43.457 10.3594H35.1953C35.026 10.3594 34.8893 10.3919 34.7852 10.457C34.681 10.5221 34.6029 10.5938 34.5508 10.6719C34.4987 10.737 34.4727 10.7956 34.4727 10.8477C34.4727 10.9128 34.4987 10.9844 34.5508 11.0625C34.6029 11.1276 34.681 11.1927 34.7852 11.2578C34.8893 11.3099 35.026 11.3424 35.1953 11.3555H41.582C42.4023 11.3685 43.0794 11.5312 43.6133 11.8438C44.1471 12.1432 44.5247 12.5013 44.7461 12.918C44.9805 13.3216 45.0977 13.7318 45.0977 14.1484C45.0977 14.5521 44.9805 14.9622 44.7461 15.3789C44.5117 15.7826 44.1276 16.1406 43.5938 16.4531C43.0729 16.7526 42.4023 16.9023 41.582 16.9023C41.4388 16.9154 41.3346 16.9219 41.2695 16.9219H33.6914C33.3268 16.9219 33.0143 16.8177 32.7539 16.6094C32.5065 16.388 32.3828 16.1211 32.3828 15.8086C32.3828 15.4831 32.513 15.2096 32.7734 14.9883C33.0208 14.7799 33.3268 14.6758 33.6914 14.6758H41.7383C41.9336 14.6888 42.0898 14.6628 42.207 14.5977C42.3372 14.5326 42.4349 14.4609 42.5 14.3828C42.5651 14.3047 42.5977 14.2266 42.5977 14.1484C42.5977 14.1094 42.5651 14.0443 42.5 13.9531C42.4349 13.849 42.3372 13.7708 42.207 13.7188C42.0898 13.6536 41.9336 13.6146 41.7383 13.6016H35.332C34.5768 13.5885 33.9518 13.4323 33.457 13.1328C32.9622 12.8203 32.6107 12.4622 32.4023 12.0586C32.194 11.6549 32.0898 11.2513 32.0898 10.8477C32.0898 10.444 32.194 10.0469 32.4023 9.65625C32.6237 9.2526 32.9753 8.90755 33.457 8.62109C33.9518 8.32161 34.5768 8.15885 35.332 8.13281C35.4622 8.11979 35.5599 8.11328 35.625 8.11328H43.457C43.8216 8.11328 44.1276 8.22396 44.375 8.44531C44.6354 8.65365 44.7656 8.91406 44.7656 9.22656ZM51.5039 5.125C51.8685 5.125 52.181 5.2487 52.4414 5.49609C52.7018 5.73047 52.8385 6.02995 52.8516 6.39453V8.09375H59.4922C59.8568 8.09375 60.1693 8.21745 60.4297 8.46484C60.6771 8.72526 60.8008 9.03776 60.8008 9.40234C60.8008 9.76693 60.6706 10.0794 60.4102 10.3398C60.1628 10.5872 59.8568 10.7109 59.4922 10.7109H52.8516V11.1016C52.8385 11.6354 52.8711 12.1302 52.9492 12.5859C53.0404 13.0286 53.2487 13.4258 53.5742 13.7773C53.8997 14.1289 54.3099 14.3177 54.8047 14.3438H59.5703C59.9349 14.3568 60.2344 14.4935 60.4688 14.7539C60.7161 15.0143 60.8398 15.3268 60.8398 15.6914C60.8268 16.043 60.6966 16.3424 60.4492 16.5898C60.2148 16.8242 59.9219 16.9479 59.5703 16.9609H54.1406C53.2292 16.9089 52.474 16.6029 51.875 16.043C51.2891 15.4701 50.8659 14.7734 50.6055 13.9531C50.3581 13.1328 50.2279 12.2604 50.2148 11.3359V10.7109H47.9688C47.6042 10.7109 47.2982 10.5807 47.0508 10.3203C46.7904 10.0729 46.6602 9.76693 46.6602 9.40234C46.6602 9.03776 46.7839 8.73177 47.0312 8.48438C47.2917 8.22396 47.6042 8.09375 47.9688 8.09375H50.2148V6.39453C50.2279 6.04297 50.3581 5.75 50.6055 5.51562C50.8529 5.26823 51.1523 5.13802 51.5039 5.125ZM73.6328 15.9258V11.2188C73.6328 10.8932 73.4635 10.724 73.125 10.7109H66.2891C66.0417 10.724 65.8268 10.8346 65.6445 11.043C65.4622 11.2383 65.3255 11.4727 65.2344 11.7461C65.1562 12.0065 65.1172 12.2734 65.1172 12.5469C65.1172 12.8073 65.1562 13.0742 65.2344 13.3477C65.3255 13.6081 65.4622 13.8424 65.6445 14.0508C65.8268 14.2461 66.0417 14.3438 66.2891 14.3438H71.2891C71.6536 14.3438 71.9596 14.474 72.207 14.7344C72.4674 14.9818 72.5977 15.2878 72.5977 15.6523C72.5977 16.0169 72.4674 16.3229 72.207 16.5703C71.9596 16.8307 71.6536 16.9609 71.2891 16.9609H66.3672C65.4557 16.9479 64.7005 16.694 64.1016 16.1992C63.5156 15.6914 63.0924 15.125 62.832 14.5C62.5846 13.862 62.4609 13.2044 62.4609 12.5273C62.4609 11.8763 62.5911 11.2383 62.8516 10.6133C63.112 9.97526 63.5352 9.40885 64.1211 8.91406C64.707 8.40625 65.5729 8.13281 66.7188 8.09375H74.9219C75.2865 8.09375 75.599 8.21745 75.8594 8.46484C76.1198 8.69922 76.2565 8.9987 76.2695 9.36328V15.9258C76.2695 16.2904 76.1328 16.5964 75.8594 16.8438C75.599 17.0781 75.2865 17.1953 74.9219 17.1953C74.1406 17.1302 73.7109 16.707 73.6328 15.9258ZM83.2617 17.1953C82.9102 17.1823 82.6107 17.0586 82.3633 16.8242C82.1159 16.5768 81.9857 16.2773 81.9727 15.9258V13.2891H79.7266C79.362 13.2891 79.0495 13.1654 78.7891 12.918C78.5417 12.6576 78.418 12.3451 78.418 11.9805C78.418 11.6159 78.5482 11.3099 78.8086 11.0625C79.056 10.8021 79.362 10.6719 79.7266 10.6719H81.9727C82.0117 9.90365 82.1419 9.16146 82.3633 8.44531C82.6237 7.625 83.0469 6.9349 83.6328 6.375C84.2318 5.80208 84.987 5.48958 85.8984 5.4375H91.3281C91.6797 5.45052 91.9727 5.58073 92.207 5.82812C92.4544 6.0625 92.5846 6.35547 92.5977 6.70703C92.5977 7.07161 92.474 7.38411 92.2266 7.64453C91.9922 7.90495 91.6927 8.04167 91.3281 8.05469H86.5625C86.0677 8.08073 85.6576 8.26953 85.332 8.62109C85.0065 8.97266 84.8047 9.36979 84.7266 9.8125C84.6615 10.099 84.6224 10.3854 84.6094 10.6719H91.25C91.6146 10.6719 91.9206 10.8021 92.168 11.0625C92.4284 11.3099 92.5586 11.6159 92.5586 11.9805C92.5586 12.3451 92.4349 12.6576 92.1875 12.918C91.9271 13.1654 91.6146 13.2891 91.25 13.2891H84.6094V15.9258C84.5964 16.2904 84.4596 16.5964 84.1992 16.8438C83.9388 17.0781 83.6263 17.1953 83.2617 17.1953ZM105.547 15.9258V11.2188C105.547 10.8932 105.378 10.724 105.039 10.7109H98.2031C97.9557 10.724 97.7409 10.8346 97.5586 11.043C97.3763 11.2383 97.2396 11.4727 97.1484 11.7461C97.0703 12.0065 97.0312 12.2734 97.0312 12.5469C97.0312 12.8073 97.0703 13.0742 97.1484 13.3477C97.2396 13.6081 97.3763 13.8424 97.5586 14.0508C97.7409 14.2461 97.9557 14.3438 98.2031 14.3438H103.203C103.568 14.3438 103.874 14.474 104.121 14.7344C104.382 14.9818 104.512 15.2878 104.512 15.6523C104.512 16.0169 104.382 16.3229 104.121 16.5703C103.874 16.8307 103.568 16.9609 103.203 16.9609H98.2812C97.3698 16.9479 96.6146 16.694 96.0156 16.1992C95.4297 15.6914 95.0065 15.125 94.7461 14.5C94.4987 13.862 94.375 13.2044 94.375 12.5273C94.375 11.8763 94.5052 11.2383 94.7656 10.6133C95.026 9.97526 95.4492 9.40885 96.0352 8.91406C96.6211 8.40625 97.487 8.13281 98.6328 8.09375H106.836C107.201 8.09375 107.513 8.21745 107.773 8.46484C108.034 8.69922 108.171 8.9987 108.184 9.36328V15.9258C108.184 16.2904 108.047 16.5964 107.773 16.8438C107.513 17.0781 107.201 17.1953 106.836 17.1953C106.055 17.1302 105.625 16.707 105.547 15.9258Z" fill="url(#paint0_linear_18_28)"/>
<path d="M20.5781 25.125C20.9297 25.138 21.2292 25.2682 21.4766 25.5156C21.724 25.75 21.8542 26.043 21.8672 26.3945V29.6562H28.2148V26.3945C28.2279 26.0299 28.3646 25.7305 28.625 25.4961C28.8854 25.2487 29.1979 25.125 29.5625 25.125C29.9141 25.138 30.2135 25.2682 30.4609 25.5156C30.7083 25.75 30.8385 26.043 30.8516 26.3945V35.9648C30.7734 36.7461 30.3438 37.1693 29.5625 37.2344C29.1979 37.2344 28.8789 37.1172 28.6055 36.8828C28.3451 36.6354 28.2148 36.3294 28.2148 35.9648V32.2734H21.8672V35.9648C21.7891 36.7461 21.3594 37.1693 20.5781 37.2344C20.2135 37.2344 19.8945 37.1172 19.6211 36.8828C19.3607 36.6354 19.2305 36.3294 19.2305 35.9648V26.3945C19.2435 26.0299 19.3802 25.7305 19.6406 25.4961C19.901 25.2487 20.2135 25.125 20.5781 25.125ZM44.1914 35.9258V31.2188C44.1914 30.8932 44.0221 30.724 43.6836 30.7109H36.8477C36.6003 30.724 36.3854 30.8346 36.2031 31.043C36.0208 31.2383 35.8841 31.4727 35.793 31.7461C35.7148 32.0065 35.6758 32.2734 35.6758 32.5469C35.6758 32.8073 35.7148 33.0742 35.793 33.3477C35.8841 33.6081 36.0208 33.8424 36.2031 34.0508C36.3854 34.2461 36.6003 34.3438 36.8477 34.3438H41.8477C42.2122 34.3438 42.5182 34.474 42.7656 34.7344C43.026 34.9818 43.1562 35.2878 43.1562 35.6523C43.1562 36.0169 43.026 36.3229 42.7656 36.5703C42.5182 36.8307 42.2122 36.9609 41.8477 36.9609H36.9258C36.0143 36.9479 35.2591 36.694 34.6602 36.1992C34.0742 35.6914 33.651 35.125 33.3906 34.5C33.1432 33.862 33.0195 33.2044 33.0195 32.5273C33.0195 31.8763 33.1497 31.2383 33.4102 30.6133C33.6706 29.9753 34.0938 29.4089 34.6797 28.9141C35.2656 28.4062 36.1315 28.1328 37.2773 28.0938H45.4805C45.8451 28.0938 46.1576 28.2174 46.418 28.4648C46.6784 28.6992 46.8151 28.9987 46.8281 29.3633V35.9258C46.8281 36.2904 46.6914 36.5964 46.418 36.8438C46.1576 37.0781 45.8451 37.1953 45.4805 37.1953C44.6992 37.1302 44.2695 36.707 44.1914 35.9258ZM61.75 29.2266C61.75 29.5521 61.6198 29.8255 61.3594 30.0469C61.112 30.2552 60.806 30.3594 60.4414 30.3594H52.1797C52.0104 30.3594 51.8737 30.3919 51.7695 30.457C51.6654 30.5221 51.5872 30.5938 51.5352 30.6719C51.4831 30.737 51.457 30.7956 51.457 30.8477C51.457 30.9128 51.4831 30.9844 51.5352 31.0625C51.5872 31.1276 51.6654 31.1927 51.7695 31.2578C51.8737 31.3099 52.0104 31.3424 52.1797 31.3555H58.5664C59.3867 31.3685 60.0638 31.5312 60.5977 31.8438C61.1315 32.1432 61.5091 32.5013 61.7305 32.918C61.9648 33.3216 62.082 33.7318 62.082 34.1484C62.082 34.5521 61.9648 34.9622 61.7305 35.3789C61.4961 35.7826 61.112 36.1406 60.5781 36.4531C60.0573 36.7526 59.3867 36.9023 58.5664 36.9023C58.4232 36.9154 58.319 36.9219 58.2539 36.9219H50.6758C50.3112 36.9219 49.9987 36.8177 49.7383 36.6094C49.4909 36.388 49.3672 36.1211 49.3672 35.8086C49.3672 35.4831 49.4974 35.2096 49.7578 34.9883C50.0052 34.7799 50.3112 34.6758 50.6758 34.6758H58.7227C58.918 34.6888 59.0742 34.6628 59.1914 34.5977C59.3216 34.5326 59.4193 34.4609 59.4844 34.3828C59.5495 34.3047 59.582 34.2266 59.582 34.1484C59.582 34.1094 59.5495 34.0443 59.4844 33.9531C59.4193 33.849 59.3216 33.7708 59.1914 33.7188C59.0742 33.6536 58.918 33.6146 58.7227 33.6016H52.3164C51.5612 33.5885 50.9362 33.4323 50.4414 33.1328C49.9466 32.8203 49.5951 32.4622 49.3867 32.0586C49.1784 31.6549 49.0742 31.2513 49.0742 30.8477C49.0742 30.444 49.1784 30.0469 49.3867 29.6562C49.6081 29.2526 49.9596 28.9076 50.4414 28.6211C50.9362 28.3216 51.5612 28.1589 52.3164 28.1328C52.4466 28.1198 52.5443 28.1133 52.6094 28.1133H60.4414C60.806 28.1133 61.112 28.224 61.3594 28.4453C61.6198 28.6536 61.75 28.9141 61.75 29.2266ZM76.6523 29.2266C76.6523 29.5521 76.5221 29.8255 76.2617 30.0469C76.0143 30.2552 75.7083 30.3594 75.3438 30.3594H67.082C66.9128 30.3594 66.776 30.3919 66.6719 30.457C66.5677 30.5221 66.4896 30.5938 66.4375 30.6719C66.3854 30.737 66.3594 30.7956 66.3594 30.8477C66.3594 30.9128 66.3854 30.9844 66.4375 31.0625C66.4896 31.1276 66.5677 31.1927 66.6719 31.2578C66.776 31.3099 66.9128 31.3424 67.082 31.3555H73.4688C74.2891 31.3685 74.9661 31.5312 75.5 31.8438C76.0339 32.1432 76.4115 32.5013 76.6328 32.918C76.8672 33.3216 76.9844 33.7318 76.9844 34.1484C76.9844 34.5521 76.8672 34.9622 76.6328 35.3789C76.3984 35.7826 76.0143 36.1406 75.4805 36.4531C74.9596 36.7526 74.2891 36.9023 73.4688 36.9023C73.3255 36.9154 73.2214 36.9219 73.1562 36.9219H65.5781C65.2135 36.9219 64.901 36.8177 64.6406 36.6094C64.3932 36.388 64.2695 36.1211 64.2695 35.8086C64.2695 35.4831 64.3997 35.2096 64.6602 34.9883C64.9076 34.7799 65.2135 34.6758 65.5781 34.6758H73.625C73.8203 34.6888 73.9766 34.6628 74.0938 34.5977C74.224 34.5326 74.3216 34.4609 74.3867 34.3828C74.4518 34.3047 74.4844 34.2266 74.4844 34.1484C74.4844 34.1094 74.4518 34.0443 74.3867 33.9531C74.3216 33.849 74.224 33.7708 74.0938 33.7188C73.9766 33.6536 73.8203 33.6146 73.625 33.6016H67.2188C66.4635 33.5885 65.8385 33.4323 65.3438 33.1328C64.849 32.8203 64.4974 32.4622 64.2891 32.0586C64.0807 31.6549 63.9766 31.2513 63.9766 30.8477C63.9766 30.444 64.0807 30.0469 64.2891 29.6562C64.5104 29.2526 64.862 28.9076 65.3438 28.6211C65.8385 28.3216 66.4635 28.1589 67.2188 28.1328C67.349 28.1198 67.4466 28.1133 67.5117 28.1133H75.3438C75.7083 28.1133 76.0143 28.224 76.2617 28.4453C76.5221 28.6536 76.6523 28.9141 76.6523 29.2266ZM90.0703 35.9258V31.2188C90.0703 30.8932 89.901 30.724 89.5625 30.7109H82.7266C82.4792 30.724 82.2643 30.8346 82.082 31.043C81.8997 31.2383 81.763 31.4727 81.6719 31.7461C81.5938 32.0065 81.5547 32.2734 81.5547 32.5469C81.5547 32.8073 81.5938 33.0742 81.6719 33.3477C81.763 33.6081 81.8997 33.8424 82.082 34.0508C82.2643 34.2461 82.4792 34.3438 82.7266 34.3438H87.7266C88.0911 34.3438 88.3971 34.474 88.6445 34.7344C88.9049 34.9818 89.0352 35.2878 89.0352 35.6523C89.0352 36.0169 88.9049 36.3229 88.6445 36.5703C88.3971 36.8307 88.0911 36.9609 87.7266 36.9609H82.8047C81.8932 36.9479 81.138 36.694 80.5391 36.1992C79.9531 35.6914 79.5299 35.125 79.2695 34.5C79.0221 33.862 78.8984 33.2044 78.8984 32.5273C78.8984 31.8763 79.0286 31.2383 79.2891 30.6133C79.5495 29.9753 79.9727 29.4089 80.5586 28.9141C81.1445 28.4062 82.0104 28.1328 83.1562 28.0938H91.3594C91.724 28.0938 92.0365 28.2174 92.2969 28.4648C92.5573 28.6992 92.694 28.9987 92.707 29.3633V35.9258C92.707 36.2904 92.5703 36.5964 92.2969 36.8438C92.0365 37.0781 91.724 37.1953 91.3594 37.1953C90.5781 37.1302 90.1484 36.707 90.0703 35.9258ZM101.457 27.8008C102.134 27.8008 102.798 27.8789 103.449 28.0352C104.113 28.1914 104.745 28.4258 105.344 28.7383C105.943 29.0378 106.47 29.4414 106.926 29.9492C107.395 30.457 107.648 31.0625 107.688 31.7656V32.5859V35.9258C107.609 36.707 107.18 37.1302 106.398 37.1953C106.034 37.1953 105.715 37.0781 105.441 36.8438C105.181 36.5964 105.051 36.2904 105.051 35.9258V35.0664V32.3711C105.025 31.9674 104.868 31.6354 104.582 31.375C104.309 31.1016 103.996 30.8867 103.645 30.7305C103.306 30.5742 102.948 30.457 102.57 30.3789C102.206 30.3008 101.835 30.2617 101.457 30.2617C101.079 30.2617 100.702 30.3008 100.324 30.3789C99.9596 30.457 99.6016 30.5742 99.25 30.7305C98.9115 30.8867 98.599 31.1016 98.3125 31.375C98.0391 31.6354 97.8893 31.9674 97.8633 32.3711V35.0664V35.9258C97.7982 36.707 97.375 37.1302 96.5938 37.1953C96.2292 37.1953 95.9102 37.0781 95.6367 36.8438C95.3763 36.5964 95.2461 36.2904 95.2461 35.9258V32.5859V31.7656C95.2852 31.0625 95.5326 30.457 95.9883 29.9492C96.444 29.4414 96.9714 29.0378 97.5703 28.7383C98.1693 28.4258 98.7943 28.1914 99.4453 28.0352C100.109 27.8789 100.78 27.8008 101.457 27.8008Z" fill="url(#paint1_linear_18_28)"/>
<circle cx="8.5" cy="30.5" r="7.5" fill="url(#paint2_radial_18_28)"/>
<defs>
<linearGradient id="paint0_linear_18_28" x1="0" y1="10" x2="110" y2="10" gradientUnits="userSpaceOnUse">
<stop stop-color="#16AABB"/>
<stop offset="0.6875" stop-color="#0A4D55"/>
</linearGradient>
<linearGradient id="paint1_linear_18_28" x1="18" y1="30" x2="109" y2="30" gradientUnits="userSpaceOnUse">
<stop stop-color="#16AABB"/>
<stop offset="0.519231" stop-color="#0A4D55"/>
</linearGradient>
<radialGradient id="paint2_radial_18_28" cx="0" cy="0" r="1" gradientUnits="userSpaceOnUse" gradientTransform="translate(8.5 30.5) rotate(160.878) scale(7.938)">
<stop stop-color="white"/>
<stop offset="0.841346" stop-color="#16AABB"/>
</radialGradient>
</defs>
</svg>
