<svg width="50" height="44" viewBox="0 0 50 44" fill="none" xmlns="http://www.w3.org/2000/svg">
<mask id="path-1-outside-1_2070_8" maskUnits="userSpaceOnUse" x="-0.482178" y="-0.894531" width="50" height="45" fill="black">
<rect fill="white" x="-0.482178" y="-0.894531" width="50" height="45"/>
<path d="M15.0118 1C16.5612 1 18.0664 1.26562 19.5274 1.79688C21.0326 2.32812 22.4714 3.10286 23.8438 4.12109C24.0651 4.34245 24.3086 4.5638 24.5743 4.78516C24.7956 4.5638 25.0391 4.34245 25.3047 4.12109C26.6771 3.10286 28.0938 2.32812 29.5547 1.79688C31.0599 1.26562 32.5651 1 34.0703 1C35.6198 1 37.125 1.26562 38.586 1.79688C40.0912 2.32812 41.5078 3.125 42.836 4.1875C44.2084 5.20573 45.4037 6.57812 46.4219 8.30469C47.4844 10.0312 48.0157 12.0898 48.0157 14.4805V38.4531C47.75 41.1094 46.2891 42.5482 43.6328 42.7695C42.3933 42.7695 41.3086 42.3711 40.3789 41.5742C39.4935 40.7331 39.0508 39.6927 39.0508 38.4531V15.0117C39.0508 13.9492 38.8516 13.0638 38.4532 12.3555C38.0547 11.6029 37.612 11.0273 37.125 10.6289C36.6381 10.1862 36.1289 9.8763 35.5977 9.69922C35.0664 9.47786 34.5352 9.36719 34.0039 9.36719C33.4727 9.36719 32.9414 9.47786 32.4102 9.69922C31.9232 9.8763 31.4362 10.1862 30.9493 10.6289C30.4623 11.0273 30.0196 11.6029 29.6211 12.3555C29.2227 13.0638 29.0013 13.9492 28.9571 15.0117V38.4531C28.6914 41.1094 27.2305 42.5482 24.5743 42.7695C23.3347 42.7695 22.25 42.3711 21.3203 41.5742C20.4349 40.7331 19.9922 39.6927 19.9922 38.4531V15.0117C19.9922 13.9492 19.793 13.0638 19.3946 12.3555C18.9961 11.6029 18.5534 11.0273 18.0664 10.6289C17.5795 10.1862 17.0703 9.8763 16.5391 9.69922C16.0078 9.47786 15.4766 9.36719 14.9453 9.36719C14.4141 9.36719 13.8828 9.47786 13.3516 9.69922C12.8646 9.8763 12.3776 10.1862 11.8907 10.6289C11.4037 11.0273 10.961 11.6029 10.5625 12.3555C10.1641 13.0638 9.94274 13.9492 9.89847 15.0117V38.4531C9.67712 41.1094 8.23832 42.5482 5.58207 42.7695C4.34248 42.7695 3.25785 42.3711 2.32816 41.5742C1.44274 40.7331 1.00004 39.6927 1.00004 38.4531V14.4805C1.08858 12.0898 1.64196 10.0312 2.66019 8.30469C3.67842 6.57812 4.87373 5.20573 6.24613 4.1875C7.61853 3.125 9.03519 2.32812 10.4961 1.79688C12.0013 1.26562 13.5065 1 15.0118 1Z"/>
</mask>
<path d="M15.0118 1C16.5612 1 18.0664 1.26562 19.5274 1.79688C21.0326 2.32812 22.4714 3.10286 23.8438 4.12109C24.0651 4.34245 24.3086 4.5638 24.5743 4.78516C24.7956 4.5638 25.0391 4.34245 25.3047 4.12109C26.6771 3.10286 28.0938 2.32812 29.5547 1.79688C31.0599 1.26562 32.5651 1 34.0703 1C35.6198 1 37.125 1.26562 38.586 1.79688C40.0912 2.32812 41.5078 3.125 42.836 4.1875C44.2084 5.20573 45.4037 6.57812 46.4219 8.30469C47.4844 10.0312 48.0157 12.0898 48.0157 14.4805V38.4531C47.75 41.1094 46.2891 42.5482 43.6328 42.7695C42.3933 42.7695 41.3086 42.3711 40.3789 41.5742C39.4935 40.7331 39.0508 39.6927 39.0508 38.4531V15.0117C39.0508 13.9492 38.8516 13.0638 38.4532 12.3555C38.0547 11.6029 37.612 11.0273 37.125 10.6289C36.6381 10.1862 36.1289 9.8763 35.5977 9.69922C35.0664 9.47786 34.5352 9.36719 34.0039 9.36719C33.4727 9.36719 32.9414 9.47786 32.4102 9.69922C31.9232 9.8763 31.4362 10.1862 30.9493 10.6289C30.4623 11.0273 30.0196 11.6029 29.6211 12.3555C29.2227 13.0638 29.0013 13.9492 28.9571 15.0117V38.4531C28.6914 41.1094 27.2305 42.5482 24.5743 42.7695C23.3347 42.7695 22.25 42.3711 21.3203 41.5742C20.4349 40.7331 19.9922 39.6927 19.9922 38.4531V15.0117C19.9922 13.9492 19.793 13.0638 19.3946 12.3555C18.9961 11.6029 18.5534 11.0273 18.0664 10.6289C17.5795 10.1862 17.0703 9.8763 16.5391 9.69922C16.0078 9.47786 15.4766 9.36719 14.9453 9.36719C14.4141 9.36719 13.8828 9.47786 13.3516 9.69922C12.8646 9.8763 12.3776 10.1862 11.8907 10.6289C11.4037 11.0273 10.961 11.6029 10.5625 12.3555C10.1641 13.0638 9.94274 13.9492 9.89847 15.0117V38.4531C9.67712 41.1094 8.23832 42.5482 5.58207 42.7695C4.34248 42.7695 3.25785 42.3711 2.32816 41.5742C1.44274 40.7331 1.00004 39.6927 1.00004 38.4531V14.4805C1.08858 12.0898 1.64196 10.0312 2.66019 8.30469C3.67842 6.57812 4.87373 5.20573 6.24613 4.1875C7.61853 3.125 9.03519 2.32812 10.4961 1.79688C12.0013 1.26562 13.5065 1 15.0118 1Z" fill="url(#paint0_linear_2070_8)"/>
<path d="M19.5274 1.79688L19.1856 2.73671L19.1946 2.73987L19.5274 1.79688ZM23.8438 4.12109L24.5509 3.41399L24.4988 3.36189L24.4396 3.318L23.8438 4.12109ZM24.5743 4.78516L23.9341 5.55338L24.6356 6.138L25.2814 5.49226L24.5743 4.78516ZM25.3047 4.12109L24.7089 3.318L24.6862 3.33481L24.6645 3.35287L25.3047 4.12109ZM29.5547 1.79688L29.2219 0.853842L29.213 0.857082L29.5547 1.79688ZM38.586 1.79688L38.2442 2.73671L38.2532 2.73987L38.586 1.79688ZM42.836 4.1875L42.2113 4.96837L42.2255 4.97975L42.2401 4.9906L42.836 4.1875ZM46.4219 8.30469L45.5605 8.81267L45.5653 8.82077L45.5703 8.82878L46.4219 8.30469ZM48.0157 38.4531L49.0107 38.5526L49.0157 38.503V38.4531H48.0157ZM43.6329 42.7695V43.7695H43.6744L43.7159 43.7661L43.6329 42.7695ZM40.3789 41.5742L39.6902 42.2992L39.7087 42.3168L39.7281 42.3335L40.3789 41.5742ZM38.4532 12.3555L37.5694 12.8234L37.5753 12.8346L37.5816 12.8457L38.4532 12.3555ZM37.125 10.6289L36.4524 11.3688L36.4716 11.3864L36.4918 11.4029L37.125 10.6289ZM35.5977 9.69922L35.2131 10.6223L35.2468 10.6363L35.2815 10.6479L35.5977 9.69922ZM32.4102 9.69922L32.7519 10.639L32.7736 10.6311L32.7948 10.6223L32.4102 9.69922ZM30.9493 10.6289L31.5825 11.4029L31.6027 11.3864L31.6219 11.3688L30.9493 10.6289ZM29.6211 12.3555L30.4927 12.8457L30.499 12.8346L30.5049 12.8234L29.6211 12.3555ZM28.9571 15.0117L27.9579 14.9701L27.9571 14.9909V15.0117H28.9571ZM28.9571 38.4531L29.9521 38.5526L29.9571 38.503V38.4531H28.9571ZM24.5743 42.7695V43.7695H24.6159L24.6573 43.7661L24.5743 42.7695ZM21.3203 41.5742L20.6316 42.2992L20.6501 42.3168L20.6696 42.3335L21.3203 41.5742ZM19.3946 12.3555L18.5108 12.8234L18.5167 12.8346L18.523 12.8457L19.3946 12.3555ZM18.0664 10.6289L17.3938 11.3688L17.413 11.3864L17.4332 11.4029L18.0664 10.6289ZM16.5391 9.69922L16.1545 10.6223L16.1882 10.6363L16.2229 10.6479L16.5391 9.69922ZM13.3516 9.69922L13.6933 10.639L13.715 10.6311L13.7362 10.6223L13.3516 9.69922ZM11.8907 10.6289L12.5239 11.4029L12.5441 11.3864L12.5633 11.3688L11.8907 10.6289ZM10.5625 12.3555L11.4341 12.8457L11.4404 12.8346L11.4463 12.8234L10.5625 12.3555ZM9.89847 15.0117L8.89934 14.9701L8.89847 14.9909V15.0117H9.89847ZM9.89847 38.4531L10.895 38.5362L10.8985 38.4947V38.4531H9.89847ZM5.58207 42.7695V43.7695H5.62366L5.66511 43.7661L5.58207 42.7695ZM2.32816 41.5742L1.63941 42.2992L1.65795 42.3168L1.67737 42.3335L2.32816 41.5742ZM1.00004 14.4805L0.000721455 14.4435L3.62396e-05 14.462V14.4805H1.00004ZM6.24613 4.1875L6.84198 4.9906L6.8502 4.9845L6.8583 4.97822L6.24613 4.1875ZM10.4961 1.79688L10.1633 0.853842L10.1544 0.857082L10.4961 1.79688ZM15.0118 1V2C16.4443 2 17.8339 2.24512 19.1856 2.73667L19.5274 1.79688L19.8691 0.857082C18.299 0.286133 16.6782 0 15.0118 0V1ZM19.5274 1.79688L19.1946 2.73987C20.5992 3.23561 21.9501 3.96127 23.2479 4.92419L23.8438 4.12109L24.4396 3.318C22.9927 2.24446 21.466 1.42064 19.8602 0.853884L19.5274 1.79688ZM23.8438 4.12109L23.1367 4.8282C23.3815 5.073 23.6476 5.31465 23.9341 5.55338L24.5743 4.78516L25.2144 4.01694C24.9697 3.81296 24.7488 3.61189 24.5509 3.41399L23.8438 4.12109ZM24.5743 4.78516L25.2814 5.49226C25.4793 5.29436 25.7001 5.09329 25.9449 4.88931L25.3047 4.12109L24.6645 3.35287C24.3781 3.5916 24.1119 3.83325 23.8671 4.07805L24.5743 4.78516ZM25.3047 4.12109L25.9006 4.92419C27.203 3.9579 28.5349 3.23178 29.8965 2.73667L29.5547 1.79688L29.213 0.857082C27.6527 1.42447 26.1513 2.24782 24.7089 3.318L25.3047 4.12109ZM29.5547 1.79688L29.8875 2.73987C31.2924 2.24405 32.6852 2 34.0704 2V1V0C32.4451 0 30.8275 0.287199 29.2219 0.853884L29.5547 1.79688ZM34.0704 1V2C35.5029 2 36.8925 2.24512 38.2442 2.73667L38.586 1.79688L38.9277 0.857082C37.3576 0.286133 35.7368 0 34.0704 0V1ZM38.586 1.79688L38.2532 2.73987C39.6459 3.23143 40.9649 3.97127 42.2113 4.96837L42.836 4.1875L43.4607 3.40663C42.0508 2.27873 40.5364 1.42482 38.9188 0.853884L38.586 1.79688ZM42.836 4.1875L42.2401 4.9906C43.4883 5.91664 44.5986 7.1816 45.5605 8.81267L46.4219 8.30469L47.2833 7.7967C46.2087 5.97465 44.9285 4.49481 43.4318 3.3844L42.836 4.1875ZM46.4219 8.30469L45.5703 8.82878C46.5196 10.3714 47.0157 12.2413 47.0157 14.4805H48.0157H49.0157C49.0157 11.9384 48.4493 9.6911 47.2736 7.78059L46.4219 8.30469ZM48.0157 14.4805H47.0157V38.4531H48.0157H49.0157V14.4805H48.0157ZM48.0157 38.4531L47.0206 38.3536C46.9039 39.5206 46.5385 40.3003 46.0191 40.8119C45.4998 41.3233 44.7158 41.6758 43.5498 41.773L43.6329 42.7695L43.7159 43.7661C45.2061 43.6419 46.4808 43.1643 47.4224 42.2369C48.3639 41.3097 48.8618 40.0419 49.0107 38.5526L48.0157 38.4531ZM43.6329 42.7695V41.7695C42.6287 41.7695 41.7757 41.4544 41.0297 40.815L40.3789 41.5742L39.7281 42.3335C40.8415 43.2878 42.1578 43.7695 43.6329 43.7695V42.7695ZM40.3789 41.5742L41.0677 40.8492C40.3844 40.2001 40.0508 39.4233 40.0508 38.4531H39.0508H38.0508C38.0508 39.9622 38.6027 41.2661 39.6902 42.2992L40.3789 41.5742ZM39.0508 38.4531H40.0508V15.0117H39.0508H38.0508V38.4531H39.0508ZM39.0508 15.0117H40.0508C40.0508 13.8287 39.8294 12.7623 39.3247 11.8652L38.4532 12.3555L37.5816 12.8457C37.8738 13.3653 38.0508 14.0697 38.0508 15.0117H39.0508ZM38.4532 12.3555L39.3369 11.8876C38.8969 11.0564 38.3778 10.3618 37.7583 9.85495L37.125 10.6289L36.4918 11.4029C36.8462 11.6929 37.2125 12.1493 37.5694 12.8234L38.4532 12.3555ZM37.125 10.6289L37.7977 9.88897C37.2256 9.36884 36.5983 8.97867 35.9139 8.75054L35.5977 9.69922L35.2815 10.6479C35.6596 10.7739 36.0505 11.0036 36.4524 11.3688L37.125 10.6289ZM35.5977 9.69922L35.9823 8.77614C35.3394 8.50828 34.6779 8.36719 34.0039 8.36719V9.36719V10.3672C34.3925 10.3672 34.7935 10.4475 35.2131 10.6223L35.5977 9.69922ZM34.0039 9.36719V8.36719C33.33 8.36719 32.6685 8.50828 32.0256 8.77614L32.4102 9.69922L32.7948 10.6223C33.2144 10.4475 33.6154 10.3672 34.0039 10.3672V9.36719ZM32.4102 9.69922L32.0685 8.75943C31.4311 8.9912 30.8349 9.38144 30.2766 9.88897L30.9493 10.6289L31.6219 11.3688C32.0376 10.991 32.4154 10.7614 32.7519 10.639L32.4102 9.69922ZM30.9493 10.6289L30.316 9.85495C29.6965 10.3618 29.1774 11.0564 28.7373 11.8876L29.6211 12.3555L30.5049 12.8234C30.8618 12.1493 31.2281 11.6929 31.5825 11.4029L30.9493 10.6289ZM29.6211 12.3555L28.7496 11.8652C28.2537 12.7467 28.0068 13.7969 27.9579 14.9701L28.9571 15.0117L29.9562 15.0533C29.9959 14.1015 30.1917 13.3809 30.4927 12.8457L29.6211 12.3555ZM28.9571 15.0117H27.9571V38.4531H28.9571H29.9571V15.0117H28.9571ZM28.9571 38.4531L27.962 38.3536C27.8453 39.5206 27.4799 40.3003 26.9605 40.8119C26.4412 41.3233 25.6572 41.6758 24.4912 41.773L24.5743 42.7695L24.6573 43.7661C26.1475 43.6419 27.4222 43.1643 28.3638 42.2369C29.3053 41.3097 29.8032 40.0419 29.9521 38.5526L28.9571 38.4531ZM24.5743 42.7695V41.7695C23.5701 41.7695 22.7171 41.4544 21.9711 40.815L21.3203 41.5742L20.6696 42.3335C21.7829 43.2878 23.0992 43.7695 24.5743 43.7695V42.7695ZM21.3203 41.5742L22.0091 40.8492C21.3258 40.2001 20.9922 39.4233 20.9922 38.4531H19.9922H18.9922C18.9922 39.9622 19.5441 41.2661 20.6316 42.2992L21.3203 41.5742ZM19.9922 38.4531H20.9922V15.0117H19.9922H18.9922V38.4531H19.9922ZM19.9922 15.0117H20.9922C20.9922 13.8287 20.7708 12.7623 20.2661 11.8652L19.3946 12.3555L18.523 12.8457C18.8152 13.3653 18.9922 14.0697 18.9922 15.0117H19.9922ZM19.3946 12.3555L20.2784 11.8876C19.8383 11.0564 19.3192 10.3618 18.6997 9.85495L18.0664 10.6289L17.4332 11.4029C17.7876 11.6929 18.1539 12.1493 18.5108 12.8234L19.3946 12.3555ZM18.0664 10.6289L18.7391 9.88897C18.167 9.36884 17.5397 8.97867 16.8553 8.75054L16.5391 9.69922L16.2229 10.6479C16.601 10.7739 16.9919 11.0036 17.3938 11.3688L18.0664 10.6289ZM16.5391 9.69922L16.9237 8.77614C16.2808 8.50828 15.6193 8.36719 14.9453 8.36719V9.36719V10.3672C15.3339 10.3672 15.7349 10.4475 16.1545 10.6223L16.5391 9.69922ZM14.9453 9.36719V8.36719C14.2714 8.36719 13.6099 8.50828 12.967 8.77614L13.3516 9.69922L13.7362 10.6223C14.1558 10.4475 14.5568 10.3672 14.9453 10.3672V9.36719ZM13.3516 9.69922L13.0099 8.75943C12.3725 8.9912 11.7763 9.38144 11.218 9.88897L11.8907 10.6289L12.5633 11.3688C12.979 10.991 13.3568 10.7614 13.6933 10.639L13.3516 9.69922ZM11.8907 10.6289L11.2574 9.85495C10.6379 10.3618 10.1188 11.0564 9.67875 11.8876L10.5625 12.3555L11.4463 12.8234C11.8032 12.1493 12.1695 11.6929 12.5239 11.4029L11.8907 10.6289ZM10.5625 12.3555L9.69096 11.8652C9.19514 12.7467 8.94822 13.7969 8.89934 14.9701L9.89847 15.0117L10.8976 15.0533C10.9373 14.1015 11.1331 13.3809 11.4341 12.8457L10.5625 12.3555ZM9.89847 15.0117H8.89847V38.4531H9.89847H10.8985V15.0117H9.89847ZM9.89847 38.4531L8.90193 38.3701C8.80472 39.5366 8.45242 40.3111 7.94625 40.8173C7.44008 41.3235 6.66557 41.6758 5.49902 41.773L5.58207 42.7695L5.66511 43.7661C7.15481 43.6419 8.42783 43.1642 9.36046 42.2315C10.2931 41.2989 10.7709 40.0259 10.895 38.5362L9.89847 38.4531ZM5.58207 42.7695V41.7695C4.57796 41.7695 3.72496 41.4544 2.97895 40.815L2.32816 41.5742L1.67737 42.3335C2.79074 43.2878 4.10701 43.7695 5.58207 43.7695V42.7695ZM2.32816 41.5742L3.01691 40.8492C2.33357 40.2001 2.00004 39.4233 2.00004 38.4531H1.00004H3.62396e-05C3.62396e-05 39.9622 0.551915 41.2661 1.63941 42.2992L2.32816 41.5742ZM1.00004 38.4531H2.00004V14.4805H1.00004H3.62396e-05V38.4531H1.00004ZM1.00004 14.4805L1.99935 14.5175C2.08293 12.2608 2.60263 10.3709 3.52156 8.81267L2.66019 8.30469L1.79883 7.7967C0.6813 9.69164 0.0942254 11.9189 0.000721455 14.4435L1.00004 14.4805ZM2.66019 8.30469L3.52156 8.81267C4.48347 7.1816 5.59383 5.91664 6.84198 4.9906L6.24613 4.1875L5.65028 3.3844C4.15364 4.49481 2.87337 5.97465 1.79883 7.7967L2.66019 8.30469ZM6.24613 4.1875L6.8583 4.97822C8.15825 3.97182 9.48486 3.22867 10.8379 2.73667L10.4961 1.79688L10.1544 0.857082C8.58552 1.42758 7.0788 2.27818 5.63396 3.39678L6.24613 4.1875ZM10.4961 1.79688L10.8289 2.73987C12.2338 2.24405 13.6266 2 15.0118 2V1V0C13.3865 0 11.7689 0.287199 10.1633 0.853884L10.4961 1.79688Z" fill="#12A2B2" fill-opacity="0.9" mask="url(#path-1-outside-1_2070_8)"/>
<defs>
<linearGradient id="paint0_linear_2070_8" x1="24.4746" y1="-15.8945" x2="24.4746" y2="52.1055" gradientUnits="userSpaceOnUse">
<stop offset="0.259615" stop-color="#08454C"/>
<stop offset="1" stop-color="#13A2B2"/>
</linearGradient>
</defs>
</svg>
