<svg width="108" height="13" viewBox="0 0 108 13" fill="none" xmlns="http://www.w3.org/2000/svg">
<path d="M4.27344 11.9609C3.1276 11.9219 2.26172 11.6549 1.67578 11.1602C1.08984 10.6523 0.666667 10.0859 0.40625 9.46094C0.145833 8.82292 0.015625 8.17839 0.015625 7.52734C0.015625 6.85026 0.139323 6.19922 0.386719 5.57422C0.647135 4.9362 1.07031 4.36979 1.65625 3.875C2.25521 3.36719 3.01042 3.10677 3.92188 3.09375H10.25C11.1615 3.10677 11.9102 3.36719 12.4961 3.875C13.0951 4.36979 13.5182 4.9362 13.7656 5.57422C14.026 6.19922 14.1562 6.85026 14.1562 7.52734C14.1562 8.17839 14.026 8.82292 13.7656 9.46094C13.5052 10.0859 13.082 10.6523 12.4961 11.1602C11.9102 11.6549 11.0443 11.9219 9.89844 11.9609H4.27344ZM3.84375 5.71094C3.59635 5.71094 3.38151 5.8151 3.19922 6.02344C3.01693 6.21875 2.88021 6.45312 2.78906 6.72656C2.71094 6.98698 2.67188 7.2474 2.67188 7.50781C2.67188 7.78125 2.71094 8.05469 2.78906 8.32812C2.88021 8.58854 3.01693 8.82292 3.19922 9.03125C3.38151 9.22656 3.59635 9.33073 3.84375 9.34375H10.3281C10.5755 9.33073 10.7904 9.22656 10.9727 9.03125C11.1549 8.82292 11.2852 8.58854 11.3633 8.32812C11.4544 8.05469 11.5 7.78125 11.5 7.50781C11.5 7.2474 11.4544 6.98698 11.3633 6.72656C11.2852 6.45312 11.1549 6.21875 10.9727 6.02344C10.7904 5.8151 10.5755 5.71094 10.3281 5.71094H3.84375ZM22.6328 12.293C21.9557 12.293 21.2852 12.2148 20.6211 12.0586C19.9701 11.9023 19.3451 11.6745 18.7461 11.375C18.1471 11.0625 17.6198 10.6523 17.1641 10.1445C16.7083 9.63672 16.4609 9.03125 16.4219 8.32812V7.50781V4.16797C16.4219 3.80339 16.5521 3.50391 16.8125 3.26953C17.0859 3.02214 17.4049 2.89844 17.7695 2.89844C18.5508 2.96354 18.974 3.38672 19.0391 4.16797V5.02734V7.72266C19.0651 8.1263 19.2148 8.46484 19.4883 8.73828C19.7747 8.9987 20.0872 9.20703 20.4258 9.36328C20.7773 9.51953 21.1354 9.63672 21.5 9.71484C21.8776 9.79297 22.2552 9.83203 22.6328 9.83203C23.0104 9.83203 23.3815 9.79297 23.7461 9.71484C24.1237 9.63672 24.4818 9.51953 24.8203 9.36328C25.1719 9.20703 25.4844 8.9987 25.7578 8.73828C26.0443 8.46484 26.2005 8.1263 26.2266 7.72266V5.02734V4.16797C26.2266 3.80339 26.3568 3.50391 26.6172 3.26953C26.8906 3.02214 27.2096 2.89844 27.5742 2.89844C28.3555 2.96354 28.7852 3.38672 28.8633 4.16797V7.50781V8.32812C28.8242 9.03125 28.5703 9.63672 28.1016 10.1445C27.6458 10.6523 27.1185 11.0625 26.5195 11.375C25.9206 11.6745 25.2891 11.9023 24.625 12.0586C23.974 12.2148 23.3099 12.293 22.6328 12.293ZM43.7656 4.22656C43.7656 4.55208 43.6354 4.82552 43.375 5.04688C43.1276 5.25521 42.8216 5.35938 42.457 5.35938H34.1953C34.026 5.35938 33.8893 5.39193 33.7852 5.45703C33.681 5.52214 33.6029 5.59375 33.5508 5.67188C33.4987 5.73698 33.4727 5.79557 33.4727 5.84766C33.4727 5.91276 33.4987 5.98438 33.5508 6.0625C33.6029 6.1276 33.681 6.19271 33.7852 6.25781C33.8893 6.3099 34.026 6.34245 34.1953 6.35547H40.582C41.4023 6.36849 42.0794 6.53125 42.6133 6.84375C43.1471 7.14323 43.5247 7.5013 43.7461 7.91797C43.9805 8.32161 44.0977 8.73177 44.0977 9.14844C44.0977 9.55208 43.9805 9.96224 43.7461 10.3789C43.5117 10.7826 43.1276 11.1406 42.5938 11.4531C42.0729 11.7526 41.4023 11.9023 40.582 11.9023C40.4388 11.9154 40.3346 11.9219 40.2695 11.9219H32.6914C32.3268 11.9219 32.0143 11.8177 31.7539 11.6094C31.5065 11.388 31.3828 11.1211 31.3828 10.8086C31.3828 10.4831 31.513 10.2096 31.7734 9.98828C32.0208 9.77995 32.3268 9.67578 32.6914 9.67578H40.7383C40.9336 9.6888 41.0898 9.66276 41.207 9.59766C41.3372 9.53255 41.4349 9.46094 41.5 9.38281C41.5651 9.30469 41.5977 9.22656 41.5977 9.14844C41.5977 9.10938 41.5651 9.04427 41.5 8.95312C41.4349 8.84896 41.3372 8.77083 41.207 8.71875C41.0898 8.65365 40.9336 8.61458 40.7383 8.60156H34.332C33.5768 8.58854 32.9518 8.43229 32.457 8.13281C31.9622 7.82031 31.6107 7.46224 31.4023 7.05859C31.194 6.65495 31.0898 6.2513 31.0898 5.84766C31.0898 5.44401 31.194 5.04688 31.4023 4.65625C31.6237 4.2526 31.9753 3.90755 32.457 3.62109C32.9518 3.32161 33.5768 3.15885 34.332 3.13281C34.4622 3.11979 34.5599 3.11328 34.625 3.11328H42.457C42.8216 3.11328 43.1276 3.22396 43.375 3.44531C43.6354 3.65365 43.7656 3.91406 43.7656 4.22656ZM50.5039 0.125C50.8685 0.125 51.181 0.248698 51.4414 0.496094C51.7018 0.730469 51.8385 1.02995 51.8516 1.39453V3.09375H58.4922C58.8568 3.09375 59.1693 3.21745 59.4297 3.46484C59.6771 3.72526 59.8008 4.03776 59.8008 4.40234C59.8008 4.76693 59.6706 5.07943 59.4102 5.33984C59.1628 5.58724 58.8568 5.71094 58.4922 5.71094H51.8516V6.10156C51.8385 6.63542 51.8711 7.13021 51.9492 7.58594C52.0404 8.02865 52.2487 8.42578 52.5742 8.77734C52.8997 9.12891 53.3099 9.31771 53.8047 9.34375H58.5703C58.9349 9.35677 59.2344 9.49349 59.4688 9.75391C59.7161 10.0143 59.8398 10.3268 59.8398 10.6914C59.8268 11.043 59.6966 11.3424 59.4492 11.5898C59.2148 11.8242 58.9219 11.9479 58.5703 11.9609H53.1406C52.2292 11.9089 51.474 11.6029 50.875 11.043C50.2891 10.4701 49.8659 9.77344 49.6055 8.95312C49.3581 8.13281 49.2279 7.26042 49.2148 6.33594V5.71094H46.9688C46.6042 5.71094 46.2982 5.58073 46.0508 5.32031C45.7904 5.07292 45.6602 4.76693 45.6602 4.40234C45.6602 4.03776 45.7839 3.73177 46.0312 3.48438C46.2917 3.22396 46.6042 3.09375 46.9688 3.09375H49.2148V1.39453C49.2279 1.04297 49.3581 0.75 49.6055 0.515625C49.8529 0.268229 50.1523 0.138021 50.5039 0.125ZM72.6328 10.9258V6.21875C72.6328 5.89323 72.4635 5.72396 72.125 5.71094H65.2891C65.0417 5.72396 64.8268 5.83464 64.6445 6.04297C64.4622 6.23828 64.3255 6.47266 64.2344 6.74609C64.1562 7.00651 64.1172 7.27344 64.1172 7.54688C64.1172 7.80729 64.1562 8.07422 64.2344 8.34766C64.3255 8.60807 64.4622 8.84245 64.6445 9.05078C64.8268 9.24609 65.0417 9.34375 65.2891 9.34375H70.2891C70.6536 9.34375 70.9596 9.47396 71.207 9.73438C71.4674 9.98177 71.5977 10.2878 71.5977 10.6523C71.5977 11.0169 71.4674 11.3229 71.207 11.5703C70.9596 11.8307 70.6536 11.9609 70.2891 11.9609H65.3672C64.4557 11.9479 63.7005 11.694 63.1016 11.1992C62.5156 10.6914 62.0924 10.125 61.832 9.5C61.5846 8.86198 61.4609 8.20443 61.4609 7.52734C61.4609 6.8763 61.5911 6.23828 61.8516 5.61328C62.112 4.97526 62.5352 4.40885 63.1211 3.91406C63.707 3.40625 64.5729 3.13281 65.7188 3.09375H73.9219C74.2865 3.09375 74.599 3.21745 74.8594 3.46484C75.1198 3.69922 75.2565 3.9987 75.2695 4.36328V10.9258C75.2695 11.2904 75.1328 11.5964 74.8594 11.8438C74.599 12.0781 74.2865 12.1953 73.9219 12.1953C73.1406 12.1302 72.7109 11.707 72.6328 10.9258ZM82.2617 12.1953C81.9102 12.1823 81.6107 12.0586 81.3633 11.8242C81.1159 11.5768 80.9857 11.2773 80.9727 10.9258V8.28906H78.7266C78.362 8.28906 78.0495 8.16536 77.7891 7.91797C77.5417 7.65755 77.418 7.34505 77.418 6.98047C77.418 6.61589 77.5482 6.3099 77.8086 6.0625C78.056 5.80208 78.362 5.67188 78.7266 5.67188H80.9727C81.0117 4.90365 81.1419 4.16146 81.3633 3.44531C81.6237 2.625 82.0469 1.9349 82.6328 1.375C83.2318 0.802083 83.987 0.489583 84.8984 0.4375H90.3281C90.6797 0.450521 90.9727 0.580729 91.207 0.828125C91.4544 1.0625 91.5846 1.35547 91.5977 1.70703C91.5977 2.07161 91.474 2.38411 91.2266 2.64453C90.9922 2.90495 90.6927 3.04167 90.3281 3.05469H85.5625C85.0677 3.08073 84.6576 3.26953 84.332 3.62109C84.0065 3.97266 83.8047 4.36979 83.7266 4.8125C83.6615 5.09896 83.6224 5.38542 83.6094 5.67188H90.25C90.6146 5.67188 90.9206 5.80208 91.168 6.0625C91.4284 6.3099 91.5586 6.61589 91.5586 6.98047C91.5586 7.34505 91.4349 7.65755 91.1875 7.91797C90.9271 8.16536 90.6146 8.28906 90.25 8.28906H83.6094V10.9258C83.5964 11.2904 83.4596 11.5964 83.1992 11.8438C82.9388 12.0781 82.6263 12.1953 82.2617 12.1953ZM104.547 10.9258V6.21875C104.547 5.89323 104.378 5.72396 104.039 5.71094H97.2031C96.9557 5.72396 96.7409 5.83464 96.5586 6.04297C96.3763 6.23828 96.2396 6.47266 96.1484 6.74609C96.0703 7.00651 96.0312 7.27344 96.0312 7.54688C96.0312 7.80729 96.0703 8.07422 96.1484 8.34766C96.2396 8.60807 96.3763 8.84245 96.5586 9.05078C96.7409 9.24609 96.9557 9.34375 97.2031 9.34375H102.203C102.568 9.34375 102.874 9.47396 103.121 9.73438C103.382 9.98177 103.512 10.2878 103.512 10.6523C103.512 11.0169 103.382 11.3229 103.121 11.5703C102.874 11.8307 102.568 11.9609 102.203 11.9609H97.2812C96.3698 11.9479 95.6146 11.694 95.0156 11.1992C94.4297 10.6914 94.0065 10.125 93.7461 9.5C93.4987 8.86198 93.375 8.20443 93.375 7.52734C93.375 6.8763 93.5052 6.23828 93.7656 5.61328C94.026 4.97526 94.4492 4.40885 95.0352 3.91406C95.6211 3.40625 96.487 3.13281 97.6328 3.09375H105.836C106.201 3.09375 106.513 3.21745 106.773 3.46484C107.034 3.69922 107.171 3.9987 107.184 4.36328V10.9258C107.184 11.2904 107.047 11.5964 106.773 11.8438C106.513 12.0781 106.201 12.1953 105.836 12.1953C105.055 12.1302 104.625 11.707 104.547 10.9258Z" fill="url(#paint0_linear_18_16)"/>
<defs>
<linearGradient id="paint0_linear_18_16" x1="-1" y1="5" x2="109" y2="5" gradientUnits="userSpaceOnUse">
<stop stop-color="#16AABB"/>
<stop offset="0.6875" stop-color="#0A4D55"/>
</linearGradient>
</defs>
</svg>
