<svg width="26" height="26" viewBox="0 0 26 26" fill="none" xmlns="http://www.w3.org/2000/svg">
<path d="M12.96 0C5.80239 0 0 5.80239 0 12.96C0 20.1176 5.80239 25.92 12.96 25.92C20.1176 25.92 25.92 20.1176 25.92 12.96C25.92 5.80239 20.1176 0 12.96 0ZM8.3025 5.14793C8.56952 5.13218 8.81088 5.29178 8.99385 5.57507L10.7657 8.93529C10.9523 9.33347 10.8463 9.75981 10.568 10.0443L9.7564 10.8559C9.70631 10.9245 9.67334 11.0018 9.67255 11.0868C9.98378 12.2916 10.9279 13.4029 11.7609 14.1671C12.5938 14.9313 13.489 15.9659 14.6512 16.2111C14.7948 16.2511 14.9708 16.2655 15.0736 16.17L16.0165 15.2097C16.342 14.963 16.8128 14.8434 17.1603 15.0451H17.1761L20.3734 16.9325C20.8427 17.2267 20.8913 17.7953 20.5553 18.1412L18.3532 20.3259C18.0279 20.6594 17.5959 20.7716 17.1761 20.7721C15.3197 20.7165 13.5655 19.8053 12.1247 18.8689C9.75974 17.1484 7.59039 15.0145 6.22847 12.4364C5.70614 11.3553 5.09255 9.9759 5.1511 8.76923C5.15633 8.31529 5.27915 7.87057 5.59883 7.57797L7.80101 5.37579C7.97256 5.22981 8.14227 5.15739 8.3025 5.14793Z" fill="#16AABB"/>
</svg>
