<svg width="110" height="16" viewBox="0 0 110 16" fill="none" xmlns="http://www.w3.org/2000/svg">
<mask id="path-1-outside-1_2070_9" maskUnits="userSpaceOnUse" x="-0.828857" y="-0.0625" width="111" height="16" fill="black">
<rect fill="white" x="-0.828857" y="-0.0625" width="111" height="16"/>
<path d="M7.95317 15.4297C7.14067 15.4297 6.33599 15.3359 5.53911 15.1484C4.75786 14.9609 4.00786 14.6875 3.28911 14.3281C2.57036 13.9531 1.93755 13.4609 1.39067 12.8516C0.8438 12.2422 0.546925 11.5156 0.50005 10.6719V9.6875V2.21094C0.50005 1.77344 0.6563 1.41406 0.9688 1.13281C1.29692 0.835938 1.67974 0.6875 2.11724 0.6875C3.05474 0.765625 3.56255 1.27344 3.64067 2.21094V9.94531C3.67192 10.4297 3.85161 10.8359 4.17974 11.1641C4.52349 11.4766 4.89849 11.7266 5.30474 11.9141C5.72661 12.1016 6.1563 12.2422 6.5938 12.3359C7.04692 12.4297 7.50005 12.4766 7.95317 12.4766C8.4063 12.4766 8.85161 12.4297 9.28911 12.3359C9.74224 12.2422 10.1719 12.1016 10.5782 11.9141C11 11.7266 11.375 11.4766 11.7032 11.1641C12.0469 10.8359 12.2344 10.4297 12.2657 9.94531V2.21094C12.2657 1.77344 12.4219 1.41406 12.7344 1.13281C13.0625 0.835938 13.4454 0.6875 13.8829 0.6875C14.8204 0.765625 15.336 1.27344 15.4297 2.21094V9.6875V10.6719C15.3829 11.5156 15.0782 12.2422 14.5157 12.8516C13.9688 13.4609 13.336 13.9531 12.6172 14.3281C11.8985 14.6875 11.1407 14.9609 10.3438 15.1484C9.56255 15.3359 8.76567 15.4297 7.95317 15.4297ZM34.431 2.63281C34.431 3.07031 34.2747 3.4375 33.9622 3.73438C33.6654 4.04688 33.2982 4.20312 32.8607 4.20312H23.4857C23.1888 4.21875 22.9388 4.28906 22.7357 4.41406C22.5482 4.52344 22.4075 4.65625 22.3138 4.8125C22.22 4.95312 22.1732 5.10156 22.1732 5.25781C22.1732 5.41406 22.22 5.57031 22.3138 5.72656C22.4075 5.86719 22.5482 6 22.7357 6.125C22.9388 6.23438 23.1888 6.29688 23.4857 6.3125H30.1419C31.2357 6.34375 32.1341 6.60156 32.8372 7.08594C33.556 7.55469 34.0638 8.10156 34.3607 8.72656C34.6732 9.33594 34.8294 9.96094 34.8294 10.6016C34.8294 11.2266 34.6732 11.8516 34.3607 12.4766C34.0482 13.0859 33.5404 13.6328 32.8372 14.1172C32.1341 14.5859 31.2357 14.8203 30.1419 14.8203H30.0013C29.9075 14.8359 29.8138 14.8438 29.72 14.8438H20.8607C20.4232 14.8438 20.0482 14.6953 19.7357 14.3984C19.4388 14.0859 19.2904 13.7109 19.2904 13.2734C19.2904 12.8359 19.4466 12.4688 19.7591 12.1719C20.056 11.8594 20.4232 11.7031 20.8607 11.7031H30.2825C30.5794 11.7188 30.8216 11.6641 31.0091 11.5391C31.2122 11.4141 31.3607 11.2734 31.4544 11.1172C31.5482 10.9453 31.595 10.7734 31.595 10.6016C31.595 10.4922 31.5482 10.3438 31.4544 10.1562C31.3607 9.95312 31.2122 9.78906 31.0091 9.66406C30.8216 9.53906 30.5794 9.46875 30.2825 9.45312H23.6263C22.5325 9.42188 21.6263 9.17188 20.9075 8.70312C20.2044 8.23438 19.6966 7.70312 19.3841 7.10938C19.0872 6.5 18.9388 5.88281 18.9388 5.25781C18.9388 4.64844 19.095 4.04688 19.4075 3.45312C19.72 2.84375 20.2279 2.30469 20.931 1.83594C21.6341 1.36719 22.5325 1.11719 23.6263 1.08594H23.7669C23.8607 1.07031 23.9544 1.0625 24.0482 1.0625H32.8607C33.2982 1.0625 33.6654 1.21875 33.9622 1.53125C34.2747 1.82812 34.431 2.19531 34.431 2.63281ZM37.7291 2.63281C37.7291 2.19531 37.8775 1.82812 38.1744 1.53125C38.4869 1.21875 38.8619 1.0625 39.2994 1.0625H52.94C53.3775 1.0625 53.7525 1.21094 54.065 1.50781C54.3619 1.82031 54.5104 2.19531 54.5104 2.63281C54.5104 3.07031 54.3541 3.44531 54.0416 3.75781C53.7447 4.05469 53.3775 4.20312 52.94 4.20312H47.7135V13.6953C47.6197 14.6328 47.1041 15.1406 46.1666 15.2188C45.7291 15.2188 45.3463 15.0781 45.0182 14.7969C44.7057 14.5 44.5494 14.1328 44.5494 13.6953V4.20312H39.2994C38.8619 4.20312 38.4947 4.04688 38.1979 3.73438C37.8854 3.4375 37.7291 3.07031 37.7291 2.63281ZM62.9647 11.2578C62.9647 10.8203 63.1132 10.4531 63.41 10.1562C63.7225 9.84375 64.0975 9.6875 64.535 9.6875H68.121L67.5116 7.95312C67.2616 7.3125 67.0116 6.71094 66.7616 6.14844C66.5272 5.57031 66.2538 5.04688 65.9413 4.57812C65.66 4.10938 65.3397 3.85938 64.9804 3.82812C64.6054 3.85938 64.2694 4.10938 63.9725 4.57812C63.6757 5.04688 63.4022 5.57031 63.1522 6.14844C62.9179 6.71094 62.6757 7.3125 62.4257 7.95312L60.1991 14.0469C60.0429 14.375 59.8397 14.6484 59.5897 14.8672C59.3554 15.0703 58.996 15.1719 58.5116 15.1719C58.0585 15.1719 57.6835 15.0156 57.3866 14.7031C57.1054 14.3906 56.9804 14.0156 57.0116 13.5781C57.0272 13.375 57.0741 13.1875 57.1522 13.0156L59.7304 6.35938C60.4491 4.60938 61.1679 3.19531 61.8866 2.11719C62.5897 1.05469 63.621 0.515625 64.9804 0.5C66.3241 0.515625 67.3475 1.05469 68.0507 2.11719C68.7694 3.16406 69.4882 4.57812 70.2069 6.35938L72.785 13.0156C72.8632 13.1875 72.91 13.375 72.9257 13.5781C72.9569 14.0156 72.8241 14.3906 72.5272 14.7031C72.246 15.0156 71.8788 15.1719 71.4257 15.1719C70.91 15.1719 70.5272 15.0703 70.2772 14.8672C70.0429 14.6484 69.8475 14.375 69.6913 14.0469L69.246 12.8281H64.535C64.0975 12.8281 63.7304 12.6719 63.4335 12.3594C63.121 12.0625 62.9647 11.6953 62.9647 11.2578ZM77.6066 15.1719C77.1847 15.1562 76.8254 15.0078 76.5285 14.7266C76.2316 14.4297 76.0754 14.0703 76.0597 13.6484V7.8125C76.0754 6.70312 76.2316 5.65625 76.5285 4.67188C76.841 3.6875 77.3488 2.85938 78.0519 2.1875C78.7707 1.5 79.6769 1.125 80.7707 1.0625H89.8176C90.2394 1.07812 90.591 1.23438 90.8722 1.53125C91.1691 1.8125 91.3254 2.16406 91.341 2.58594C91.341 3.02344 91.1926 3.39844 90.8957 3.71094C90.6144 4.02344 90.2551 4.1875 89.8176 4.20312H81.5676C80.9738 4.23438 80.4816 4.46094 80.091 4.88281C79.7004 5.30469 79.4504 5.78906 79.341 6.33594C79.2472 6.86719 79.2082 7.45312 79.2238 8.09375V13.6484C79.2082 14.0859 79.0441 14.4531 78.7316 14.75C78.4191 15.0312 78.0441 15.1719 77.6066 15.1719ZM80.3254 9.00781C80.3254 8.57031 80.4816 8.20312 80.7941 7.90625C81.091 7.59375 81.4582 7.4375 81.8957 7.4375H89.8176C90.2551 7.4375 90.6222 7.59375 90.9191 7.90625C91.2316 8.20312 91.3879 8.57031 91.3879 9.00781C91.3879 9.44531 91.2394 9.82031 90.9426 10.1328C90.6301 10.4297 90.2551 10.5781 89.8176 10.5781H81.8957C81.4582 10.5781 81.0832 10.4297 80.7707 10.1328C80.4738 9.82031 80.3254 9.44531 80.3254 9.00781ZM99.5141 11.2578C99.5141 10.8203 99.6626 10.4531 99.9594 10.1562C100.272 9.84375 100.647 9.6875 101.084 9.6875H104.67L104.061 7.95312C103.811 7.3125 103.561 6.71094 103.311 6.14844C103.077 5.57031 102.803 5.04688 102.491 4.57812C102.209 4.10938 101.889 3.85938 101.53 3.82812C101.155 3.85938 100.819 4.10938 100.522 4.57812C100.225 5.04688 99.9516 5.57031 99.7016 6.14844C99.4672 6.71094 99.2251 7.3125 98.9751 7.95312L96.7485 14.0469C96.5922 14.375 96.3891 14.6484 96.1391 14.8672C95.9047 15.0703 95.5454 15.1719 95.061 15.1719C94.6079 15.1719 94.2329 15.0156 93.936 14.7031C93.6547 14.3906 93.5297 14.0156 93.561 13.5781C93.5766 13.375 93.6235 13.1875 93.7016 13.0156L96.2797 6.35938C96.9985 4.60938 97.7172 3.19531 98.436 2.11719C99.1391 1.05469 100.17 0.515625 101.53 0.5C102.873 0.515625 103.897 1.05469 104.6 2.11719C105.319 3.16406 106.038 4.57812 106.756 6.35938L109.334 13.0156C109.413 13.1875 109.459 13.375 109.475 13.5781C109.506 14.0156 109.373 14.3906 109.077 14.7031C108.795 15.0156 108.428 15.1719 107.975 15.1719C107.459 15.1719 107.077 15.0703 106.827 14.8672C106.592 14.6484 106.397 14.375 106.241 14.0469L105.795 12.8281H101.084C100.647 12.8281 100.28 12.6719 99.9829 12.3594C99.6704 12.0625 99.5141 11.6953 99.5141 11.2578Z"/>
</mask>
<path d="M7.95317 15.4297C7.14067 15.4297 6.33599 15.3359 5.53911 15.1484C4.75786 14.9609 4.00786 14.6875 3.28911 14.3281C2.57036 13.9531 1.93755 13.4609 1.39067 12.8516C0.8438 12.2422 0.546925 11.5156 0.50005 10.6719V9.6875V2.21094C0.50005 1.77344 0.6563 1.41406 0.9688 1.13281C1.29692 0.835938 1.67974 0.6875 2.11724 0.6875C3.05474 0.765625 3.56255 1.27344 3.64067 2.21094V9.94531C3.67192 10.4297 3.85161 10.8359 4.17974 11.1641C4.52349 11.4766 4.89849 11.7266 5.30474 11.9141C5.72661 12.1016 6.1563 12.2422 6.5938 12.3359C7.04692 12.4297 7.50005 12.4766 7.95317 12.4766C8.4063 12.4766 8.85161 12.4297 9.28911 12.3359C9.74224 12.2422 10.1719 12.1016 10.5782 11.9141C11 11.7266 11.375 11.4766 11.7032 11.1641C12.0469 10.8359 12.2344 10.4297 12.2657 9.94531V2.21094C12.2657 1.77344 12.4219 1.41406 12.7344 1.13281C13.0625 0.835938 13.4454 0.6875 13.8829 0.6875C14.8204 0.765625 15.336 1.27344 15.4297 2.21094V9.6875V10.6719C15.3829 11.5156 15.0782 12.2422 14.5157 12.8516C13.9688 13.4609 13.336 13.9531 12.6172 14.3281C11.8985 14.6875 11.1407 14.9609 10.3438 15.1484C9.56255 15.3359 8.76567 15.4297 7.95317 15.4297ZM34.431 2.63281C34.431 3.07031 34.2747 3.4375 33.9622 3.73438C33.6654 4.04688 33.2982 4.20312 32.8607 4.20312H23.4857C23.1888 4.21875 22.9388 4.28906 22.7357 4.41406C22.5482 4.52344 22.4075 4.65625 22.3138 4.8125C22.22 4.95312 22.1732 5.10156 22.1732 5.25781C22.1732 5.41406 22.22 5.57031 22.3138 5.72656C22.4075 5.86719 22.5482 6 22.7357 6.125C22.9388 6.23438 23.1888 6.29688 23.4857 6.3125H30.1419C31.2357 6.34375 32.1341 6.60156 32.8372 7.08594C33.556 7.55469 34.0638 8.10156 34.3607 8.72656C34.6732 9.33594 34.8294 9.96094 34.8294 10.6016C34.8294 11.2266 34.6732 11.8516 34.3607 12.4766C34.0482 13.0859 33.5404 13.6328 32.8372 14.1172C32.1341 14.5859 31.2357 14.8203 30.1419 14.8203H30.0013C29.9075 14.8359 29.8138 14.8438 29.72 14.8438H20.8607C20.4232 14.8438 20.0482 14.6953 19.7357 14.3984C19.4388 14.0859 19.2904 13.7109 19.2904 13.2734C19.2904 12.8359 19.4466 12.4688 19.7591 12.1719C20.056 11.8594 20.4232 11.7031 20.8607 11.7031H30.2825C30.5794 11.7188 30.8216 11.6641 31.0091 11.5391C31.2122 11.4141 31.3607 11.2734 31.4544 11.1172C31.5482 10.9453 31.595 10.7734 31.595 10.6016C31.595 10.4922 31.5482 10.3438 31.4544 10.1562C31.3607 9.95312 31.2122 9.78906 31.0091 9.66406C30.8216 9.53906 30.5794 9.46875 30.2825 9.45312H23.6263C22.5325 9.42188 21.6263 9.17188 20.9075 8.70312C20.2044 8.23438 19.6966 7.70312 19.3841 7.10938C19.0872 6.5 18.9388 5.88281 18.9388 5.25781C18.9388 4.64844 19.095 4.04688 19.4075 3.45312C19.72 2.84375 20.2279 2.30469 20.931 1.83594C21.6341 1.36719 22.5325 1.11719 23.6263 1.08594H23.7669C23.8607 1.07031 23.9544 1.0625 24.0482 1.0625H32.8607C33.2982 1.0625 33.6654 1.21875 33.9622 1.53125C34.2747 1.82812 34.431 2.19531 34.431 2.63281ZM37.7291 2.63281C37.7291 2.19531 37.8775 1.82812 38.1744 1.53125C38.4869 1.21875 38.8619 1.0625 39.2994 1.0625H52.94C53.3775 1.0625 53.7525 1.21094 54.065 1.50781C54.3619 1.82031 54.5104 2.19531 54.5104 2.63281C54.5104 3.07031 54.3541 3.44531 54.0416 3.75781C53.7447 4.05469 53.3775 4.20312 52.94 4.20312H47.7135V13.6953C47.6197 14.6328 47.1041 15.1406 46.1666 15.2188C45.7291 15.2188 45.3463 15.0781 45.0182 14.7969C44.7057 14.5 44.5494 14.1328 44.5494 13.6953V4.20312H39.2994C38.8619 4.20312 38.4947 4.04688 38.1979 3.73438C37.8854 3.4375 37.7291 3.07031 37.7291 2.63281ZM62.9647 11.2578C62.9647 10.8203 63.1132 10.4531 63.41 10.1562C63.7225 9.84375 64.0975 9.6875 64.535 9.6875H68.121L67.5116 7.95312C67.2616 7.3125 67.0116 6.71094 66.7616 6.14844C66.5272 5.57031 66.2538 5.04688 65.9413 4.57812C65.66 4.10938 65.3397 3.85938 64.9804 3.82812C64.6054 3.85938 64.2694 4.10938 63.9725 4.57812C63.6757 5.04688 63.4022 5.57031 63.1522 6.14844C62.9179 6.71094 62.6757 7.3125 62.4257 7.95312L60.1991 14.0469C60.0429 14.375 59.8397 14.6484 59.5897 14.8672C59.3554 15.0703 58.996 15.1719 58.5116 15.1719C58.0585 15.1719 57.6835 15.0156 57.3866 14.7031C57.1054 14.3906 56.9804 14.0156 57.0116 13.5781C57.0272 13.375 57.0741 13.1875 57.1522 13.0156L59.7304 6.35938C60.4491 4.60938 61.1679 3.19531 61.8866 2.11719C62.5897 1.05469 63.621 0.515625 64.9804 0.5C66.3241 0.515625 67.3475 1.05469 68.0507 2.11719C68.7694 3.16406 69.4882 4.57812 70.2069 6.35938L72.785 13.0156C72.8632 13.1875 72.91 13.375 72.9257 13.5781C72.9569 14.0156 72.8241 14.3906 72.5272 14.7031C72.246 15.0156 71.8788 15.1719 71.4257 15.1719C70.91 15.1719 70.5272 15.0703 70.2772 14.8672C70.0429 14.6484 69.8475 14.375 69.6913 14.0469L69.246 12.8281H64.535C64.0975 12.8281 63.7304 12.6719 63.4335 12.3594C63.121 12.0625 62.9647 11.6953 62.9647 11.2578ZM77.6066 15.1719C77.1847 15.1562 76.8254 15.0078 76.5285 14.7266C76.2316 14.4297 76.0754 14.0703 76.0597 13.6484V7.8125C76.0754 6.70312 76.2316 5.65625 76.5285 4.67188C76.841 3.6875 77.3488 2.85938 78.0519 2.1875C78.7707 1.5 79.6769 1.125 80.7707 1.0625H89.8176C90.2394 1.07812 90.591 1.23438 90.8722 1.53125C91.1691 1.8125 91.3254 2.16406 91.341 2.58594C91.341 3.02344 91.1926 3.39844 90.8957 3.71094C90.6144 4.02344 90.2551 4.1875 89.8176 4.20312H81.5676C80.9738 4.23438 80.4816 4.46094 80.091 4.88281C79.7004 5.30469 79.4504 5.78906 79.341 6.33594C79.2472 6.86719 79.2082 7.45312 79.2238 8.09375V13.6484C79.2082 14.0859 79.0441 14.4531 78.7316 14.75C78.4191 15.0312 78.0441 15.1719 77.6066 15.1719ZM80.3254 9.00781C80.3254 8.57031 80.4816 8.20312 80.7941 7.90625C81.091 7.59375 81.4582 7.4375 81.8957 7.4375H89.8176C90.2551 7.4375 90.6222 7.59375 90.9191 7.90625C91.2316 8.20312 91.3879 8.57031 91.3879 9.00781C91.3879 9.44531 91.2394 9.82031 90.9426 10.1328C90.6301 10.4297 90.2551 10.5781 89.8176 10.5781H81.8957C81.4582 10.5781 81.0832 10.4297 80.7707 10.1328C80.4738 9.82031 80.3254 9.44531 80.3254 9.00781ZM99.5141 11.2578C99.5141 10.8203 99.6626 10.4531 99.9594 10.1562C100.272 9.84375 100.647 9.6875 101.084 9.6875H104.67L104.061 7.95312C103.811 7.3125 103.561 6.71094 103.311 6.14844C103.077 5.57031 102.803 5.04688 102.491 4.57812C102.209 4.10938 101.889 3.85938 101.53 3.82812C101.155 3.85938 100.819 4.10938 100.522 4.57812C100.225 5.04688 99.9516 5.57031 99.7016 6.14844C99.4672 6.71094 99.2251 7.3125 98.9751 7.95312L96.7485 14.0469C96.5922 14.375 96.3891 14.6484 96.1391 14.8672C95.9047 15.0703 95.5454 15.1719 95.061 15.1719C94.6079 15.1719 94.2329 15.0156 93.936 14.7031C93.6547 14.3906 93.5297 14.0156 93.561 13.5781C93.5766 13.375 93.6235 13.1875 93.7016 13.0156L96.2797 6.35938C96.9985 4.60938 97.7172 3.19531 98.436 2.11719C99.1391 1.05469 100.17 0.515625 101.53 0.5C102.873 0.515625 103.897 1.05469 104.6 2.11719C105.319 3.16406 106.038 4.57812 106.756 6.35938L109.334 13.0156C109.413 13.1875 109.459 13.375 109.475 13.5781C109.506 14.0156 109.373 14.3906 109.077 14.7031C108.795 15.0156 108.428 15.1719 107.975 15.1719C107.459 15.1719 107.077 15.0703 106.827 14.8672C106.592 14.6484 106.397 14.375 106.241 14.0469L105.795 12.8281H101.084C100.647 12.8281 100.28 12.6719 99.9829 12.3594C99.6704 12.0625 99.5141 11.6953 99.5141 11.2578Z" fill="url(#paint0_linear_2070_9)"/>
<path d="M5.53911 15.1484L5.42242 15.6346L5.42459 15.6351L5.53911 15.1484ZM3.28911 14.3281L3.05779 14.7715L3.06551 14.7753L3.28911 14.3281ZM0.50005 10.6719H4.95911e-05V10.6858L0.000819206 10.6996L0.50005 10.6719ZM0.9688 1.13281L1.30328 1.50446L1.30426 1.50358L0.9688 1.13281ZM2.11724 0.6875L2.15876 0.189227L2.13803 0.1875H2.11724V0.6875ZM3.64067 2.21094H4.14067V2.19014L4.13895 2.16941L3.64067 2.21094ZM3.64067 9.94531H3.14067V9.96142L3.14171 9.9775L3.64067 9.94531ZM4.17974 11.1641L3.82618 11.5176L3.8346 11.526L3.8434 11.534L4.17974 11.1641ZM5.30474 11.9141L5.09519 12.3681L5.10167 12.371L5.30474 11.9141ZM6.5938 12.3359L6.48903 12.8249L6.4925 12.8256L6.5938 12.3359ZM9.28911 12.3359L9.18781 11.8463L9.18435 11.847L9.28911 12.3359ZM10.5782 11.9141L10.3751 11.4571L10.3686 11.4601L10.5782 11.9141ZM11.7032 11.1641L12.048 11.5261L12.0484 11.5257L11.7032 11.1641ZM12.2657 9.94531L12.7646 9.9775L12.7657 9.96142V9.94531H12.2657ZM12.7344 1.13281L13.0689 1.50446L13.0699 1.50358L12.7344 1.13281ZM13.8829 0.6875L13.9244 0.189227L13.9037 0.1875H13.8829V0.6875ZM15.4297 2.21094H15.9297V2.186L15.9273 2.16119L15.4297 2.21094ZM15.4297 10.6719L15.929 10.6996L15.9297 10.6858V10.6719H15.4297ZM14.5157 12.8516L14.1482 12.5124L14.1436 12.5176L14.5157 12.8516ZM12.6172 14.3281L12.8409 14.7754L12.8485 14.7714L12.6172 14.3281ZM10.3438 15.1484L10.2293 14.6617L10.2271 14.6622L10.3438 15.1484ZM7.95317 15.4297V14.9297C7.17953 14.9297 6.41326 14.8405 5.65363 14.6617L5.53911 15.1484L5.42459 15.6351C6.25871 15.8314 7.10182 15.9297 7.95317 15.9297V15.4297ZM5.53911 15.1484L5.6558 14.6622C4.91156 14.4836 4.19744 14.2233 3.51272 13.8809L3.28911 14.3281L3.06551 14.7753C3.81829 15.1517 4.60416 15.4382 5.42243 15.6346L5.53911 15.1484ZM3.28911 14.3281L3.5204 13.8848C2.8553 13.5378 2.27006 13.0828 1.7628 12.5176L1.39067 12.8516L1.01855 13.1855C1.60504 13.839 2.28542 14.3684 3.05783 14.7714L3.28911 14.3281ZM1.39067 12.8516L1.7628 12.5176C1.29448 11.9958 1.04007 11.3783 0.99928 10.6441L0.50005 10.6719L0.000819206 10.6996C0.0537839 11.653 0.393116 12.4886 1.01855 13.1855L1.39067 12.8516ZM0.50005 10.6719H1.00005V9.6875H0.50005H4.95911e-05V10.6719H0.50005ZM0.50005 9.6875H1.00005V2.21094H0.50005H4.95911e-05V9.6875H0.50005ZM0.50005 2.21094H1.00005C1.00005 1.90865 1.1009 1.6866 1.30328 1.50446L0.9688 1.13281L0.634317 0.761166C0.2117 1.14152 4.95911e-05 1.63823 4.95911e-05 2.21094H0.50005ZM0.9688 1.13281L1.30426 1.50358C1.54161 1.28883 1.80527 1.1875 2.11724 1.1875V0.6875V0.1875C1.55421 0.1875 1.05224 0.383045 0.633343 0.762044L0.9688 1.13281ZM2.11724 0.6875L2.07571 1.18577C2.46368 1.2181 2.70038 1.33322 2.84767 1.48051C2.99496 1.6278 3.11007 1.8645 3.1424 2.25246L3.64067 2.21094L4.13895 2.16941C4.09315 1.61988 3.9153 1.13392 3.55478 0.7734C3.19425 0.412877 2.7083 0.235022 2.15876 0.189227L2.11724 0.6875ZM3.64067 2.21094H3.14067V9.94531H3.64067H4.14067V2.21094H3.64067ZM3.64067 9.94531L3.14171 9.9775C3.18039 10.577 3.40794 11.0994 3.82618 11.5176L4.17974 11.1641L4.53329 10.8105C4.29529 10.5725 4.16346 10.2824 4.13964 9.91312L3.64067 9.94531ZM4.17974 11.1641L3.8434 11.534C4.22343 11.8795 4.6409 12.1584 5.09521 12.368L5.30474 11.9141L5.51427 11.4601C5.15608 11.2948 4.82354 11.0736 4.51607 10.7941L4.17974 11.1641ZM5.30474 11.9141L5.10167 12.371C5.55411 12.5721 6.01669 12.7236 6.48903 12.8248L6.5938 12.3359L6.69856 11.847C6.29591 11.7608 5.89911 11.6311 5.50781 11.4572L5.30474 11.9141ZM6.5938 12.3359L6.4925 12.8256C6.97824 12.9261 7.4653 12.9766 7.95317 12.9766V12.4766V11.9766C7.5348 11.9766 7.11561 11.9333 6.6951 11.8463L6.5938 12.3359ZM7.95317 12.4766V12.9766C8.44106 12.9766 8.92151 12.9261 9.39388 12.8248L9.28911 12.3359L9.18435 11.847C8.78172 11.9333 8.37154 11.9766 7.95317 11.9766V12.4766ZM9.28911 12.3359L9.39042 12.8256C9.87958 12.7244 10.3457 12.572 10.7877 12.368L10.5782 11.9141L10.3686 11.4601C9.99816 11.6311 9.60489 11.76 9.18781 11.8463L9.28911 12.3359ZM10.5782 11.9141L10.7812 12.371C11.2544 12.1607 11.6776 11.8789 12.048 11.5261L11.7032 11.1641L11.3583 10.802C11.0725 11.0742 10.7456 11.2925 10.3751 11.4572L10.5782 11.9141ZM11.7032 11.1641L12.0484 11.5257C12.4851 11.1089 12.7255 10.5841 12.7646 9.9775L12.2657 9.94531L11.7667 9.91312C11.7433 10.2752 11.6088 10.5629 11.3579 10.8024L11.7032 11.1641ZM12.2657 9.94531H12.7657V2.21094H12.2657H11.7657V9.94531H12.2657ZM12.2657 2.21094H12.7657C12.7657 1.90865 12.8665 1.6866 13.0689 1.50446L12.7344 1.13281L12.3999 0.761166C11.9773 1.14152 11.7657 1.63823 11.7657 2.21094H12.2657ZM12.7344 1.13281L13.0699 1.50358C13.3072 1.28883 13.5709 1.1875 13.8829 1.1875V0.6875V0.1875C13.3198 0.1875 12.8179 0.383045 12.399 0.762044L12.7344 1.13281ZM13.8829 0.6875L13.8413 1.18577C14.229 1.21808 14.4696 1.33328 14.6219 1.48319C14.7742 1.63319 14.8934 1.87252 14.9322 2.26069L15.4297 2.21094L15.9273 2.16119C15.8723 1.61185 15.6869 1.12852 15.3235 0.770711C14.9601 0.412815 14.4742 0.235044 13.9244 0.189227L13.8829 0.6875ZM15.4297 2.21094H14.9297V9.6875H15.4297H15.9297V2.21094H15.4297ZM15.4297 9.6875H14.9297V10.6719H15.4297H15.9297V9.6875H15.4297ZM15.4297 10.6719L14.9305 10.6441C14.8899 11.3743 14.6304 11.9901 14.1483 12.5124L14.5157 12.8516L14.8831 13.1907C15.526 12.4942 15.8758 11.6569 15.929 10.6996L15.4297 10.6719ZM14.5157 12.8516L14.1436 12.5176C13.6363 13.0828 13.051 13.5378 12.386 13.8848L12.6172 14.3281L12.8485 14.7714C13.6209 14.3684 14.3013 13.839 14.8878 13.1855L14.5157 12.8516ZM12.6172 14.3281L12.3936 13.8809C11.7102 14.2226 10.9891 14.4829 10.2293 14.6617L10.3438 15.1484L10.4583 15.6351C11.2923 15.4389 12.0867 15.1524 12.8408 14.7753L12.6172 14.3281ZM10.3438 15.1484L10.2271 14.6622C9.48451 14.8405 8.72682 14.9297 7.95317 14.9297V15.4297V15.9297C8.80453 15.9297 9.64059 15.8314 10.4605 15.6346L10.3438 15.1484ZM33.9622 3.73438L33.6179 3.37187L33.6086 3.38071L33.5997 3.39L33.9622 3.73438ZM23.4857 4.20312V3.70312H23.4725L23.4594 3.70382L23.4857 4.20312ZM22.7357 4.41406L22.9877 4.84607L22.9977 4.83989L22.7357 4.41406ZM22.3138 4.8125L22.7298 5.08985L22.7364 5.07995L22.7425 5.06975L22.3138 4.8125ZM22.3138 5.72656L21.8851 5.98381L21.8912 5.99401L21.8978 6.00391L22.3138 5.72656ZM22.7357 6.125L22.4583 6.54103L22.4779 6.55408L22.4986 6.56524L22.7357 6.125ZM23.4857 6.3125L23.4594 6.81181L23.4725 6.8125H23.4857V6.3125ZM30.1419 6.3125L30.1562 5.8127L30.1491 5.8125H30.1419V6.3125ZM32.8372 7.08594L32.5535 7.49782L32.5641 7.50474L32.8372 7.08594ZM34.3607 8.72656L33.909 8.94109L33.9123 8.94796L33.9158 8.95472L34.3607 8.72656ZM34.3607 12.4766L34.8056 12.7047L34.8079 12.7002L34.3607 12.4766ZM32.8372 14.1172L33.1146 14.5333L33.1209 14.5289L32.8372 14.1172ZM30.0013 14.8203V14.3203H29.9599L29.9191 14.3271L30.0013 14.8203ZM19.7357 14.3984L19.3732 14.7428L19.382 14.7521L19.3913 14.7609L19.7357 14.3984ZM19.7591 12.1719L20.1035 12.5344L20.1128 12.5255L20.1216 12.5163L19.7591 12.1719ZM30.2825 11.7031L30.3088 11.2038L30.2957 11.2031H30.2825V11.7031ZM31.0091 11.5391L30.7471 11.1132L30.7393 11.118L30.7318 11.123L31.0091 11.5391ZM31.4544 11.1172L31.8832 11.3744L31.8885 11.3656L31.8934 11.3566L31.4544 11.1172ZM31.4544 10.1562L31.0004 10.3658L31.0037 10.3729L31.0072 10.3799L31.4544 10.1562ZM31.0091 9.66406L30.7318 10.0801L30.7393 10.0851L30.7471 10.0899L31.0091 9.66406ZM30.2825 9.45312L30.3088 8.95382L30.2957 8.95312H30.2825V9.45312ZM23.6263 9.45312L23.612 9.95292L23.6192 9.95312H23.6263V9.45312ZM20.9075 8.70312L20.6302 9.11917L20.6344 9.12193L20.9075 8.70312ZM19.3841 7.10938L18.9346 7.32836L18.938 7.33536L18.9417 7.34225L19.3841 7.10938ZM19.4075 3.45312L19.85 3.68601L19.8525 3.68128L19.4075 3.45312ZM23.6263 1.08594V0.585938H23.6192L23.612 0.586142L23.6263 1.08594ZM23.7669 1.08594V1.58594H23.8083L23.8491 1.57913L23.7669 1.08594ZM33.9622 1.53125L33.5997 1.87562L33.6086 1.88492L33.6179 1.89375L33.9622 1.53125ZM34.431 2.63281H33.931C33.931 2.93558 33.8293 3.17099 33.6179 3.37187L33.9622 3.73438L34.3066 4.09688C34.7201 3.70401 34.931 3.20504 34.931 2.63281H34.431ZM33.9622 3.73438L33.5997 3.39C33.3988 3.60146 33.1634 3.70312 32.8607 3.70312V4.20312V4.70312C33.4329 4.70312 33.9319 4.49229 34.3247 4.07875L33.9622 3.73438ZM32.8607 4.20312V3.70312H23.4857V4.20312V4.70312H32.8607V4.20312ZM23.4857 4.20312L23.4594 3.70382C23.0993 3.72277 22.7634 3.80989 22.4736 3.98823L22.7357 4.41406L22.9977 4.83989C23.1142 4.76824 23.2783 4.71473 23.512 4.70243L23.4857 4.20312ZM22.7357 4.41406L22.4837 3.98217C22.2374 4.12585 22.0297 4.3142 21.8851 4.55525L22.3138 4.8125L22.7425 5.06975C22.7854 4.9983 22.8589 4.92102 22.9876 4.84595L22.7357 4.41406ZM22.3138 4.8125L21.8978 4.53515C21.7539 4.75089 21.6732 4.99474 21.6732 5.25781H22.1732H22.6732C22.6732 5.20839 22.6862 5.15536 22.7298 5.08985L22.3138 4.8125ZM22.1732 5.25781H21.6732C21.6732 5.51882 21.7525 5.76294 21.8851 5.98381L22.3138 5.72656L22.7425 5.46931C22.6876 5.37769 22.6732 5.30931 22.6732 5.25781H22.1732ZM22.3138 5.72656L21.8978 6.00391C22.0381 6.21447 22.2332 6.39095 22.4583 6.54103L22.7357 6.125L23.013 5.70897C22.8631 5.60905 22.777 5.51991 22.7298 5.44921L22.3138 5.72656ZM22.7357 6.125L22.4986 6.56524C22.7827 6.71821 23.1093 6.79338 23.4594 6.81181L23.4857 6.3125L23.512 5.81319C23.2683 5.80037 23.0949 5.75054 22.9727 5.68476L22.7357 6.125ZM23.4857 6.3125V6.8125H30.1419V6.3125V5.8125H23.4857V6.3125ZM30.1419 6.3125L30.1276 6.8123C31.1519 6.84156 31.9495 7.08151 32.5536 7.49769L32.8372 7.08594L33.1209 6.67418C32.3188 6.12161 31.3195 5.84594 30.1562 5.8127L30.1419 6.3125ZM32.8372 7.08594L32.5641 7.50474C33.2241 7.93519 33.6602 8.41722 33.909 8.94109L34.3607 8.72656L34.8123 8.51203C34.4674 7.78591 33.8878 7.17418 33.1104 6.66713L32.8372 7.08594ZM34.3607 8.72656L33.9158 8.95472C34.1946 9.49849 34.3294 10.0457 34.3294 10.6016H34.8294H35.3294C35.3294 9.87616 35.1517 9.17339 34.8056 8.4984L34.3607 8.72656ZM34.8294 10.6016H34.3294C34.3294 11.1402 34.1954 11.6891 33.9135 12.253L34.3607 12.4766L34.8079 12.7002C35.151 12.014 35.3294 11.3129 35.3294 10.6016H34.8294ZM34.3607 12.4766L33.9158 12.2484C33.6492 12.7682 33.2051 13.2566 32.5536 13.7054L32.8372 14.1172L33.1209 14.5289C33.8756 14.009 34.4471 13.4037 34.8056 12.7047L34.3607 12.4766ZM32.8372 14.1172L32.5599 13.7012C31.9599 14.1011 31.1657 14.3203 30.1419 14.3203V14.8203V15.3203C31.3056 15.3203 32.3083 15.0708 33.1146 14.5332L32.8372 14.1172ZM30.1419 14.8203V14.3203H30.0013V14.8203V15.3203H30.1419V14.8203ZM30.0013 14.8203L29.9191 14.3271C29.8521 14.3383 29.7859 14.3438 29.72 14.3438V14.8438V15.3438C29.8417 15.3438 29.963 15.3336 30.0835 15.3135L30.0013 14.8203ZM29.72 14.8438V14.3438H20.8607V14.8438V15.3438H29.72V14.8438ZM20.8607 14.8438V14.3438C20.5492 14.3438 20.2981 14.2431 20.08 14.0359L19.7357 14.3984L19.3913 14.7609C19.7983 15.1476 20.2971 15.3438 20.8607 15.3438V14.8438ZM19.7357 14.3984L20.0982 14.0541C19.891 13.836 19.7904 13.5849 19.7904 13.2734H19.2904H18.7904C18.7904 13.837 18.9866 14.3358 19.3732 14.7428L19.7357 14.3984ZM19.2904 13.2734H19.7904C19.7904 12.9707 19.892 12.7353 20.1035 12.5344L19.7591 12.1719L19.4147 11.8094C19.0012 12.2022 18.7904 12.7012 18.7904 13.2734H19.2904ZM19.7591 12.1719L20.1216 12.5163C20.3225 12.3048 20.5579 12.2031 20.8607 12.2031V11.7031V11.2031C20.2884 11.2031 19.7895 11.414 19.3966 11.8275L19.7591 12.1719ZM20.8607 11.7031V12.2031H30.2825V11.7031V11.2031H20.8607V11.7031ZM30.2825 11.7031L30.2563 12.2024C30.6265 12.2219 30.9845 12.1564 31.2865 11.9551L31.0091 11.5391L30.7318 11.123C30.6587 11.1718 30.5324 11.2156 30.3088 11.2038L30.2825 11.7031ZM31.0091 11.5391L31.2712 11.9649C31.5222 11.8104 31.7374 11.6173 31.8832 11.3744L31.4544 11.1172L31.0257 10.8599C30.9839 10.9295 30.9023 11.0177 30.7471 11.1132L31.0091 11.5391ZM31.4544 11.1172L31.8934 11.3566C32.0215 11.1216 32.095 10.8681 32.095 10.6016H31.595H31.095C31.095 10.6787 31.0748 10.769 31.0155 10.8778L31.4544 11.1172ZM31.595 10.6016H32.095C32.095 10.3718 32.0039 10.1371 31.9016 9.93264L31.4544 10.1562L31.0072 10.3799C31.0461 10.4576 31.0698 10.5165 31.0831 10.5588C31.0971 10.6031 31.095 10.6145 31.095 10.6016H31.595ZM31.4544 10.1562L31.9084 9.94672C31.7706 9.64815 31.5523 9.41127 31.2712 9.23823L31.0091 9.66406L30.7471 10.0899C30.8721 10.1669 30.9507 10.2581 31.0004 10.3658L31.4544 10.1562ZM31.0091 9.66406L31.2865 9.24804C31.0041 9.05977 30.6675 8.97269 30.3088 8.95382L30.2825 9.45312L30.2563 9.95243C30.4913 9.96481 30.6392 10.0184 30.7318 10.0801L31.0091 9.66406ZM30.2825 9.45312V8.95312H23.6263V9.45312V9.95312H30.2825V9.45312ZM23.6263 9.45312L23.6406 8.95333C22.6139 8.924 21.8037 8.69063 21.1807 8.28432L20.9075 8.70312L20.6344 9.12193C21.4489 9.65312 22.4512 9.91975 23.612 9.95292L23.6263 9.45312ZM20.9075 8.70312L21.1849 8.2871C20.5336 7.85287 20.0914 7.37962 19.8266 6.8765L19.3841 7.10938L18.9417 7.34225C19.3019 8.02663 19.8753 8.61588 20.6302 9.11915L20.9075 8.70312ZM19.3841 7.10938L19.8336 6.89039C19.5671 6.34336 19.4388 5.80066 19.4388 5.25781H18.9388H18.4388C18.4388 5.96496 18.6074 6.65664 18.9346 7.32836L19.3841 7.10938ZM18.9388 5.25781H19.4388C19.4388 4.73755 19.5714 4.21534 19.85 3.686L19.4075 3.45312L18.9651 3.22025C18.6187 3.87841 18.4388 4.55933 18.4388 5.25781H18.9388ZM19.4075 3.45312L19.8525 3.68128C20.1179 3.16361 20.5597 2.68435 21.2083 2.25196L20.931 1.83594L20.6536 1.41991C19.896 1.92502 19.3222 2.52389 18.9626 3.22497L19.4075 3.45312ZM20.931 1.83594L21.2083 2.25196C21.8135 1.84855 22.6134 1.61508 23.6406 1.58573L23.6263 1.08594L23.612 0.586142C22.4517 0.619294 21.4548 0.885824 20.6536 1.41991L20.931 1.83594ZM23.6263 1.08594V1.58594H23.7669V1.08594V0.585938H23.6263V1.08594ZM23.7669 1.08594L23.8491 1.57913C23.9161 1.56797 23.9823 1.5625 24.0482 1.5625V1.0625V0.5625C23.9265 0.5625 23.8053 0.57265 23.6847 0.592741L23.7669 1.08594ZM24.0482 1.0625V1.5625H32.8607V1.0625V0.5625H24.0482V1.0625ZM32.8607 1.0625V1.5625C33.1634 1.5625 33.3988 1.66416 33.5997 1.87562L33.9622 1.53125L34.3247 1.18688C33.9319 0.773335 33.4329 0.5625 32.8607 0.5625V1.0625ZM33.9622 1.53125L33.6179 1.89375C33.8293 2.09464 33.931 2.33004 33.931 2.63281H34.431H34.931C34.931 2.06058 34.7201 1.56161 34.3066 1.16875L33.9622 1.53125ZM54.065 1.50781L54.4275 1.16344L54.4187 1.15414L54.4094 1.14531L54.065 1.50781ZM47.7135 4.20312V3.70312H47.2135V4.20312H47.7135ZM47.7135 13.6953L48.211 13.7451L48.2135 13.7203V13.6953H47.7135ZM46.1666 15.2188V15.7188H46.1874L46.2081 15.717L46.1666 15.2188ZM45.0182 14.7969L44.6738 15.1594L44.6831 15.1682L44.6928 15.1765L45.0182 14.7969ZM44.5494 4.20312H45.0494V3.70312H44.5494V4.20312ZM38.1979 3.73438L38.5604 3.39L38.5515 3.38071L38.5422 3.37187L38.1979 3.73438ZM37.7291 2.63281H38.2291C38.2291 2.3217 38.3292 2.0836 38.528 1.8848L38.1744 1.53125L37.8209 1.1777C37.4259 1.57265 37.2291 2.06892 37.2291 2.63281H37.7291ZM38.1744 1.53125L38.528 1.8848C38.7478 1.665 38.996 1.5625 39.2994 1.5625V1.0625V0.5625C38.7278 0.5625 38.2261 0.772499 37.8209 1.1777L38.1744 1.53125ZM39.2994 1.0625V1.5625H52.94V1.0625V0.5625H39.2994V1.0625ZM52.94 1.0625V1.5625C53.2515 1.5625 53.5026 1.66318 53.7207 1.87031L54.065 1.50781L54.4094 1.14531C54.0025 0.758695 53.5036 0.5625 52.94 0.5625V1.0625ZM54.065 1.50781L53.7025 1.85219C53.9097 2.07022 54.0104 2.32134 54.0104 2.63281H54.5104H55.0104C55.0104 2.06928 54.8142 1.5704 54.4275 1.16344L54.065 1.50781ZM54.5104 2.63281H54.0104C54.0104 2.9362 53.9079 3.18446 53.6881 3.40426L54.0416 3.75781L54.3952 4.11137C54.8004 3.70617 55.0104 3.20443 55.0104 2.63281H54.5104ZM54.0416 3.75781L53.6881 3.40426C53.4893 3.60306 53.2512 3.70312 52.94 3.70312V4.20312V4.70312C53.5039 4.70312 54.0002 4.50632 54.3952 4.11137L54.0416 3.75781ZM52.94 4.20312V3.70312H47.7135V4.20312V4.70312H52.94V4.20312ZM47.7135 4.20312H47.2135V13.6953H47.7135H48.2135V4.20312H47.7135ZM47.7135 13.6953L47.216 13.6456C47.1772 14.0337 47.0579 14.2731 46.9056 14.4231C46.7534 14.573 46.5128 14.6882 46.1251 14.7205L46.1666 15.2188L46.2081 15.717C46.7579 15.6712 47.2439 15.4934 47.6073 15.1355C47.9706 14.7777 48.1561 14.2944 48.211 13.7451L47.7135 13.6953ZM46.1666 15.2188V14.7188C45.8468 14.7188 45.5799 14.6198 45.3436 14.4172L45.0182 14.7969L44.6928 15.1765C45.1127 15.5365 45.6114 15.7188 46.1666 15.7188V15.2188ZM45.0182 14.7969L45.3625 14.4344C45.1511 14.2335 45.0494 13.9981 45.0494 13.6953H44.5494H44.0494C44.0494 14.2675 44.2603 14.7665 44.6738 15.1594L45.0182 14.7969ZM44.5494 13.6953H45.0494V4.20312H44.5494H44.0494V13.6953H44.5494ZM44.5494 4.20312V3.70312H39.2994V4.20312V4.70312H44.5494V4.20312ZM39.2994 4.20312V3.70312C38.9967 3.70312 38.7612 3.60146 38.5604 3.39L38.1979 3.73438L37.8354 4.07875C38.2282 4.49229 38.7272 4.70312 39.2994 4.70312V4.20312ZM38.1979 3.73438L38.5422 3.37187C38.3308 3.17099 38.2291 2.93558 38.2291 2.63281H37.7291H37.2291C37.2291 3.20504 37.4399 3.70401 37.8535 4.09688L38.1979 3.73438ZM68.121 9.6875V10.1875H68.8266L68.5927 9.52176L68.121 9.6875ZM67.5116 7.95312L67.9833 7.78738L67.9805 7.77932L67.9774 7.77135L67.5116 7.95312ZM66.7616 6.14844L66.2982 6.33629L66.3013 6.34395L66.3047 6.35151L66.7616 6.14844ZM65.9413 4.57812L65.5126 4.83537L65.5187 4.84558L65.5253 4.85548L65.9413 4.57812ZM64.9804 3.82812L65.0237 3.33L64.9813 3.32632L64.9388 3.32985L64.9804 3.82812ZM63.1522 6.14844L62.6933 5.94996L62.6907 5.95613L63.1522 6.14844ZM62.4257 7.95312L61.9598 7.77131L61.956 7.78153L62.4257 7.95312ZM60.1991 14.0469L60.6505 14.2618L60.6607 14.2406L60.6687 14.2185L60.1991 14.0469ZM59.5897 14.8672L59.9172 15.245L59.919 15.2435L59.5897 14.8672ZM57.3866 14.7031L57.0148 15.0377L57.0241 15.0475L57.3866 14.7031ZM57.0116 13.5781L56.5131 13.5398L56.5129 13.5425L57.0116 13.5781ZM57.1522 13.0156L57.6074 13.2225L57.6133 13.2095L57.6185 13.1962L57.1522 13.0156ZM59.7304 6.35938L59.2678 6.16938L59.2641 6.17879L59.7304 6.35938ZM61.8866 2.11719L62.3026 2.39454L62.3036 2.39312L61.8866 2.11719ZM64.9804 0.5L64.9862 -9.9659e-05L64.9746 3.29018e-05L64.9804 0.5ZM68.0507 2.11719L67.6336 2.39316L67.6385 2.40019L68.0507 2.11719ZM70.2069 6.35938L70.6732 6.17877L70.6706 6.17228L70.2069 6.35938ZM72.785 13.0156L72.3188 13.1962L72.324 13.2095L72.3299 13.2225L72.785 13.0156ZM72.9257 13.5781L73.4244 13.5425L73.4242 13.5398L72.9257 13.5781ZM72.5272 14.7031L72.1646 14.3586L72.1556 14.3686L72.5272 14.7031ZM70.2772 14.8672L69.9361 15.2327L69.9486 15.2444L69.9619 15.2552L70.2772 14.8672ZM69.6913 14.0469L69.2217 14.2185L69.2297 14.2406L69.2399 14.2618L69.6913 14.0469ZM69.246 12.8281L69.7156 12.6565L69.5956 12.3281H69.246V12.8281ZM63.4335 12.3594L63.796 12.015L63.7872 12.0057L63.7779 11.9969L63.4335 12.3594ZM62.9647 11.2578H63.4647C63.4647 10.9467 63.5648 10.7086 63.7636 10.5098L63.41 10.1562L63.0565 9.8027C62.6615 10.1976 62.4647 10.6939 62.4647 11.2578H62.9647ZM63.41 10.1562L63.7636 10.5098C63.9834 10.29 64.2317 10.1875 64.535 10.1875V9.6875V9.1875C63.9634 9.1875 63.4617 9.3975 63.0565 9.8027L63.41 10.1562ZM64.535 9.6875V10.1875H68.121V9.6875V9.1875H64.535V9.6875ZM68.121 9.6875L68.5927 9.52176L67.9833 7.78738L67.5116 7.95312L67.0399 8.11887L67.6493 9.85324L68.121 9.6875ZM67.5116 7.95312L67.9774 7.77135C67.7249 7.12438 67.472 6.51566 67.2185 5.94537L66.7616 6.14844L66.3047 6.35151C66.5512 6.90622 66.7983 7.50062 67.0458 8.1349L67.5116 7.95312ZM66.7616 6.14844L67.225 5.96058C66.9792 5.3544 66.6905 4.8005 66.3573 4.30077L65.9413 4.57812L65.5253 4.85548C65.8171 5.29325 66.0752 5.78622 66.2982 6.33629L66.7616 6.14844ZM65.9413 4.57812L66.37 4.32088C66.0505 3.78826 65.6123 3.38119 65.0237 3.33L64.9804 3.82812L64.937 4.32625C65.0672 4.33756 65.2696 4.43049 65.5126 4.83537L65.9413 4.57812ZM64.9804 3.82812L64.9388 3.32985C64.344 3.37942 63.8894 3.77495 63.5501 4.3106L63.9725 4.57812L64.395 4.84565C64.6495 4.4438 64.8667 4.33933 65.0219 4.3264L64.9804 3.82812ZM63.9725 4.57812L63.5501 4.3106C63.2376 4.8041 62.9523 5.35106 62.6933 5.94998L63.1522 6.14844L63.6112 6.34689C63.8522 5.78957 64.1138 5.28965 64.395 4.84565L63.9725 4.57812ZM63.1522 6.14844L62.6907 5.95613C62.4547 6.52254 62.2111 7.12764 61.9599 7.77135L62.4257 7.95312L62.8915 8.1349C63.1403 7.49736 63.381 6.89934 63.6138 6.34074L63.1522 6.14844ZM62.4257 7.95312L61.956 7.78153L59.7295 13.8753L60.1991 14.0469L60.6687 14.2185L62.8953 8.12472L62.4257 7.95312ZM60.1991 14.0469L59.7477 13.8319C59.618 14.1043 59.4545 14.3211 59.2605 14.4909L59.5897 14.8672L59.919 15.2435C60.2249 14.9758 60.4678 14.6457 60.6505 14.2618L60.1991 14.0469ZM59.5897 14.8672L59.2623 14.4893C59.1578 14.5798 58.94 14.6719 58.5116 14.6719V15.1719V15.6719C59.0519 15.6719 59.5529 15.5608 59.9172 15.245L59.5897 14.8672ZM58.5116 15.1719V14.6719C58.1877 14.6719 57.9463 14.5663 57.7491 14.3587L57.3866 14.7031L57.0241 15.0475C57.4207 15.4649 57.9293 15.6719 58.5116 15.6719V15.1719ZM57.3866 14.7031L57.7583 14.3686C57.5722 14.1619 57.4883 13.9223 57.5103 13.6137L57.0116 13.5781L56.5129 13.5425C56.4724 14.1089 56.6385 14.6193 57.015 15.0376L57.3866 14.7031ZM57.0116 13.5781L57.5101 13.6165C57.5216 13.467 57.5553 13.3371 57.6074 13.2225L57.1522 13.0156L56.6971 12.8087C56.5929 13.0379 56.5328 13.283 56.5131 13.5398L57.0116 13.5781ZM57.1522 13.0156L57.6185 13.1962L60.1966 6.53996L59.7304 6.35938L59.2641 6.17879L56.686 12.835L57.1522 13.0156ZM59.7304 6.35938L60.1929 6.54933C60.9042 4.81733 61.6085 3.43574 62.3026 2.39454L61.8866 2.11719L61.4706 1.83984C60.7272 2.95488 59.994 4.40142 59.2679 6.16942L59.7304 6.35938ZM61.8866 2.11719L62.3036 2.39312C62.9082 1.47947 63.7793 1.01384 64.9861 0.999967L64.9804 0.5L64.9746 3.29018e-05C63.4627 0.0174117 62.2713 0.6299 61.4696 1.84125L61.8866 2.11719ZM64.9804 0.5L64.9745 0.999966C66.1634 1.01379 67.0278 1.47758 67.6337 2.39312L68.0507 2.11719L68.4676 1.84125C67.6673 0.63179 66.4848 0.0174603 64.9862 3.38554e-05L64.9804 0.5ZM68.0507 2.11719L67.6385 2.40019C68.329 3.40598 69.0319 4.78366 69.7432 6.54647L70.2069 6.35938L70.6706 6.17228C69.9444 4.37259 69.2098 2.92215 68.4629 1.83418L68.0507 2.11719ZM70.2069 6.35938L69.7407 6.53996L72.3188 13.1962L72.785 13.0156L73.2513 12.835L70.6732 6.17879L70.2069 6.35938ZM72.785 13.0156L72.3299 13.2225C72.382 13.3371 72.4156 13.467 72.4271 13.6165L72.9257 13.5781L73.4242 13.5398C73.4044 13.283 73.3444 13.0379 73.2402 12.8087L72.785 13.0156ZM72.9257 13.5781L72.4269 13.6137C72.4484 13.9139 72.3629 14.1502 72.1647 14.3587L72.5272 14.7031L72.8897 15.0475C73.2853 14.6311 73.4655 14.1174 73.4244 13.5425L72.9257 13.5781ZM72.5272 14.7031L72.1556 14.3686C71.9771 14.5669 71.7495 14.6719 71.4257 14.6719V15.1719V15.6719C72.0081 15.6719 72.5148 15.4643 72.8989 15.0376L72.5272 14.7031ZM71.4257 15.1719V14.6719C70.9604 14.6719 70.7137 14.5776 70.5925 14.4791L70.2772 14.8672L69.9619 15.2552C70.3408 15.563 70.8597 15.6719 71.4257 15.6719V15.1719ZM70.2772 14.8672L70.6184 14.5017C70.4356 14.3311 70.2756 14.1109 70.1427 13.8319L69.6913 14.0469L69.2399 14.2618C69.4195 14.6391 69.6501 14.9658 69.9361 15.2327L70.2772 14.8672ZM69.6913 14.0469L70.1609 13.8753L69.7156 12.6565L69.246 12.8281L68.7764 12.9997L69.2217 14.2185L69.6913 14.0469ZM69.246 12.8281V12.3281H64.535V12.8281V13.3281H69.246V12.8281ZM64.535 12.8281V12.3281C64.2323 12.3281 63.9969 12.2265 63.796 12.015L63.4335 12.3594L63.071 12.7038C63.4639 13.1173 63.9628 13.3281 64.535 13.3281V12.8281ZM63.4335 12.3594L63.7779 11.9969C63.5664 11.796 63.4647 11.5606 63.4647 11.2578H62.9647H62.4647C62.4647 11.83 62.6756 12.329 63.0891 12.7219L63.4335 12.3594ZM77.6066 15.1719L77.5881 15.6715L77.5974 15.6719H77.6066V15.1719ZM76.5285 14.7266L76.1748 15.0802L76.1846 15.0895L76.5285 14.7266ZM76.0597 13.6484H75.5597V13.6577L75.5601 13.6669L76.0597 13.6484ZM76.0597 7.8125L75.5597 7.80546V7.8125H76.0597ZM76.5285 4.67188L76.0519 4.52057L76.0498 4.5275L76.5285 4.67188ZM78.0519 2.1875L78.3974 2.549L78.3975 2.54882L78.0519 2.1875ZM80.7707 1.0625V0.5625H80.7564L80.7421 0.563314L80.7707 1.0625ZM89.8176 1.0625L89.8361 0.562842L89.8268 0.5625H89.8176V1.0625ZM90.8722 1.53125L90.5093 1.87512L90.5186 1.88493L90.5284 1.89423L90.8722 1.53125ZM91.341 2.58594H91.841V2.57668L91.8406 2.56743L91.341 2.58594ZM90.8957 3.71094L90.533 3.36644L90.524 3.37646L90.8957 3.71094ZM89.8176 4.20312V4.70312H89.8265L89.8354 4.70281L89.8176 4.20312ZM81.5676 4.20312V3.70312H81.5544L81.5413 3.70382L81.5676 4.20312ZM79.341 6.33594L78.8506 6.23785L78.8486 6.24904L79.341 6.33594ZM79.2238 8.09375H79.7239L79.7237 8.08156L79.2238 8.09375ZM79.2238 13.6484L79.7235 13.6663L79.7238 13.6574V13.6484H79.2238ZM78.7316 14.75L79.0662 15.1218L79.076 15.1125L78.7316 14.75ZM80.7941 7.90625L81.1385 8.26875L81.1478 8.25992L81.1566 8.25062L80.7941 7.90625ZM90.9191 7.90625L90.5566 8.25062L90.5654 8.25992L90.5747 8.26875L90.9191 7.90625ZM90.9426 10.1328L91.2869 10.4953L91.2962 10.4865L91.3051 10.4772L90.9426 10.1328ZM80.7707 10.1328L80.4082 10.4772L80.417 10.4865L80.4263 10.4953L80.7707 10.1328ZM77.6066 15.1719L77.6251 14.6722C77.3204 14.6609 77.0779 14.5583 76.8724 14.3636L76.5285 14.7266L76.1846 15.0895C76.5728 15.4573 77.0491 15.6516 77.5881 15.6715L77.6066 15.1719ZM76.5285 14.7266L76.882 14.373C76.675 14.1659 76.5704 13.9265 76.5594 13.6299L76.0597 13.6484L75.5601 13.6669C75.5803 14.2142 75.7883 14.6935 76.1749 15.0801L76.5285 14.7266ZM76.0597 13.6484H76.5597V7.8125H76.0597H75.5597V13.6484H76.0597ZM76.0597 7.8125L76.5597 7.81954C76.5747 6.75305 76.7248 5.75268 77.0072 4.81625L76.5285 4.67188L76.0498 4.5275C75.7384 5.55982 75.576 6.6532 75.5598 7.80546L76.0597 7.8125ZM76.5285 4.67188L77.0051 4.82316C77.2938 3.91363 77.7587 3.15931 78.3974 2.549L78.0519 2.1875L77.7065 1.826C76.9389 2.55944 76.3882 3.46137 76.0519 4.52059L76.5285 4.67188ZM78.0519 2.1875L78.3975 2.54882C79.0214 1.95205 79.8113 1.61814 80.7992 1.56169L80.7707 1.0625L80.7421 0.563314C79.5426 0.63186 78.5199 1.04795 77.7063 1.82618L78.0519 2.1875ZM80.7707 1.0625V1.5625H89.8176V1.0625V0.5625H80.7707V1.0625ZM89.8176 1.0625L89.799 1.56216C90.0948 1.57311 90.3212 1.67663 90.5093 1.87512L90.8722 1.53125L91.2352 1.18738C90.8608 0.792124 90.384 0.583137 89.8361 0.562842L89.8176 1.0625ZM90.8722 1.53125L90.5284 1.89423C90.7269 2.08228 90.8304 2.30864 90.8413 2.60444L91.341 2.58594L91.8406 2.56743C91.8204 2.01948 91.6114 1.54272 91.2161 1.16827L90.8722 1.53125ZM91.341 2.58594H90.841C90.841 2.89741 90.7403 3.14853 90.5332 3.36656L90.8957 3.71094L91.2582 4.05531C91.6448 3.64835 91.841 3.14947 91.841 2.58594H91.341ZM90.8957 3.71094L90.524 3.37646C90.3376 3.58364 90.108 3.69243 89.7997 3.70344L89.8176 4.20312L89.8354 4.70281C90.4021 4.68257 90.8913 4.46323 91.2673 4.04542L90.8957 3.71094ZM89.8176 4.20312V3.70312H81.5676V4.20312V4.70312H89.8176V4.20312ZM81.5676 4.20312L81.5413 3.70382C80.8225 3.74165 80.2065 4.02216 79.7241 4.54311L80.091 4.88281L80.4579 5.22252C80.7568 4.89971 81.1251 4.7271 81.5938 4.70243L81.5676 4.20312ZM80.091 4.88281L79.7241 4.54311C79.2729 5.03042 78.9787 5.59773 78.8507 6.23788L79.341 6.33594L79.8313 6.434C79.922 5.9804 80.1278 5.57896 80.4579 5.22252L80.091 4.88281ZM79.341 6.33594L78.8486 6.24904C78.7481 6.81841 78.7077 7.43811 78.7239 8.10594L79.2238 8.09375L79.7237 8.08156C79.7087 7.46814 79.7464 6.91597 79.8334 6.42283L79.341 6.33594ZM79.2238 8.09375H78.7238V13.6484H79.2238H79.7238V8.09375H79.2238ZM79.2238 13.6484L78.7241 13.6306C78.7131 13.9396 78.6032 14.1823 78.3872 14.3875L78.7316 14.75L79.076 15.1125C79.485 14.7239 79.7033 14.2323 79.7235 13.6663L79.2238 13.6484ZM78.7316 14.75L78.3971 14.3784C78.1805 14.5734 77.9261 14.6719 77.6066 14.6719V15.1719V15.6719C78.1621 15.6719 78.6578 15.4891 79.0661 15.1216L78.7316 14.75ZM80.3254 9.00781H80.8254C80.8254 8.70504 80.927 8.46964 81.1385 8.26875L80.7941 7.90625L80.4497 7.54375C80.0362 7.93661 79.8254 8.43558 79.8254 9.00781H80.3254ZM80.7941 7.90625L81.1566 8.25062C81.3575 8.03916 81.5929 7.9375 81.8957 7.9375V7.4375V6.9375C81.3234 6.9375 80.8245 7.14834 80.4316 7.56188L80.7941 7.90625ZM81.8957 7.4375V7.9375H89.8176V7.4375V6.9375H81.8957V7.4375ZM89.8176 7.4375V7.9375C90.1203 7.9375 90.3557 8.03916 90.5566 8.25062L90.9191 7.90625L91.2816 7.56188C90.8887 7.14834 90.3898 6.9375 89.8176 6.9375V7.4375ZM90.9191 7.90625L90.5747 8.26875C90.7862 8.46964 90.8879 8.70504 90.8879 9.00781H91.3879H91.8879C91.8879 8.43558 91.677 7.93661 91.2635 7.54375L90.9191 7.90625ZM91.3879 9.00781H90.8879C90.8879 9.31928 90.7872 9.5704 90.58 9.78844L90.9426 10.1328L91.3051 10.4772C91.6917 10.0702 91.8879 9.57134 91.8879 9.00781H91.3879ZM90.9426 10.1328L90.5982 9.77031C90.3801 9.97745 90.129 10.0781 89.8176 10.0781V10.5781V11.0781C90.3811 11.0781 90.88 10.8819 91.2869 10.4953L90.9426 10.1328ZM89.8176 10.5781V10.0781H81.8957V10.5781V11.0781H89.8176V10.5781ZM81.8957 10.5781V10.0781C81.5842 10.0781 81.3331 9.97745 81.1151 9.77031L80.7707 10.1328L80.4263 10.4953C80.8333 10.8819 81.3321 11.0781 81.8957 11.0781V10.5781ZM80.7707 10.1328L81.1332 9.78844C80.926 9.5704 80.8254 9.31928 80.8254 9.00781H80.3254H79.8254C79.8254 9.57134 80.0216 10.0702 80.4082 10.4772L80.7707 10.1328ZM104.67 9.6875V10.1875H105.376L105.142 9.52176L104.67 9.6875ZM104.061 7.95312L104.533 7.78738L104.53 7.77932L104.527 7.77135L104.061 7.95312ZM103.311 6.14844L102.848 6.33629L102.851 6.34395L102.854 6.35151L103.311 6.14844ZM102.491 4.57812L102.062 4.83537L102.068 4.84558L102.075 4.85548L102.491 4.57812ZM101.53 3.82812L101.573 3.33L101.531 3.32632L101.488 3.32985L101.53 3.82812ZM99.7016 6.14844L99.2426 5.94996L99.2401 5.95613L99.7016 6.14844ZM98.9751 7.95312L98.5092 7.77131L98.5054 7.78153L98.9751 7.95312ZM96.7485 14.0469L97.1999 14.2618L97.21 14.2406L97.2181 14.2185L96.7485 14.0469ZM96.1391 14.8672L96.4666 15.245L96.4684 15.2435L96.1391 14.8672ZM93.936 14.7031L93.5642 15.0377L93.5735 15.0475L93.936 14.7031ZM93.561 13.5781L93.0625 13.5398L93.0623 13.5425L93.561 13.5781ZM93.7016 13.0156L94.1568 13.2225L94.1627 13.2095L94.1679 13.1962L93.7016 13.0156ZM96.2797 6.35938L95.8171 6.16938L95.8135 6.17879L96.2797 6.35938ZM98.436 2.11719L98.852 2.39454L98.853 2.39312L98.436 2.11719ZM101.53 0.5L101.536 -9.9659e-05L101.524 3.29018e-05L101.53 0.5ZM104.6 2.11719L104.183 2.39316L104.188 2.40019L104.6 2.11719ZM106.756 6.35938L107.223 6.17877L107.22 6.17228L106.756 6.35938ZM109.334 13.0156L108.868 13.1962L108.873 13.2095L108.879 13.2225L109.334 13.0156ZM109.475 13.5781L109.974 13.5425L109.974 13.5398L109.475 13.5781ZM109.077 14.7031L108.714 14.3586L108.705 14.3686L109.077 14.7031ZM106.827 14.8672L106.485 15.2327L106.498 15.2444L106.511 15.2552L106.827 14.8672ZM106.241 14.0469L105.771 14.2185L105.779 14.2406L105.789 14.2618L106.241 14.0469ZM105.795 12.8281L106.265 12.6565L106.145 12.3281H105.795V12.8281ZM99.9829 12.3594L100.345 12.015L100.337 12.0057L100.327 11.9969L99.9829 12.3594ZM99.5141 11.2578H100.014C100.014 10.9467 100.114 10.7086 100.313 10.5098L99.9594 10.1562L99.6059 9.8027C99.2109 10.1976 99.0141 10.6939 99.0141 11.2578H99.5141ZM99.9594 10.1562L100.313 10.5098C100.533 10.29 100.781 10.1875 101.084 10.1875V9.6875V9.1875C100.513 9.1875 100.011 9.3975 99.6059 9.8027L99.9594 10.1562ZM101.084 9.6875V10.1875H104.67V9.6875V9.1875H101.084V9.6875ZM104.67 9.6875L105.142 9.52176L104.533 7.78738L104.061 7.95312L103.589 8.11887L104.199 9.85324L104.67 9.6875ZM104.061 7.95312L104.527 7.77135C104.274 7.12438 104.021 6.51566 103.768 5.94537L103.311 6.14844L102.854 6.35151C103.101 6.90622 103.348 7.50062 103.595 8.1349L104.061 7.95312ZM103.311 6.14844L103.774 5.96058C103.529 5.3544 103.24 4.8005 102.907 4.30077L102.491 4.57812L102.075 4.85548C102.367 5.29325 102.625 5.78622 102.848 6.33629L103.311 6.14844ZM102.491 4.57812L102.919 4.32088C102.6 3.78826 102.162 3.38119 101.573 3.33L101.53 3.82812L101.486 4.32625C101.617 4.33756 101.819 4.43049 102.062 4.83537L102.491 4.57812ZM101.53 3.82812L101.488 3.32985C100.893 3.37942 100.439 3.77495 100.1 4.3106L100.522 4.57812L100.944 4.84565C101.199 4.4438 101.416 4.33933 101.571 4.3264L101.53 3.82812ZM100.522 4.57812L100.1 4.3106C99.787 4.8041 99.5017 5.35106 99.2427 5.94998L99.7016 6.14844L100.161 6.34689C100.402 5.78957 100.663 5.28965 100.944 4.84565L100.522 4.57812ZM99.7016 6.14844L99.2401 5.95613C99.0041 6.52254 98.7605 7.12764 98.5093 7.77135L98.9751 7.95312L99.4408 8.1349C99.6896 7.49736 99.9304 6.89934 100.163 6.34074L99.7016 6.14844ZM98.9751 7.95312L98.5054 7.78153L96.2789 13.8753L96.7485 14.0469L97.2181 14.2185L99.4447 8.12472L98.9751 7.95312ZM96.7485 14.0469L96.2971 13.8319C96.1673 14.1043 96.0039 14.3211 95.8099 14.4909L96.1391 14.8672L96.4684 15.2435C96.7743 14.9758 97.0171 14.6457 97.1999 14.2618L96.7485 14.0469ZM96.1391 14.8672L95.8116 14.4893C95.7072 14.5798 95.4894 14.6719 95.061 14.6719V15.1719V15.6719C95.6013 15.6719 96.1023 15.5608 96.4666 15.245L96.1391 14.8672ZM95.061 15.1719V14.6719C94.737 14.6719 94.4957 14.5663 94.2985 14.3587L93.936 14.7031L93.5735 15.0475C93.9701 15.4649 94.4787 15.6719 95.061 15.6719V15.1719ZM93.936 14.7031L94.3076 14.3686C94.1216 14.1619 94.0377 13.9223 94.0597 13.6137L93.561 13.5781L93.0623 13.5425C93.0218 14.1089 93.1879 14.6193 93.5643 15.0376L93.936 14.7031ZM93.561 13.5781L94.0595 13.6165C94.071 13.467 94.1047 13.3371 94.1568 13.2225L93.7016 13.0156L93.2464 12.8087C93.1423 13.0379 93.0822 13.283 93.0625 13.5398L93.561 13.5781ZM93.7016 13.0156L94.1679 13.1962L96.746 6.53996L96.2797 6.35938L95.8135 6.17879L93.2354 12.835L93.7016 13.0156ZM96.2797 6.35938L96.7422 6.54933C97.4536 4.81733 98.1579 3.43574 98.852 2.39454L98.436 2.11719L98.02 1.83984C97.2766 2.95488 96.5434 4.40142 95.8172 6.16942L96.2797 6.35938ZM98.436 2.11719L98.853 2.39312C99.4576 1.47947 100.329 1.01384 101.535 0.999967L101.53 0.5L101.524 3.29018e-05C100.012 0.0174117 98.8207 0.6299 98.019 1.84125L98.436 2.11719ZM101.53 0.5L101.524 0.999966C102.713 1.01379 103.577 1.47758 104.183 2.39312L104.6 2.11719L105.017 1.84125C104.217 0.63179 103.034 0.0174603 101.536 3.38554e-05L101.53 0.5ZM104.6 2.11719L104.188 2.40019C104.878 3.40598 105.581 4.78366 106.293 6.54647L106.756 6.35938L107.22 6.17228C106.494 4.37259 105.759 2.92215 105.012 1.83418L104.6 2.11719ZM106.756 6.35938L106.29 6.53996L108.868 13.1962L109.334 13.0156L109.801 12.835L107.223 6.17879L106.756 6.35938ZM109.334 13.0156L108.879 13.2225C108.931 13.3371 108.965 13.467 108.977 13.6165L109.475 13.5781L109.974 13.5398C109.954 13.283 109.894 13.0379 109.79 12.8087L109.334 13.0156ZM109.475 13.5781L108.976 13.6137C108.998 13.9139 108.912 14.1502 108.714 14.3587L109.077 14.7031L109.439 15.0475C109.835 14.6311 110.015 14.1174 109.974 13.5425L109.475 13.5781ZM109.077 14.7031L108.705 14.3686C108.527 14.5669 108.299 14.6719 107.975 14.6719V15.1719V15.6719C108.558 15.6719 109.064 15.4643 109.448 15.0376L109.077 14.7031ZM107.975 15.1719V14.6719C107.51 14.6719 107.263 14.5776 107.142 14.4791L106.827 14.8672L106.511 15.2552C106.89 15.563 107.409 15.6719 107.975 15.6719V15.1719ZM106.827 14.8672L107.168 14.5017C106.985 14.3311 106.825 14.1109 106.692 13.8319L106.241 14.0469L105.789 14.2618C105.969 14.6391 106.199 14.9658 106.485 15.2327L106.827 14.8672ZM106.241 14.0469L106.71 13.8753L106.265 12.6565L105.795 12.8281L105.326 12.9997L105.771 14.2185L106.241 14.0469ZM105.795 12.8281V12.3281H101.084V12.8281V13.3281H105.795V12.8281ZM101.084 12.8281V12.3281C100.782 12.3281 100.546 12.2265 100.345 12.015L99.9829 12.3594L99.6204 12.7038C100.013 13.1173 100.512 13.3281 101.084 13.3281V12.8281ZM99.9829 12.3594L100.327 11.9969C100.116 11.796 100.014 11.5606 100.014 11.2578H99.5141H99.0141C99.0141 11.83 99.225 12.329 99.6385 12.7219L99.9829 12.3594Z" fill="#12A2B2" fill-opacity="0.9" mask="url(#path-1-outside-1_2070_9)"/>
<defs>
<linearGradient id="paint0_linear_2070_9" x1="-5.82886" y1="5.9375" x2="115.171" y2="5.9375" gradientUnits="userSpaceOnUse">
<stop offset="0.120192" stop-color="#08454C"/>
<stop offset="1" stop-color="#13A2B2" stop-opacity="0.9"/>
</linearGradient>
</defs>
</svg>
