<svg width="110" height="16" viewBox="0 0 110 16" fill="none" xmlns="http://www.w3.org/2000/svg">
<mask id="path-1-outside-1_2072_21" maskUnits="userSpaceOnUse" x="-0.828857" y="-0.0623779" width="111" height="16" fill="black">
<rect fill="white" x="-0.828857" y="-0.0623779" width="111" height="16"/>
<path d="M7.95317 15.4298C7.14067 15.4298 6.33599 15.3361 5.53911 15.1486C4.75786 14.9611 4.00786 14.6876 3.28911 14.3282C2.57036 13.9532 1.93755 13.4611 1.39067 12.8517C0.8438 12.2423 0.546925 11.5157 0.50005 10.672V9.68762V2.21106C0.50005 1.77356 0.6563 1.41418 0.9688 1.13293C1.29692 0.83606 1.67974 0.687622 2.11724 0.687622C3.05474 0.765747 3.56255 1.27356 3.64067 2.21106V9.94543C3.67192 10.4298 3.85161 10.8361 4.17974 11.1642C4.52349 11.4767 4.89849 11.7267 5.30474 11.9142C5.72661 12.1017 6.1563 12.2423 6.5938 12.3361C7.04692 12.4298 7.50005 12.4767 7.95317 12.4767C8.4063 12.4767 8.85161 12.4298 9.28911 12.3361C9.74224 12.2423 10.1719 12.1017 10.5782 11.9142C11 11.7267 11.375 11.4767 11.7032 11.1642C12.0469 10.8361 12.2344 10.4298 12.2657 9.94543V2.21106C12.2657 1.77356 12.4219 1.41418 12.7344 1.13293C13.0625 0.83606 13.4454 0.687622 13.8829 0.687622C14.8204 0.765747 15.336 1.27356 15.4297 2.21106V9.68762V10.672C15.3829 11.5157 15.0782 12.2423 14.5157 12.8517C13.9688 13.4611 13.336 13.9532 12.6172 14.3282C11.8985 14.6876 11.1407 14.9611 10.3438 15.1486C9.56255 15.3361 8.76567 15.4298 7.95317 15.4298ZM34.431 2.63293C34.431 3.07043 34.2747 3.43762 33.9622 3.7345C33.6654 4.047 33.2982 4.20325 32.8607 4.20325H23.4857C23.1888 4.21887 22.9388 4.28918 22.7357 4.41418C22.5482 4.52356 22.4075 4.65637 22.3138 4.81262C22.22 4.95325 22.1732 5.10168 22.1732 5.25793C22.1732 5.41418 22.22 5.57043 22.3138 5.72668C22.4075 5.86731 22.5482 6.00012 22.7357 6.12512C22.9388 6.2345 23.1888 6.297 23.4857 6.31262H30.1419C31.2357 6.34387 32.1341 6.60168 32.8372 7.08606C33.556 7.55481 34.0638 8.10168 34.3607 8.72668C34.6732 9.33606 34.8294 9.96106 34.8294 10.6017C34.8294 11.2267 34.6732 11.8517 34.3607 12.4767C34.0482 13.0861 33.5404 13.6329 32.8372 14.1173C32.1341 14.5861 31.2357 14.8204 30.1419 14.8204H30.0013C29.9075 14.8361 29.8138 14.8439 29.72 14.8439H20.8607C20.4232 14.8439 20.0482 14.6954 19.7357 14.3986C19.4388 14.0861 19.2904 13.7111 19.2904 13.2736C19.2904 12.8361 19.4466 12.4689 19.7591 12.172C20.056 11.8595 20.4232 11.7032 20.8607 11.7032H30.2825C30.5794 11.7189 30.8216 11.6642 31.0091 11.5392C31.2122 11.4142 31.3607 11.2736 31.4544 11.1173C31.5482 10.9454 31.595 10.7736 31.595 10.6017C31.595 10.4923 31.5482 10.3439 31.4544 10.1564C31.3607 9.95325 31.2122 9.78918 31.0091 9.66418C30.8216 9.53918 30.5794 9.46887 30.2825 9.45325H23.6263C22.5325 9.422 21.6263 9.172 20.9075 8.70325C20.2044 8.2345 19.6966 7.70325 19.3841 7.1095C19.0872 6.50012 18.9388 5.88293 18.9388 5.25793C18.9388 4.64856 19.095 4.047 19.4075 3.45325C19.72 2.84387 20.2279 2.30481 20.931 1.83606C21.6341 1.36731 22.5325 1.11731 23.6263 1.08606H23.7669C23.8607 1.07043 23.9544 1.06262 24.0482 1.06262H32.8607C33.2982 1.06262 33.6654 1.21887 33.9622 1.53137C34.2747 1.82825 34.431 2.19543 34.431 2.63293ZM37.7291 2.63293C37.7291 2.19543 37.8775 1.82825 38.1744 1.53137C38.4869 1.21887 38.8619 1.06262 39.2994 1.06262H52.94C53.3775 1.06262 53.7525 1.21106 54.065 1.50793C54.3619 1.82043 54.5104 2.19543 54.5104 2.63293C54.5104 3.07043 54.3541 3.44543 54.0416 3.75793C53.7447 4.05481 53.3775 4.20325 52.94 4.20325H47.7135V13.6954C47.6197 14.6329 47.1041 15.1407 46.1666 15.2189C45.7291 15.2189 45.3463 15.0782 45.0182 14.797C44.7057 14.5001 44.5494 14.1329 44.5494 13.6954V4.20325H39.2994C38.8619 4.20325 38.4947 4.047 38.1979 3.7345C37.8854 3.43762 37.7291 3.07043 37.7291 2.63293ZM62.9647 11.2579C62.9647 10.8204 63.1132 10.4532 63.41 10.1564C63.7225 9.84387 64.0975 9.68762 64.535 9.68762H68.121L67.5116 7.95325C67.2616 7.31262 67.0116 6.71106 66.7616 6.14856C66.5272 5.57043 66.2538 5.047 65.9413 4.57825C65.66 4.1095 65.3397 3.8595 64.9804 3.82825C64.6054 3.8595 64.2694 4.1095 63.9725 4.57825C63.6757 5.047 63.4022 5.57043 63.1522 6.14856C62.9179 6.71106 62.6757 7.31262 62.4257 7.95325L60.1991 14.047C60.0429 14.3751 59.8397 14.6486 59.5897 14.8673C59.3554 15.0704 58.996 15.172 58.5116 15.172C58.0585 15.172 57.6835 15.0157 57.3866 14.7032C57.1054 14.3907 56.9804 14.0157 57.0116 13.5782C57.0272 13.3751 57.0741 13.1876 57.1522 13.0157L59.7304 6.3595C60.4491 4.6095 61.1679 3.19543 61.8866 2.11731C62.5897 1.05481 63.621 0.515747 64.9804 0.500122C66.3241 0.515747 67.3475 1.05481 68.0507 2.11731C68.7694 3.16418 69.4882 4.57825 70.2069 6.3595L72.785 13.0157C72.8632 13.1876 72.91 13.3751 72.9257 13.5782C72.9569 14.0157 72.8241 14.3907 72.5272 14.7032C72.246 15.0157 71.8788 15.172 71.4257 15.172C70.91 15.172 70.5272 15.0704 70.2772 14.8673C70.0429 14.6486 69.8475 14.3751 69.6913 14.047L69.246 12.8282H64.535C64.0975 12.8282 63.7304 12.672 63.4335 12.3595C63.121 12.0626 62.9647 11.6954 62.9647 11.2579ZM77.6066 15.172C77.1847 15.1564 76.8254 15.0079 76.5285 14.7267C76.2316 14.4298 76.0754 14.0704 76.0597 13.6486V7.81262C76.0754 6.70325 76.2316 5.65637 76.5285 4.672C76.841 3.68762 77.3488 2.8595 78.0519 2.18762C78.7707 1.50012 79.6769 1.12512 80.7707 1.06262H89.8176C90.2394 1.07825 90.591 1.2345 90.8722 1.53137C91.1691 1.81262 91.3254 2.16418 91.341 2.58606C91.341 3.02356 91.1926 3.39856 90.8957 3.71106C90.6144 4.02356 90.2551 4.18762 89.8176 4.20325H81.5676C80.9738 4.2345 80.4816 4.46106 80.091 4.88293C79.7004 5.30481 79.4504 5.78918 79.341 6.33606C79.2472 6.86731 79.2082 7.45325 79.2238 8.09387V13.6486C79.2082 14.0861 79.0441 14.4532 78.7316 14.7501C78.4191 15.0314 78.0441 15.172 77.6066 15.172ZM80.3254 9.00793C80.3254 8.57043 80.4816 8.20325 80.7941 7.90637C81.091 7.59387 81.4582 7.43762 81.8957 7.43762H89.8176C90.2551 7.43762 90.6222 7.59387 90.9191 7.90637C91.2316 8.20325 91.3879 8.57043 91.3879 9.00793C91.3879 9.44543 91.2394 9.82043 90.9426 10.1329C90.6301 10.4298 90.2551 10.5782 89.8176 10.5782H81.8957C81.4582 10.5782 81.0832 10.4298 80.7707 10.1329C80.4738 9.82043 80.3254 9.44543 80.3254 9.00793ZM99.5141 11.2579C99.5141 10.8204 99.6626 10.4532 99.9594 10.1564C100.272 9.84387 100.647 9.68762 101.084 9.68762H104.67L104.061 7.95325C103.811 7.31262 103.561 6.71106 103.311 6.14856C103.077 5.57043 102.803 5.047 102.491 4.57825C102.209 4.1095 101.889 3.8595 101.53 3.82825C101.155 3.8595 100.819 4.1095 100.522 4.57825C100.225 5.047 99.9516 5.57043 99.7016 6.14856C99.4672 6.71106 99.2251 7.31262 98.9751 7.95325L96.7485 14.047C96.5922 14.3751 96.3891 14.6486 96.1391 14.8673C95.9047 15.0704 95.5454 15.172 95.061 15.172C94.6079 15.172 94.2329 15.0157 93.936 14.7032C93.6547 14.3907 93.5297 14.0157 93.561 13.5782C93.5766 13.3751 93.6235 13.1876 93.7016 13.0157L96.2797 6.3595C96.9985 4.6095 97.7172 3.19543 98.436 2.11731C99.1391 1.05481 100.17 0.515747 101.53 0.500122C102.873 0.515747 103.897 1.05481 104.6 2.11731C105.319 3.16418 106.038 4.57825 106.756 6.3595L109.334 13.0157C109.413 13.1876 109.459 13.3751 109.475 13.5782C109.506 14.0157 109.373 14.3907 109.077 14.7032C108.795 15.0157 108.428 15.172 107.975 15.172C107.459 15.172 107.077 15.0704 106.827 14.8673C106.592 14.6486 106.397 14.3751 106.241 14.047L105.795 12.8282H101.084C100.647 12.8282 100.28 12.672 99.9829 12.3595C99.6704 12.0626 99.5141 11.6954 99.5141 11.2579Z"/>
</mask>
<path d="M7.95317 15.4298C7.14067 15.4298 6.33599 15.3361 5.53911 15.1486C4.75786 14.9611 4.00786 14.6876 3.28911 14.3282C2.57036 13.9532 1.93755 13.4611 1.39067 12.8517C0.8438 12.2423 0.546925 11.5157 0.50005 10.672V9.68762V2.21106C0.50005 1.77356 0.6563 1.41418 0.9688 1.13293C1.29692 0.83606 1.67974 0.687622 2.11724 0.687622C3.05474 0.765747 3.56255 1.27356 3.64067 2.21106V9.94543C3.67192 10.4298 3.85161 10.8361 4.17974 11.1642C4.52349 11.4767 4.89849 11.7267 5.30474 11.9142C5.72661 12.1017 6.1563 12.2423 6.5938 12.3361C7.04692 12.4298 7.50005 12.4767 7.95317 12.4767C8.4063 12.4767 8.85161 12.4298 9.28911 12.3361C9.74224 12.2423 10.1719 12.1017 10.5782 11.9142C11 11.7267 11.375 11.4767 11.7032 11.1642C12.0469 10.8361 12.2344 10.4298 12.2657 9.94543V2.21106C12.2657 1.77356 12.4219 1.41418 12.7344 1.13293C13.0625 0.83606 13.4454 0.687622 13.8829 0.687622C14.8204 0.765747 15.336 1.27356 15.4297 2.21106V9.68762V10.672C15.3829 11.5157 15.0782 12.2423 14.5157 12.8517C13.9688 13.4611 13.336 13.9532 12.6172 14.3282C11.8985 14.6876 11.1407 14.9611 10.3438 15.1486C9.56255 15.3361 8.76567 15.4298 7.95317 15.4298ZM34.431 2.63293C34.431 3.07043 34.2747 3.43762 33.9622 3.7345C33.6654 4.047 33.2982 4.20325 32.8607 4.20325H23.4857C23.1888 4.21887 22.9388 4.28918 22.7357 4.41418C22.5482 4.52356 22.4075 4.65637 22.3138 4.81262C22.22 4.95325 22.1732 5.10168 22.1732 5.25793C22.1732 5.41418 22.22 5.57043 22.3138 5.72668C22.4075 5.86731 22.5482 6.00012 22.7357 6.12512C22.9388 6.2345 23.1888 6.297 23.4857 6.31262H30.1419C31.2357 6.34387 32.1341 6.60168 32.8372 7.08606C33.556 7.55481 34.0638 8.10168 34.3607 8.72668C34.6732 9.33606 34.8294 9.96106 34.8294 10.6017C34.8294 11.2267 34.6732 11.8517 34.3607 12.4767C34.0482 13.0861 33.5404 13.6329 32.8372 14.1173C32.1341 14.5861 31.2357 14.8204 30.1419 14.8204H30.0013C29.9075 14.8361 29.8138 14.8439 29.72 14.8439H20.8607C20.4232 14.8439 20.0482 14.6954 19.7357 14.3986C19.4388 14.0861 19.2904 13.7111 19.2904 13.2736C19.2904 12.8361 19.4466 12.4689 19.7591 12.172C20.056 11.8595 20.4232 11.7032 20.8607 11.7032H30.2825C30.5794 11.7189 30.8216 11.6642 31.0091 11.5392C31.2122 11.4142 31.3607 11.2736 31.4544 11.1173C31.5482 10.9454 31.595 10.7736 31.595 10.6017C31.595 10.4923 31.5482 10.3439 31.4544 10.1564C31.3607 9.95325 31.2122 9.78918 31.0091 9.66418C30.8216 9.53918 30.5794 9.46887 30.2825 9.45325H23.6263C22.5325 9.422 21.6263 9.172 20.9075 8.70325C20.2044 8.2345 19.6966 7.70325 19.3841 7.1095C19.0872 6.50012 18.9388 5.88293 18.9388 5.25793C18.9388 4.64856 19.095 4.047 19.4075 3.45325C19.72 2.84387 20.2279 2.30481 20.931 1.83606C21.6341 1.36731 22.5325 1.11731 23.6263 1.08606H23.7669C23.8607 1.07043 23.9544 1.06262 24.0482 1.06262H32.8607C33.2982 1.06262 33.6654 1.21887 33.9622 1.53137C34.2747 1.82825 34.431 2.19543 34.431 2.63293ZM37.7291 2.63293C37.7291 2.19543 37.8775 1.82825 38.1744 1.53137C38.4869 1.21887 38.8619 1.06262 39.2994 1.06262H52.94C53.3775 1.06262 53.7525 1.21106 54.065 1.50793C54.3619 1.82043 54.5104 2.19543 54.5104 2.63293C54.5104 3.07043 54.3541 3.44543 54.0416 3.75793C53.7447 4.05481 53.3775 4.20325 52.94 4.20325H47.7135V13.6954C47.6197 14.6329 47.1041 15.1407 46.1666 15.2189C45.7291 15.2189 45.3463 15.0782 45.0182 14.797C44.7057 14.5001 44.5494 14.1329 44.5494 13.6954V4.20325H39.2994C38.8619 4.20325 38.4947 4.047 38.1979 3.7345C37.8854 3.43762 37.7291 3.07043 37.7291 2.63293ZM62.9647 11.2579C62.9647 10.8204 63.1132 10.4532 63.41 10.1564C63.7225 9.84387 64.0975 9.68762 64.535 9.68762H68.121L67.5116 7.95325C67.2616 7.31262 67.0116 6.71106 66.7616 6.14856C66.5272 5.57043 66.2538 5.047 65.9413 4.57825C65.66 4.1095 65.3397 3.8595 64.9804 3.82825C64.6054 3.8595 64.2694 4.1095 63.9725 4.57825C63.6757 5.047 63.4022 5.57043 63.1522 6.14856C62.9179 6.71106 62.6757 7.31262 62.4257 7.95325L60.1991 14.047C60.0429 14.3751 59.8397 14.6486 59.5897 14.8673C59.3554 15.0704 58.996 15.172 58.5116 15.172C58.0585 15.172 57.6835 15.0157 57.3866 14.7032C57.1054 14.3907 56.9804 14.0157 57.0116 13.5782C57.0272 13.3751 57.0741 13.1876 57.1522 13.0157L59.7304 6.3595C60.4491 4.6095 61.1679 3.19543 61.8866 2.11731C62.5897 1.05481 63.621 0.515747 64.9804 0.500122C66.3241 0.515747 67.3475 1.05481 68.0507 2.11731C68.7694 3.16418 69.4882 4.57825 70.2069 6.3595L72.785 13.0157C72.8632 13.1876 72.91 13.3751 72.9257 13.5782C72.9569 14.0157 72.8241 14.3907 72.5272 14.7032C72.246 15.0157 71.8788 15.172 71.4257 15.172C70.91 15.172 70.5272 15.0704 70.2772 14.8673C70.0429 14.6486 69.8475 14.3751 69.6913 14.047L69.246 12.8282H64.535C64.0975 12.8282 63.7304 12.672 63.4335 12.3595C63.121 12.0626 62.9647 11.6954 62.9647 11.2579ZM77.6066 15.172C77.1847 15.1564 76.8254 15.0079 76.5285 14.7267C76.2316 14.4298 76.0754 14.0704 76.0597 13.6486V7.81262C76.0754 6.70325 76.2316 5.65637 76.5285 4.672C76.841 3.68762 77.3488 2.8595 78.0519 2.18762C78.7707 1.50012 79.6769 1.12512 80.7707 1.06262H89.8176C90.2394 1.07825 90.591 1.2345 90.8722 1.53137C91.1691 1.81262 91.3254 2.16418 91.341 2.58606C91.341 3.02356 91.1926 3.39856 90.8957 3.71106C90.6144 4.02356 90.2551 4.18762 89.8176 4.20325H81.5676C80.9738 4.2345 80.4816 4.46106 80.091 4.88293C79.7004 5.30481 79.4504 5.78918 79.341 6.33606C79.2472 6.86731 79.2082 7.45325 79.2238 8.09387V13.6486C79.2082 14.0861 79.0441 14.4532 78.7316 14.7501C78.4191 15.0314 78.0441 15.172 77.6066 15.172ZM80.3254 9.00793C80.3254 8.57043 80.4816 8.20325 80.7941 7.90637C81.091 7.59387 81.4582 7.43762 81.8957 7.43762H89.8176C90.2551 7.43762 90.6222 7.59387 90.9191 7.90637C91.2316 8.20325 91.3879 8.57043 91.3879 9.00793C91.3879 9.44543 91.2394 9.82043 90.9426 10.1329C90.6301 10.4298 90.2551 10.5782 89.8176 10.5782H81.8957C81.4582 10.5782 81.0832 10.4298 80.7707 10.1329C80.4738 9.82043 80.3254 9.44543 80.3254 9.00793ZM99.5141 11.2579C99.5141 10.8204 99.6626 10.4532 99.9594 10.1564C100.272 9.84387 100.647 9.68762 101.084 9.68762H104.67L104.061 7.95325C103.811 7.31262 103.561 6.71106 103.311 6.14856C103.077 5.57043 102.803 5.047 102.491 4.57825C102.209 4.1095 101.889 3.8595 101.53 3.82825C101.155 3.8595 100.819 4.1095 100.522 4.57825C100.225 5.047 99.9516 5.57043 99.7016 6.14856C99.4672 6.71106 99.2251 7.31262 98.9751 7.95325L96.7485 14.047C96.5922 14.3751 96.3891 14.6486 96.1391 14.8673C95.9047 15.0704 95.5454 15.172 95.061 15.172C94.6079 15.172 94.2329 15.0157 93.936 14.7032C93.6547 14.3907 93.5297 14.0157 93.561 13.5782C93.5766 13.3751 93.6235 13.1876 93.7016 13.0157L96.2797 6.3595C96.9985 4.6095 97.7172 3.19543 98.436 2.11731C99.1391 1.05481 100.17 0.515747 101.53 0.500122C102.873 0.515747 103.897 1.05481 104.6 2.11731C105.319 3.16418 106.038 4.57825 106.756 6.3595L109.334 13.0157C109.413 13.1876 109.459 13.3751 109.475 13.5782C109.506 14.0157 109.373 14.3907 109.077 14.7032C108.795 15.0157 108.428 15.172 107.975 15.172C107.459 15.172 107.077 15.0704 106.827 14.8673C106.592 14.6486 106.397 14.3751 106.241 14.047L105.795 12.8282H101.084C100.647 12.8282 100.28 12.672 99.9829 12.3595C99.6704 12.0626 99.5141 11.6954 99.5141 11.2579Z" fill="white"/>
<path d="M5.53911 15.1486L5.42242 15.6348L5.42459 15.6353L5.53911 15.1486ZM3.28911 14.3282L3.05779 14.7716L3.06551 14.7755L3.28911 14.3282ZM0.50005 10.672H4.95911e-05V10.6859L0.000819206 10.6997L0.50005 10.672ZM0.9688 1.13293L1.30328 1.50458L1.30426 1.5037L0.9688 1.13293ZM2.11724 0.687622L2.15876 0.189349L2.13803 0.187622H2.11724V0.687622ZM3.64067 2.21106H4.14067V2.19026L4.13895 2.16954L3.64067 2.21106ZM3.64067 9.94543H3.14067V9.96155L3.14171 9.97762L3.64067 9.94543ZM4.17974 11.1642L3.82618 11.5177L3.8346 11.5262L3.8434 11.5342L4.17974 11.1642ZM5.30474 11.9142L5.09519 12.3682L5.10167 12.3711L5.30474 11.9142ZM6.5938 12.3361L6.48903 12.825L6.4925 12.8257L6.5938 12.3361ZM9.28911 12.3361L9.18781 11.8464L9.18435 11.8472L9.28911 12.3361ZM10.5782 11.9142L10.3751 11.4572L10.3686 11.4602L10.5782 11.9142ZM11.7032 11.1642L12.048 11.5263L12.0484 11.5259L11.7032 11.1642ZM12.2657 9.94543L12.7646 9.97762L12.7657 9.96155V9.94543H12.2657ZM12.7344 1.13293L13.0689 1.50458L13.0699 1.5037L12.7344 1.13293ZM13.8829 0.687622L13.9244 0.189349L13.9037 0.187622H13.8829V0.687622ZM15.4297 2.21106H15.9297V2.18612L15.9273 2.16131L15.4297 2.21106ZM15.4297 10.672L15.929 10.6997L15.9297 10.6859V10.672H15.4297ZM14.5157 12.8517L14.1482 12.5125L14.1436 12.5177L14.5157 12.8517ZM12.6172 14.3282L12.8409 14.7755L12.8485 14.7715L12.6172 14.3282ZM10.3438 15.1486L10.2293 14.6618L10.2271 14.6624L10.3438 15.1486ZM7.95317 15.4298V14.9298C7.17953 14.9298 6.41326 14.8406 5.65363 14.6619L5.53911 15.1486L5.42459 15.6353C6.25871 15.8315 7.10182 15.9298 7.95317 15.9298V15.4298ZM5.53911 15.1486L5.6558 14.6624C4.91156 14.4837 4.19744 14.2234 3.51272 13.881L3.28911 14.3282L3.06551 14.7755C3.81829 15.1519 4.60416 15.4384 5.42243 15.6348L5.53911 15.1486ZM3.28911 14.3282L3.5204 13.885C2.8553 13.5379 2.27006 13.083 1.7628 12.5177L1.39067 12.8517L1.01855 13.1856C1.60504 13.8391 2.28542 14.3685 3.05783 14.7715L3.28911 14.3282ZM1.39067 12.8517L1.7628 12.5177C1.29448 11.9959 1.04007 11.3784 0.99928 10.6443L0.50005 10.672L0.000819206 10.6997C0.0537839 11.6531 0.393116 12.4887 1.01855 13.1856L1.39067 12.8517ZM0.50005 10.672H1.00005V9.68762H0.50005H4.95911e-05V10.672H0.50005ZM0.50005 9.68762H1.00005V2.21106H0.50005H4.95911e-05V9.68762H0.50005ZM0.50005 2.21106H1.00005C1.00005 1.90877 1.1009 1.68673 1.30328 1.50458L0.9688 1.13293L0.634317 0.761288C0.2117 1.14164 4.95911e-05 1.63835 4.95911e-05 2.21106H0.50005ZM0.9688 1.13293L1.30426 1.5037C1.54161 1.28895 1.80527 1.18762 2.11724 1.18762V0.687622V0.187622C1.55421 0.187622 1.05224 0.383167 0.633343 0.762167L0.9688 1.13293ZM2.11724 0.687622L2.07571 1.18589C2.46368 1.21823 2.70038 1.33334 2.84767 1.48063C2.99496 1.62792 3.11007 1.86462 3.1424 2.25258L3.64067 2.21106L4.13895 2.16954C4.09315 1.62 3.9153 1.13404 3.55478 0.773522C3.19425 0.412999 2.7083 0.235144 2.15876 0.189349L2.11724 0.687622ZM3.64067 2.21106H3.14067V9.94543H3.64067H4.14067V2.21106H3.64067ZM3.64067 9.94543L3.14171 9.97762C3.18039 10.5771 3.40794 11.0995 3.82618 11.5177L4.17974 11.1642L4.53329 10.8106C4.29529 10.5726 4.16346 10.2825 4.13964 9.91324L3.64067 9.94543ZM4.17974 11.1642L3.8434 11.5342C4.22343 11.8796 4.6409 12.1585 5.09521 12.3682L5.30474 11.9142L5.51427 11.4602C5.15608 11.2949 4.82354 11.0737 4.51607 10.7942L4.17974 11.1642ZM5.30474 11.9142L5.10167 12.3711C5.55411 12.5722 6.01669 12.7237 6.48903 12.825L6.5938 12.3361L6.69856 11.8472C6.29591 11.7609 5.89911 11.6312 5.50781 11.4573L5.30474 11.9142ZM6.5938 12.3361L6.4925 12.8257C6.97824 12.9262 7.4653 12.9767 7.95317 12.9767V12.4767V11.9767C7.5348 11.9767 7.11561 11.9334 6.6951 11.8464L6.5938 12.3361ZM7.95317 12.4767V12.9767C8.44106 12.9767 8.92151 12.9262 9.39388 12.825L9.28911 12.3361L9.18435 11.8472C8.78172 11.9334 8.37154 11.9767 7.95317 11.9767V12.4767ZM9.28911 12.3361L9.39042 12.8257C9.87958 12.7245 10.3457 12.5722 10.7877 12.3682L10.5782 11.9142L10.3686 11.4602C9.99816 11.6312 9.60489 11.7601 9.18781 11.8464L9.28911 12.3361ZM10.5782 11.9142L10.7812 12.3711C11.2544 12.1608 11.6776 11.879 12.048 11.5263L11.7032 11.1642L11.3583 10.8021C11.0725 11.0744 10.7456 11.2926 10.3751 11.4573L10.5782 11.9142ZM11.7032 11.1642L12.0484 11.5259C12.4851 11.1091 12.7255 10.5843 12.7646 9.97762L12.2657 9.94543L11.7667 9.91324C11.7433 10.2754 11.6088 10.5631 11.3579 10.8025L11.7032 11.1642ZM12.2657 9.94543H12.7657V2.21106H12.2657H11.7657V9.94543H12.2657ZM12.2657 2.21106H12.7657C12.7657 1.90877 12.8665 1.68673 13.0689 1.50458L12.7344 1.13293L12.3999 0.761288C11.9773 1.14164 11.7657 1.63835 11.7657 2.21106H12.2657ZM12.7344 1.13293L13.0699 1.5037C13.3072 1.28895 13.5709 1.18762 13.8829 1.18762V0.687622V0.187622C13.3198 0.187622 12.8179 0.383167 12.399 0.762167L12.7344 1.13293ZM13.8829 0.687622L13.8413 1.18589C14.229 1.2182 14.4696 1.3334 14.6219 1.48332C14.7742 1.63332 14.8934 1.87265 14.9322 2.26081L15.4297 2.21106L15.9273 2.16131C15.8723 1.61197 15.6869 1.12865 15.3235 0.770833C14.9601 0.412937 14.4742 0.235167 13.9244 0.189349L13.8829 0.687622ZM15.4297 2.21106H14.9297V9.68762H15.4297H15.9297V2.21106H15.4297ZM15.4297 9.68762H14.9297V10.672H15.4297H15.9297V9.68762H15.4297ZM15.4297 10.672L14.9305 10.6443C14.8899 11.3745 14.6304 11.9903 14.1483 12.5125L14.5157 12.8517L14.8831 13.1908C15.526 12.4944 15.8758 11.657 15.929 10.6997L15.4297 10.672ZM14.5157 12.8517L14.1436 12.5177C13.6363 13.083 13.051 13.5379 12.386 13.885L12.6172 14.3282L12.8485 14.7715C13.6209 14.3685 14.3013 13.8391 14.8878 13.1856L14.5157 12.8517ZM12.6172 14.3282L12.3936 13.881C11.7102 14.2227 10.9891 14.4831 10.2293 14.6619L10.3438 15.1486L10.4583 15.6353C11.2923 15.439 12.0867 15.1525 12.8408 14.7755L12.6172 14.3282ZM10.3438 15.1486L10.2271 14.6624C9.48451 14.8406 8.72682 14.9298 7.95317 14.9298V15.4298V15.9298C8.80453 15.9298 9.64059 15.8315 10.4605 15.6348L10.3438 15.1486ZM33.9622 3.7345L33.6179 3.372L33.6086 3.38083L33.5997 3.39012L33.9622 3.7345ZM23.4857 4.20325V3.70325H23.4725L23.4594 3.70394L23.4857 4.20325ZM22.7357 4.41418L22.9877 4.84619L22.9977 4.84001L22.7357 4.41418ZM22.3138 4.81262L22.7298 5.08997L22.7364 5.08007L22.7425 5.06987L22.3138 4.81262ZM22.3138 5.72668L21.8851 5.98393L21.8912 5.99413L21.8978 6.00403L22.3138 5.72668ZM22.7357 6.12512L22.4583 6.54115L22.4779 6.5542L22.4986 6.56536L22.7357 6.12512ZM23.4857 6.31262L23.4594 6.81193L23.4725 6.81262H23.4857V6.31262ZM30.1419 6.31262L30.1562 5.81283L30.1491 5.81262H30.1419V6.31262ZM32.8372 7.08606L32.5535 7.49795L32.5641 7.50486L32.8372 7.08606ZM34.3607 8.72668L33.909 8.94121L33.9123 8.94808L33.9158 8.95484L34.3607 8.72668ZM34.3607 12.4767L34.8056 12.7049L34.8079 12.7003L34.3607 12.4767ZM32.8372 14.1173L33.1146 14.5334L33.1209 14.5291L32.8372 14.1173ZM30.0013 14.8204V14.3204H29.9599L29.9191 14.3272L30.0013 14.8204ZM19.7357 14.3986L19.3732 14.7429L19.382 14.7522L19.3913 14.7611L19.7357 14.3986ZM19.7591 12.172L20.1035 12.5345L20.1128 12.5257L20.1216 12.5164L19.7591 12.172ZM30.2825 11.7032L30.3088 11.2039L30.2957 11.2032H30.2825V11.7032ZM31.0091 11.5392L30.7471 11.1134L30.7393 11.1181L30.7318 11.1232L31.0091 11.5392ZM31.4544 11.1173L31.8832 11.3746L31.8885 11.3658L31.8934 11.3567L31.4544 11.1173ZM31.4544 10.1564L31.0004 10.3659L31.0037 10.373L31.0072 10.38L31.4544 10.1564ZM31.0091 9.66418L30.7318 10.0802L30.7393 10.0853L30.7471 10.09L31.0091 9.66418ZM30.2825 9.45325L30.3088 8.95394L30.2957 8.95325H30.2825V9.45325ZM23.6263 9.45325L23.612 9.95304L23.6192 9.95325H23.6263V9.45325ZM20.9075 8.70325L20.6302 9.11929L20.6344 9.12205L20.9075 8.70325ZM19.3841 7.1095L18.9346 7.32848L18.938 7.33548L18.9417 7.34237L19.3841 7.1095ZM19.4075 3.45325L19.85 3.68613L19.8525 3.68141L19.4075 3.45325ZM23.6263 1.08606V0.58606H23.6192L23.612 0.586264L23.6263 1.08606ZM23.7669 1.08606V1.58606H23.8083L23.8491 1.57926L23.7669 1.08606ZM33.9622 1.53137L33.5997 1.87575L33.6086 1.88504L33.6179 1.89387L33.9622 1.53137ZM34.431 2.63293H33.931C33.931 2.93571 33.8293 3.17111 33.6179 3.372L33.9622 3.7345L34.3066 4.097C34.7201 3.70413 34.931 3.20516 34.931 2.63293H34.431ZM33.9622 3.7345L33.5997 3.39012C33.3988 3.60158 33.1634 3.70325 32.8607 3.70325V4.20325V4.70325C33.4329 4.70325 33.9319 4.49241 34.3247 4.07887L33.9622 3.7345ZM32.8607 4.20325V3.70325H23.4857V4.20325V4.70325H32.8607V4.20325ZM23.4857 4.20325L23.4594 3.70394C23.0993 3.72289 22.7634 3.81001 22.4736 3.98836L22.7357 4.41418L22.9977 4.84001C23.1142 4.76836 23.2783 4.71485 23.512 4.70256L23.4857 4.20325ZM22.7357 4.41418L22.4837 3.9823C22.2374 4.12597 22.0297 4.31432 21.8851 4.55537L22.3138 4.81262L22.7425 5.06987C22.7854 4.99842 22.8589 4.92115 22.9876 4.84607L22.7357 4.41418ZM22.3138 4.81262L21.8978 4.53527C21.7539 4.75101 21.6732 4.99486 21.6732 5.25793H22.1732H22.6732C22.6732 5.20851 22.6862 5.15548 22.7298 5.08997L22.3138 4.81262ZM22.1732 5.25793H21.6732C21.6732 5.51894 21.7525 5.76306 21.8851 5.98393L22.3138 5.72668L22.7425 5.46944C22.6876 5.37781 22.6732 5.30943 22.6732 5.25793H22.1732ZM22.3138 5.72668L21.8978 6.00403C22.0381 6.21459 22.2332 6.39107 22.4583 6.54115L22.7357 6.12512L23.013 5.7091C22.8631 5.60917 22.777 5.52003 22.7298 5.44933L22.3138 5.72668ZM22.7357 6.12512L22.4986 6.56536C22.7827 6.71833 23.1093 6.7935 23.4594 6.81193L23.4857 6.31262L23.512 5.81331C23.2683 5.80049 23.0949 5.75066 22.9727 5.68489L22.7357 6.12512ZM23.4857 6.31262V6.81262H30.1419V6.31262V5.81262H23.4857V6.31262ZM30.1419 6.31262L30.1276 6.81242C31.1519 6.84168 31.9495 7.08164 32.5536 7.49781L32.8372 7.08606L33.1209 6.67431C32.3188 6.12173 31.3195 5.84606 30.1562 5.81283L30.1419 6.31262ZM32.8372 7.08606L32.5641 7.50486C33.2241 7.93531 33.6602 8.41734 33.909 8.94121L34.3607 8.72668L34.8123 8.51216C34.4674 7.78603 33.8878 7.17431 33.1104 6.66725L32.8372 7.08606ZM34.3607 8.72668L33.9158 8.95484C34.1946 9.49861 34.3294 10.0458 34.3294 10.6017H34.8294H35.3294C35.3294 9.87628 35.1517 9.17351 34.8056 8.49853L34.3607 8.72668ZM34.8294 10.6017H34.3294C34.3294 11.1403 34.1954 11.6892 33.9135 12.2531L34.3607 12.4767L34.8079 12.7003C35.151 12.0141 35.3294 11.3131 35.3294 10.6017H34.8294ZM34.3607 12.4767L33.9158 12.2485C33.6492 12.7683 33.2051 13.2567 32.5536 13.7056L32.8372 14.1173L33.1209 14.5291C33.8756 14.0092 34.4471 13.4038 34.8056 12.7048L34.3607 12.4767ZM32.8372 14.1173L32.5599 13.7013C31.9599 14.1012 31.1657 14.3204 30.1419 14.3204V14.8204V15.3204C31.3056 15.3204 32.3083 15.0709 33.1146 14.5333L32.8372 14.1173ZM30.1419 14.8204V14.3204H30.0013V14.8204V15.3204H30.1419V14.8204ZM30.0013 14.8204L29.9191 14.3272C29.8521 14.3384 29.7859 14.3439 29.72 14.3439V14.8439V15.3439C29.8417 15.3439 29.963 15.3337 30.0835 15.3136L30.0013 14.8204ZM29.72 14.8439V14.3439H20.8607V14.8439V15.3439H29.72V14.8439ZM20.8607 14.8439V14.3439C20.5492 14.3439 20.2981 14.2432 20.08 14.0361L19.7357 14.3986L19.3913 14.7611C19.7983 15.1477 20.2971 15.3439 20.8607 15.3439V14.8439ZM19.7357 14.3986L20.0982 14.0542C19.891 13.8362 19.7904 13.585 19.7904 13.2736H19.2904H18.7904C18.7904 13.8371 18.9866 14.336 19.3732 14.7429L19.7357 14.3986ZM19.2904 13.2736H19.7904C19.7904 12.9708 19.892 12.7354 20.1035 12.5345L19.7591 12.172L19.4147 11.8095C19.0012 12.2024 18.7904 12.7013 18.7904 13.2736H19.2904ZM19.7591 12.172L20.1216 12.5164C20.3225 12.3049 20.5579 12.2032 20.8607 12.2032V11.7032V11.2032C20.2884 11.2032 19.7895 11.4141 19.3966 11.8276L19.7591 12.172ZM20.8607 11.7032V12.2032H30.2825V11.7032V11.2032H20.8607V11.7032ZM30.2825 11.7032L30.2563 12.2026C30.6265 12.222 30.9845 12.1565 31.2865 11.9552L31.0091 11.5392L30.7318 11.1232C30.6587 11.1719 30.5324 11.2157 30.3088 11.2039L30.2825 11.7032ZM31.0091 11.5392L31.2712 11.965C31.5222 11.8105 31.7374 11.6175 31.8832 11.3746L31.4544 11.1173L31.0257 10.8601C30.9839 10.9296 30.9023 11.0179 30.7471 11.1134L31.0091 11.5392ZM31.4544 11.1173L31.8934 11.3567C32.0215 11.1218 32.095 10.8683 32.095 10.6017H31.595H31.095C31.095 10.6789 31.0748 10.7691 31.0155 10.8779L31.4544 11.1173ZM31.595 10.6017H32.095C32.095 10.372 32.0039 10.1372 31.9016 9.93277L31.4544 10.1564L31.0072 10.38C31.0461 10.4577 31.0698 10.5167 31.0831 10.5589C31.0971 10.6032 31.095 10.6146 31.095 10.6017H31.595ZM31.4544 10.1564L31.9084 9.94684C31.7706 9.64827 31.5523 9.41139 31.2712 9.23836L31.0091 9.66418L30.7471 10.09C30.8721 10.167 30.9507 10.2582 31.0004 10.3659L31.4544 10.1564ZM31.0091 9.66418L31.2865 9.24816C31.0041 9.05989 30.6675 8.97282 30.3088 8.95394L30.2825 9.45325L30.2563 9.95256C30.4913 9.96493 30.6392 10.0185 30.7318 10.0802L31.0091 9.66418ZM30.2825 9.45325V8.95325H23.6263V9.45325V9.95325H30.2825V9.45325ZM23.6263 9.45325L23.6406 8.95345C22.6139 8.92412 21.8037 8.69075 21.1807 8.28444L20.9075 8.70325L20.6344 9.12205C21.4489 9.65324 22.4512 9.91988 23.612 9.95304L23.6263 9.45325ZM20.9075 8.70325L21.1849 8.28722C20.5336 7.853 20.0914 7.37974 19.8266 6.87662L19.3841 7.1095L18.9417 7.34237C19.3019 8.02676 19.8753 8.616 20.6302 9.11927L20.9075 8.70325ZM19.3841 7.1095L19.8336 6.89051C19.5671 6.34348 19.4388 5.80078 19.4388 5.25793H18.9388H18.4388C18.4388 5.96509 18.6074 6.65676 18.9346 7.32848L19.3841 7.1095ZM18.9388 5.25793H19.4388C19.4388 4.73767 19.5714 4.21546 19.85 3.68612L19.4075 3.45325L18.9651 3.22037C18.6187 3.87853 18.4388 4.55945 18.4388 5.25793H18.9388ZM19.4075 3.45325L19.8525 3.68141C20.1179 3.16374 20.5597 2.68448 21.2083 2.25208L20.931 1.83606L20.6536 1.42003C19.896 1.92514 19.3222 2.52401 18.9626 3.22509L19.4075 3.45325ZM20.931 1.83606L21.2083 2.25208C21.8135 1.84867 22.6134 1.6152 23.6406 1.58586L23.6263 1.08606L23.612 0.586264C22.4517 0.619416 21.4548 0.885946 20.6536 1.42003L20.931 1.83606ZM23.6263 1.08606V1.58606H23.7669V1.08606V0.58606H23.6263V1.08606ZM23.7669 1.08606L23.8491 1.57926C23.9161 1.5681 23.9823 1.56262 24.0482 1.56262V1.06262V0.562622C23.9265 0.562622 23.8053 0.572773 23.6847 0.592863L23.7669 1.08606ZM24.0482 1.06262V1.56262H32.8607V1.06262V0.562622H24.0482V1.06262ZM32.8607 1.06262V1.56262C33.1634 1.56262 33.3988 1.66429 33.5997 1.87575L33.9622 1.53137L34.3247 1.187C33.9319 0.773458 33.4329 0.562622 32.8607 0.562622V1.06262ZM33.9622 1.53137L33.6179 1.89387C33.8293 2.09476 33.931 2.33016 33.931 2.63293H34.431H34.931C34.931 2.06071 34.7201 1.56174 34.3066 1.16887L33.9622 1.53137ZM54.065 1.50793L54.4275 1.16356L54.4187 1.15426L54.4094 1.14543L54.065 1.50793ZM47.7135 4.20325V3.70325H47.2135V4.20325H47.7135ZM47.7135 13.6954L48.211 13.7452L48.2135 13.7204V13.6954H47.7135ZM46.1666 15.2189V15.7189H46.1874L46.2081 15.7171L46.1666 15.2189ZM45.0182 14.797L44.6738 15.1595L44.6831 15.1683L44.6928 15.1766L45.0182 14.797ZM44.5494 4.20325H45.0494V3.70325H44.5494V4.20325ZM38.1979 3.7345L38.5604 3.39012L38.5515 3.38083L38.5422 3.372L38.1979 3.7345ZM37.7291 2.63293H38.2291C38.2291 2.32182 38.3292 2.08372 38.528 1.88493L38.1744 1.53137L37.8209 1.17782C37.4259 1.57277 37.2291 2.06905 37.2291 2.63293H37.7291ZM38.1744 1.53137L38.528 1.88493C38.7478 1.66512 38.996 1.56262 39.2994 1.56262V1.06262V0.562622C38.7278 0.562622 38.2261 0.772621 37.8209 1.17782L38.1744 1.53137ZM39.2994 1.06262V1.56262H52.94V1.06262V0.562622H39.2994V1.06262ZM52.94 1.06262V1.56262C53.2515 1.56262 53.5026 1.6633 53.7207 1.87043L54.065 1.50793L54.4094 1.14543C54.0025 0.758817 53.5036 0.562622 52.94 0.562622V1.06262ZM54.065 1.50793L53.7025 1.85231C53.9097 2.07034 54.0104 2.32147 54.0104 2.63293H54.5104H55.0104C55.0104 2.0694 54.8142 1.57053 54.4275 1.16356L54.065 1.50793ZM54.5104 2.63293H54.0104C54.0104 2.93632 53.9079 3.18458 53.6881 3.40438L54.0416 3.75793L54.3952 4.11149C54.8004 3.70629 55.0104 3.20455 55.0104 2.63293H54.5104ZM54.0416 3.75793L53.6881 3.40438C53.4893 3.60318 53.2512 3.70325 52.94 3.70325V4.20325V4.70325C53.5039 4.70325 54.0002 4.50644 54.3952 4.11149L54.0416 3.75793ZM52.94 4.20325V3.70325H47.7135V4.20325V4.70325H52.94V4.20325ZM47.7135 4.20325H47.2135V13.6954H47.7135H48.2135V4.20325H47.7135ZM47.7135 13.6954L47.216 13.6457C47.1772 14.0338 47.0579 14.2732 46.9056 14.4232C46.7534 14.5731 46.5128 14.6883 46.1251 14.7206L46.1666 15.2189L46.2081 15.7171C46.7579 15.6713 47.2439 15.4936 47.6073 15.1357C47.9706 14.7778 48.1561 14.2945 48.211 13.7452L47.7135 13.6954ZM46.1666 15.2189V14.7189C45.8468 14.7189 45.5799 14.6199 45.3436 14.4174L45.0182 14.797L44.6928 15.1766C45.1127 15.5366 45.6114 15.7189 46.1666 15.7189V15.2189ZM45.0182 14.797L45.3625 14.4345C45.1511 14.2336 45.0494 13.9982 45.0494 13.6954H44.5494H44.0494C44.0494 14.2677 44.2603 14.7666 44.6738 15.1595L45.0182 14.797ZM44.5494 13.6954H45.0494V4.20325H44.5494H44.0494V13.6954H44.5494ZM44.5494 4.20325V3.70325H39.2994V4.20325V4.70325H44.5494V4.20325ZM39.2994 4.20325V3.70325C38.9967 3.70325 38.7612 3.60158 38.5604 3.39012L38.1979 3.7345L37.8354 4.07887C38.2282 4.49241 38.7272 4.70325 39.2994 4.70325V4.20325ZM38.1979 3.7345L38.5422 3.372C38.3308 3.17111 38.2291 2.93571 38.2291 2.63293H37.7291H37.2291C37.2291 3.20516 37.4399 3.70413 37.8535 4.097L38.1979 3.7345ZM68.121 9.68762V10.1876H68.8266L68.5927 9.52188L68.121 9.68762ZM67.5116 7.95325L67.9833 7.7875L67.9805 7.77944L67.9774 7.77148L67.5116 7.95325ZM66.7616 6.14856L66.2982 6.33641L66.3013 6.34407L66.3047 6.35163L66.7616 6.14856ZM65.9413 4.57825L65.5126 4.83549L65.5187 4.8457L65.5253 4.8556L65.9413 4.57825ZM64.9804 3.82825L65.0237 3.33013L64.9813 3.32644L64.9388 3.32997L64.9804 3.82825ZM63.1522 6.14856L62.6933 5.95009L62.6907 5.95625L63.1522 6.14856ZM62.4257 7.95325L61.9598 7.77143L61.956 7.78165L62.4257 7.95325ZM60.1991 14.047L60.6505 14.262L60.6607 14.2407L60.6687 14.2186L60.1991 14.047ZM59.5897 14.8673L59.9172 15.2452L59.919 15.2436L59.5897 14.8673ZM57.3866 14.7032L57.0148 15.0379L57.0241 15.0476L57.3866 14.7032ZM57.0116 13.5782L56.5131 13.5399L56.5129 13.5426L57.0116 13.5782ZM57.1522 13.0157L57.6074 13.2226L57.6133 13.2097L57.6185 13.1963L57.1522 13.0157ZM59.7304 6.3595L59.2678 6.1695L59.2641 6.17891L59.7304 6.3595ZM61.8866 2.11731L62.3026 2.39466L62.3036 2.39324L61.8866 2.11731ZM64.9804 0.500122L64.9862 2.24113e-05L64.9746 0.000154972L64.9804 0.500122ZM68.0507 2.11731L67.6336 2.39328L67.6385 2.40031L68.0507 2.11731ZM70.2069 6.3595L70.6732 6.17889L70.6706 6.1724L70.2069 6.3595ZM72.785 13.0157L72.3188 13.1963L72.324 13.2097L72.3299 13.2226L72.785 13.0157ZM72.9257 13.5782L73.4244 13.5426L73.4242 13.5399L72.9257 13.5782ZM72.5272 14.7032L72.1646 14.3587L72.1556 14.3688L72.5272 14.7032ZM70.2772 14.8673L69.9361 15.2328L69.9486 15.2445L69.9619 15.2554L70.2772 14.8673ZM69.6913 14.047L69.2217 14.2186L69.2297 14.2407L69.2399 14.262L69.6913 14.047ZM69.246 12.8282L69.7156 12.6567L69.5956 12.3282H69.246V12.8282ZM63.4335 12.3595L63.796 12.0151L63.7872 12.0058L63.7779 11.997L63.4335 12.3595ZM62.9647 11.2579H63.4647C63.4647 10.9468 63.5648 10.7087 63.7636 10.5099L63.41 10.1564L63.0565 9.80282C62.6615 10.1978 62.4647 10.694 62.4647 11.2579H62.9647ZM63.41 10.1564L63.7636 10.5099C63.9834 10.2901 64.2317 10.1876 64.535 10.1876V9.68762V9.18762C63.9634 9.18762 63.4617 9.39762 63.0565 9.80282L63.41 10.1564ZM64.535 9.68762V10.1876H68.121V9.68762V9.18762H64.535V9.68762ZM68.121 9.68762L68.5927 9.52188L67.9833 7.7875L67.5116 7.95325L67.0399 8.11899L67.6493 9.85336L68.121 9.68762ZM67.5116 7.95325L67.9774 7.77148C67.7249 7.1245 67.472 6.51578 67.2185 5.94549L66.7616 6.14856L66.3047 6.35163C66.5512 6.90634 66.7983 7.50074 67.0458 8.13502L67.5116 7.95325ZM66.7616 6.14856L67.225 5.96071C66.9792 5.35452 66.6905 4.80062 66.3573 4.3009L65.9413 4.57825L65.5253 4.8556C65.8171 5.29338 66.0752 5.78634 66.2982 6.33641L66.7616 6.14856ZM65.9413 4.57825L66.37 4.321C66.0505 3.78838 65.6123 3.38131 65.0237 3.33013L64.9804 3.82825L64.937 4.32637C65.0672 4.33768 65.2696 4.43061 65.5126 4.83549L65.9413 4.57825ZM64.9804 3.82825L64.9388 3.32997C64.344 3.37954 63.8894 3.77507 63.5501 4.31072L63.9725 4.57825L64.395 4.84577C64.6495 4.44392 64.8667 4.33945 65.0219 4.32652L64.9804 3.82825ZM63.9725 4.57825L63.5501 4.31072C63.2376 4.80422 62.9523 5.35118 62.6933 5.9501L63.1522 6.14856L63.6112 6.34702C63.8522 5.78969 64.1138 5.28977 64.395 4.84577L63.9725 4.57825ZM63.1522 6.14856L62.6907 5.95625C62.4547 6.52266 62.2111 7.12776 61.9599 7.77148L62.4257 7.95325L62.8915 8.13502C63.1403 7.49748 63.381 6.89946 63.6138 6.34087L63.1522 6.14856ZM62.4257 7.95325L61.956 7.78165L59.7295 13.8754L60.1991 14.047L60.6687 14.2186L62.8953 8.12484L62.4257 7.95325ZM60.1991 14.047L59.7477 13.832C59.618 14.1044 59.4545 14.3212 59.2605 14.491L59.5897 14.8673L59.919 15.2436C60.2249 14.9759 60.4678 14.6458 60.6505 14.262L60.1991 14.047ZM59.5897 14.8673L59.2623 14.4895C59.1578 14.58 58.94 14.672 58.5116 14.672V15.172V15.672C59.0519 15.672 59.5529 15.5609 59.9172 15.2452L59.5897 14.8673ZM58.5116 15.172V14.672C58.1877 14.672 57.9463 14.5664 57.7491 14.3589L57.3866 14.7032L57.0241 15.0476C57.4207 15.4651 57.9293 15.672 58.5116 15.672V15.172ZM57.3866 14.7032L57.7583 14.3688C57.5722 14.162 57.4883 13.9224 57.5103 13.6139L57.0116 13.5782L56.5129 13.5426C56.4724 14.1091 56.6385 14.6195 57.015 15.0377L57.3866 14.7032ZM57.0116 13.5782L57.5101 13.6166C57.5216 13.4671 57.5553 13.3372 57.6074 13.2226L57.1522 13.0157L56.6971 12.8088C56.5929 13.038 56.5328 13.2831 56.5131 13.5399L57.0116 13.5782ZM57.1522 13.0157L57.6185 13.1963L60.1966 6.54009L59.7304 6.3595L59.2641 6.17891L56.686 12.8352L57.1522 13.0157ZM59.7304 6.3595L60.1929 6.54946C60.9042 4.81745 61.6085 3.43587 62.3026 2.39466L61.8866 2.11731L61.4706 1.83996C60.7272 2.955 59.994 4.40155 59.2679 6.16954L59.7304 6.3595ZM61.8866 2.11731L62.3036 2.39324C62.9082 1.4796 63.7793 1.01396 64.9861 1.00009L64.9804 0.500122L64.9746 0.000154972C63.4627 0.0175338 62.2713 0.630023 61.4696 1.84138L61.8866 2.11731ZM64.9804 0.500122L64.9745 1.00009C66.1634 1.01391 67.0278 1.47771 67.6337 2.39324L68.0507 2.11731L68.4676 1.84138C67.6673 0.631912 66.4848 0.0175824 64.9862 0.000155926L64.9804 0.500122ZM68.0507 2.11731L67.6385 2.40031C68.329 3.4061 69.0319 4.78378 69.7432 6.54659L70.2069 6.3595L70.6706 6.1724C69.9444 4.37271 69.2098 2.92227 68.4629 1.83431L68.0507 2.11731ZM70.2069 6.3595L69.7407 6.54009L72.3188 13.1963L72.785 13.0157L73.2513 12.8352L70.6732 6.17891L70.2069 6.3595ZM72.785 13.0157L72.3299 13.2226C72.382 13.3372 72.4156 13.4671 72.4271 13.6166L72.9257 13.5782L73.4242 13.5399C73.4044 13.2831 73.3444 13.038 73.2402 12.8088L72.785 13.0157ZM72.9257 13.5782L72.4269 13.6139C72.4484 13.914 72.3629 14.1503 72.1647 14.3589L72.5272 14.7032L72.8897 15.0476C73.2853 14.6312 73.4655 14.1175 73.4244 13.5426L72.9257 13.5782ZM72.5272 14.7032L72.1556 14.3688C71.9771 14.567 71.7495 14.672 71.4257 14.672V15.172V15.672C72.0081 15.672 72.5148 15.4645 72.8989 15.0377L72.5272 14.7032ZM71.4257 15.172V14.672C70.9604 14.672 70.7137 14.5777 70.5925 14.4793L70.2772 14.8673L69.9619 15.2554C70.3408 15.5632 70.8597 15.672 71.4257 15.672V15.172ZM70.2772 14.8673L70.6184 14.5018C70.4356 14.3312 70.2756 14.111 70.1427 13.832L69.6913 14.047L69.2399 14.262C69.4195 14.6392 69.6501 14.9659 69.9361 15.2328L70.2772 14.8673ZM69.6913 14.047L70.1609 13.8754L69.7156 12.6567L69.246 12.8282L68.7764 12.9998L69.2217 14.2186L69.6913 14.047ZM69.246 12.8282V12.3282H64.535V12.8282V13.3282H69.246V12.8282ZM64.535 12.8282V12.3282C64.2323 12.3282 63.9969 12.2266 63.796 12.0151L63.4335 12.3595L63.071 12.7039C63.4639 13.1174 63.9628 13.3282 64.535 13.3282V12.8282ZM63.4335 12.3595L63.7779 11.997C63.5664 11.7961 63.4647 11.5607 63.4647 11.2579H62.9647H62.4647C62.4647 11.8302 62.6756 12.3291 63.0891 12.722L63.4335 12.3595ZM77.6066 15.172L77.5881 15.6717L77.5974 15.672H77.6066V15.172ZM76.5285 14.7267L76.1748 15.0804L76.1846 15.0897L76.5285 14.7267ZM76.0597 13.6486H75.5597V13.6578L75.5601 13.6671L76.0597 13.6486ZM76.0597 7.81262L75.5597 7.80558V7.81262H76.0597ZM76.5285 4.672L76.0519 4.52069L76.0498 4.52763L76.5285 4.672ZM78.0519 2.18762L78.3974 2.54912L78.3975 2.54894L78.0519 2.18762ZM80.7707 1.06262V0.562622H80.7564L80.7421 0.563437L80.7707 1.06262ZM89.8176 1.06262L89.8361 0.562964L89.8268 0.562622H89.8176V1.06262ZM90.8722 1.53137L90.5093 1.87524L90.5186 1.88505L90.5284 1.89435L90.8722 1.53137ZM91.341 2.58606H91.841V2.5768L91.8406 2.56755L91.341 2.58606ZM90.8957 3.71106L90.533 3.36656L90.524 3.37658L90.8957 3.71106ZM89.8176 4.20325V4.70325H89.8265L89.8354 4.70293L89.8176 4.20325ZM81.5676 4.20325V3.70325H81.5544L81.5413 3.70394L81.5676 4.20325ZM79.341 6.33606L78.8506 6.23798L78.8486 6.24917L79.341 6.33606ZM79.2238 8.09387H79.7239L79.7237 8.08168L79.2238 8.09387ZM79.2238 13.6486L79.7235 13.6664L79.7238 13.6575V13.6486H79.2238ZM78.7316 14.7501L79.0662 15.1219L79.076 15.1126L78.7316 14.7501ZM80.7941 7.90637L81.1385 8.26887L81.1478 8.26004L81.1566 8.25075L80.7941 7.90637ZM90.9191 7.90637L90.5566 8.25075L90.5654 8.26004L90.5747 8.26887L90.9191 7.90637ZM90.9426 10.1329L91.2869 10.4954L91.2962 10.4866L91.3051 10.4773L90.9426 10.1329ZM80.7707 10.1329L80.4082 10.4773L80.417 10.4866L80.4263 10.4954L80.7707 10.1329ZM77.6066 15.172L77.6251 14.6723C77.3204 14.6611 77.0779 14.5584 76.8724 14.3637L76.5285 14.7267L76.1846 15.0897C76.5728 15.4574 77.0491 15.6517 77.5881 15.6717L77.6066 15.172ZM76.5285 14.7267L76.882 14.3731C76.675 14.166 76.5704 13.9266 76.5594 13.6301L76.0597 13.6486L75.5601 13.6671C75.5803 14.2143 75.7883 14.6936 76.1749 15.0802L76.5285 14.7267ZM76.0597 13.6486H76.5597V7.81262H76.0597H75.5597V13.6486H76.0597ZM76.0597 7.81262L76.5597 7.81966C76.5747 6.75317 76.7248 5.7528 77.0072 4.81637L76.5285 4.672L76.0498 4.52763C75.7384 5.55994 75.576 6.65333 75.5598 7.80558L76.0597 7.81262ZM76.5285 4.672L77.0051 4.82329C77.2938 3.91376 77.7587 3.15944 78.3974 2.54912L78.0519 2.18762L77.7065 1.82613C76.9389 2.55956 76.3882 3.46149 76.0519 4.52071L76.5285 4.672ZM78.0519 2.18762L78.3975 2.54894C79.0214 1.95217 79.8113 1.61826 80.7992 1.56181L80.7707 1.06262L80.7421 0.563437C79.5426 0.631982 78.5199 1.04807 77.7063 1.8263L78.0519 2.18762ZM80.7707 1.06262V1.56262H89.8176V1.06262V0.562622H80.7707V1.06262ZM89.8176 1.06262L89.799 1.56228C90.0948 1.57324 90.3212 1.67675 90.5093 1.87524L90.8722 1.53137L91.2352 1.1875C90.8608 0.792246 90.384 0.583259 89.8361 0.562964L89.8176 1.06262ZM90.8722 1.53137L90.5284 1.89435C90.7269 2.0824 90.8304 2.30877 90.8413 2.60457L91.341 2.58606L91.8406 2.56755C91.8204 2.0196 91.6114 1.54285 91.2161 1.1684L90.8722 1.53137ZM91.341 2.58606H90.841C90.841 2.89753 90.7403 3.14865 90.5332 3.36668L90.8957 3.71106L91.2582 4.05543C91.6448 3.64847 91.841 3.14959 91.841 2.58606H91.341ZM90.8957 3.71106L90.524 3.37658C90.3376 3.58377 90.108 3.69255 89.7997 3.70357L89.8176 4.20325L89.8354 4.70293C90.4021 4.68269 90.8913 4.46335 91.2673 4.04554L90.8957 3.71106ZM89.8176 4.20325V3.70325H81.5676V4.20325V4.70325H89.8176V4.20325ZM81.5676 4.20325L81.5413 3.70394C80.8225 3.74177 80.2065 4.02228 79.7241 4.54323L80.091 4.88293L80.4579 5.22264C80.7568 4.89984 81.1251 4.72722 81.5938 4.70256L81.5676 4.20325ZM80.091 4.88293L79.7241 4.54323C79.2729 5.03054 78.9787 5.59785 78.8507 6.238L79.341 6.33606L79.8313 6.43412C79.922 5.98052 80.1278 5.57908 80.4579 5.22264L80.091 4.88293ZM79.341 6.33606L78.8486 6.24917C78.7481 6.81853 78.7077 7.43824 78.7239 8.10606L79.2238 8.09387L79.7237 8.08168C79.7087 7.46826 79.7464 6.91609 79.8334 6.42295L79.341 6.33606ZM79.2238 8.09387H78.7238V13.6486H79.2238H79.7238V8.09387H79.2238ZM79.2238 13.6486L78.7241 13.6307C78.7131 13.9397 78.6032 14.1824 78.3872 14.3876L78.7316 14.7501L79.076 15.1126C79.485 14.724 79.7033 14.2324 79.7235 13.6664L79.2238 13.6486ZM78.7316 14.7501L78.3971 14.3785C78.1805 14.5735 77.9261 14.672 77.6066 14.672V15.172V15.672C78.1621 15.672 78.6578 15.4893 79.0661 15.1218L78.7316 14.7501ZM80.3254 9.00793H80.8254C80.8254 8.70516 80.927 8.46976 81.1385 8.26887L80.7941 7.90637L80.4497 7.54387C80.0362 7.93674 79.8254 8.43571 79.8254 9.00793H80.3254ZM80.7941 7.90637L81.1566 8.25075C81.3575 8.03929 81.5929 7.93762 81.8957 7.93762V7.43762V6.93762C81.3234 6.93762 80.8245 7.14846 80.4316 7.562L80.7941 7.90637ZM81.8957 7.43762V7.93762H89.8176V7.43762V6.93762H81.8957V7.43762ZM89.8176 7.43762V7.93762C90.1203 7.93762 90.3557 8.03929 90.5566 8.25075L90.9191 7.90637L91.2816 7.562C90.8887 7.14846 90.3898 6.93762 89.8176 6.93762V7.43762ZM90.9191 7.90637L90.5747 8.26887C90.7862 8.46976 90.8879 8.70516 90.8879 9.00793H91.3879H91.8879C91.8879 8.43571 91.677 7.93674 91.2635 7.54387L90.9191 7.90637ZM91.3879 9.00793H90.8879C90.8879 9.3194 90.7872 9.57053 90.58 9.78856L90.9426 10.1329L91.3051 10.4773C91.6917 10.0703 91.8879 9.57147 91.8879 9.00793H91.3879ZM90.9426 10.1329L90.5982 9.77043C90.3801 9.97757 90.129 10.0782 89.8176 10.0782V10.5782V11.0782C90.3811 11.0782 90.88 10.8821 91.2869 10.4954L90.9426 10.1329ZM89.8176 10.5782V10.0782H81.8957V10.5782V11.0782H89.8176V10.5782ZM81.8957 10.5782V10.0782C81.5842 10.0782 81.3331 9.97757 81.1151 9.77043L80.7707 10.1329L80.4263 10.4954C80.8333 10.8821 81.3321 11.0782 81.8957 11.0782V10.5782ZM80.7707 10.1329L81.1332 9.78856C80.926 9.57053 80.8254 9.3194 80.8254 9.00793H80.3254H79.8254C79.8254 9.57147 80.0216 10.0703 80.4082 10.4773L80.7707 10.1329ZM104.67 9.68762V10.1876H105.376L105.142 9.52188L104.67 9.68762ZM104.061 7.95325L104.533 7.7875L104.53 7.77944L104.527 7.77148L104.061 7.95325ZM103.311 6.14856L102.848 6.33641L102.851 6.34407L102.854 6.35163L103.311 6.14856ZM102.491 4.57825L102.062 4.83549L102.068 4.8457L102.075 4.8556L102.491 4.57825ZM101.53 3.82825L101.573 3.33013L101.531 3.32644L101.488 3.32997L101.53 3.82825ZM99.7016 6.14856L99.2426 5.95009L99.2401 5.95625L99.7016 6.14856ZM98.9751 7.95325L98.5092 7.77143L98.5054 7.78165L98.9751 7.95325ZM96.7485 14.047L97.1999 14.262L97.21 14.2407L97.2181 14.2186L96.7485 14.047ZM96.1391 14.8673L96.4666 15.2452L96.4684 15.2436L96.1391 14.8673ZM93.936 14.7032L93.5642 15.0379L93.5735 15.0476L93.936 14.7032ZM93.561 13.5782L93.0625 13.5399L93.0623 13.5426L93.561 13.5782ZM93.7016 13.0157L94.1568 13.2226L94.1627 13.2097L94.1679 13.1963L93.7016 13.0157ZM96.2797 6.3595L95.8171 6.1695L95.8135 6.17891L96.2797 6.3595ZM98.436 2.11731L98.852 2.39466L98.853 2.39324L98.436 2.11731ZM101.53 0.500122L101.536 2.24113e-05L101.524 0.000154972L101.53 0.500122ZM104.6 2.11731L104.183 2.39328L104.188 2.40031L104.6 2.11731ZM106.756 6.3595L107.223 6.17889L107.22 6.1724L106.756 6.3595ZM109.334 13.0157L108.868 13.1963L108.873 13.2097L108.879 13.2226L109.334 13.0157ZM109.475 13.5782L109.974 13.5426L109.974 13.5399L109.475 13.5782ZM109.077 14.7032L108.714 14.3587L108.705 14.3688L109.077 14.7032ZM106.827 14.8673L106.485 15.2328L106.498 15.2445L106.511 15.2554L106.827 14.8673ZM106.241 14.047L105.771 14.2186L105.779 14.2407L105.789 14.262L106.241 14.047ZM105.795 12.8282L106.265 12.6567L106.145 12.3282H105.795V12.8282ZM99.9829 12.3595L100.345 12.0151L100.337 12.0058L100.327 11.997L99.9829 12.3595ZM99.5141 11.2579H100.014C100.014 10.9468 100.114 10.7087 100.313 10.5099L99.9594 10.1564L99.6059 9.80282C99.2109 10.1978 99.0141 10.694 99.0141 11.2579H99.5141ZM99.9594 10.1564L100.313 10.5099C100.533 10.2901 100.781 10.1876 101.084 10.1876V9.68762V9.18762C100.513 9.18762 100.011 9.39762 99.6059 9.80282L99.9594 10.1564ZM101.084 9.68762V10.1876H104.67V9.68762V9.18762H101.084V9.68762ZM104.67 9.68762L105.142 9.52188L104.533 7.7875L104.061 7.95325L103.589 8.11899L104.199 9.85336L104.67 9.68762ZM104.061 7.95325L104.527 7.77148C104.274 7.1245 104.021 6.51578 103.768 5.94549L103.311 6.14856L102.854 6.35163C103.101 6.90634 103.348 7.50074 103.595 8.13502L104.061 7.95325ZM103.311 6.14856L103.774 5.96071C103.529 5.35452 103.24 4.80062 102.907 4.3009L102.491 4.57825L102.075 4.8556C102.367 5.29338 102.625 5.78634 102.848 6.33641L103.311 6.14856ZM102.491 4.57825L102.919 4.321C102.6 3.78838 102.162 3.38131 101.573 3.33013L101.53 3.82825L101.486 4.32637C101.617 4.33768 101.819 4.43061 102.062 4.83549L102.491 4.57825ZM101.53 3.82825L101.488 3.32997C100.893 3.37954 100.439 3.77507 100.1 4.31072L100.522 4.57825L100.944 4.84577C101.199 4.44392 101.416 4.33945 101.571 4.32652L101.53 3.82825ZM100.522 4.57825L100.1 4.31072C99.787 4.80422 99.5017 5.35118 99.2427 5.9501L99.7016 6.14856L100.161 6.34702C100.402 5.78969 100.663 5.28977 100.944 4.84577L100.522 4.57825ZM99.7016 6.14856L99.2401 5.95625C99.0041 6.52266 98.7605 7.12776 98.5093 7.77148L98.9751 7.95325L99.4408 8.13502C99.6896 7.49748 99.9304 6.89946 100.163 6.34087L99.7016 6.14856ZM98.9751 7.95325L98.5054 7.78165L96.2789 13.8754L96.7485 14.047L97.2181 14.2186L99.4447 8.12484L98.9751 7.95325ZM96.7485 14.047L96.2971 13.832C96.1673 14.1044 96.0039 14.3212 95.8099 14.491L96.1391 14.8673L96.4684 15.2436C96.7743 14.9759 97.0171 14.6458 97.1999 14.262L96.7485 14.047ZM96.1391 14.8673L95.8116 14.4895C95.7072 14.58 95.4894 14.672 95.061 14.672V15.172V15.672C95.6013 15.672 96.1023 15.5609 96.4666 15.2452L96.1391 14.8673ZM95.061 15.172V14.672C94.737 14.672 94.4957 14.5664 94.2985 14.3589L93.936 14.7032L93.5735 15.0476C93.9701 15.4651 94.4787 15.672 95.061 15.672V15.172ZM93.936 14.7032L94.3076 14.3688C94.1216 14.162 94.0377 13.9224 94.0597 13.6139L93.561 13.5782L93.0623 13.5426C93.0218 14.1091 93.1879 14.6195 93.5643 15.0377L93.936 14.7032ZM93.561 13.5782L94.0595 13.6166C94.071 13.4671 94.1047 13.3372 94.1568 13.2226L93.7016 13.0157L93.2464 12.8088C93.1423 13.038 93.0822 13.2831 93.0625 13.5399L93.561 13.5782ZM93.7016 13.0157L94.1679 13.1963L96.746 6.54009L96.2797 6.3595L95.8135 6.17891L93.2354 12.8352L93.7016 13.0157ZM96.2797 6.3595L96.7422 6.54946C97.4536 4.81745 98.1579 3.43587 98.852 2.39466L98.436 2.11731L98.02 1.83996C97.2766 2.955 96.5434 4.40155 95.8172 6.16954L96.2797 6.3595ZM98.436 2.11731L98.853 2.39324C99.4576 1.4796 100.329 1.01396 101.535 1.00009L101.53 0.500122L101.524 0.000154972C100.012 0.0175338 98.8207 0.630023 98.019 1.84138L98.436 2.11731ZM101.53 0.500122L101.524 1.00009C102.713 1.01391 103.577 1.47771 104.183 2.39324L104.6 2.11731L105.017 1.84138C104.217 0.631912 103.034 0.0175824 101.536 0.000155926L101.53 0.500122ZM104.6 2.11731L104.188 2.40031C104.878 3.4061 105.581 4.78378 106.293 6.54659L106.756 6.3595L107.22 6.1724C106.494 4.37271 105.759 2.92227 105.012 1.83431L104.6 2.11731ZM106.756 6.3595L106.29 6.54009L108.868 13.1963L109.334 13.0157L109.801 12.8352L107.223 6.17891L106.756 6.3595ZM109.334 13.0157L108.879 13.2226C108.931 13.3372 108.965 13.4671 108.977 13.6166L109.475 13.5782L109.974 13.5399C109.954 13.2831 109.894 13.038 109.79 12.8088L109.334 13.0157ZM109.475 13.5782L108.976 13.6139C108.998 13.914 108.912 14.1503 108.714 14.3589L109.077 14.7032L109.439 15.0476C109.835 14.6312 110.015 14.1175 109.974 13.5426L109.475 13.5782ZM109.077 14.7032L108.705 14.3688C108.527 14.567 108.299 14.672 107.975 14.672V15.172V15.672C108.558 15.672 109.064 15.4645 109.448 15.0377L109.077 14.7032ZM107.975 15.172V14.672C107.51 14.672 107.263 14.5777 107.142 14.4793L106.827 14.8673L106.511 15.2554C106.89 15.5632 107.409 15.672 107.975 15.672V15.172ZM106.827 14.8673L107.168 14.5018C106.985 14.3312 106.825 14.111 106.692 13.832L106.241 14.047L105.789 14.262C105.969 14.6392 106.199 14.9659 106.485 15.2328L106.827 14.8673ZM106.241 14.047L106.71 13.8754L106.265 12.6567L105.795 12.8282L105.326 12.9998L105.771 14.2186L106.241 14.047ZM105.795 12.8282V12.3282H101.084V12.8282V13.3282H105.795V12.8282ZM101.084 12.8282V12.3282C100.782 12.3282 100.546 12.2266 100.345 12.0151L99.9829 12.3595L99.6204 12.7039C100.013 13.1174 100.512 13.3282 101.084 13.3282V12.8282ZM99.9829 12.3595L100.327 11.997C100.116 11.7961 100.014 11.5607 100.014 11.2579H99.5141H99.0141C99.0141 11.8302 99.225 12.3291 99.6385 12.722L99.9829 12.3595Z" fill="white" fill-opacity="0.9" mask="url(#path-1-outside-1_2072_21)"/>
</svg>
