<svg width="89" height="16" viewBox="0 0 89 16" fill="none" xmlns="http://www.w3.org/2000/svg">
<path d="M1.86713 0.507812C2.28901 0.523437 2.64838 0.679688 2.94526 0.976562C3.24213 1.25781 3.39838 1.60938 3.41401 2.03125V5.94531H11.0312V2.03125C11.0468 1.59375 11.2109 1.23438 11.5234 0.953125C11.8359 0.65625 12.2109 0.507812 12.6484 0.507812C13.0703 0.523437 13.4296 0.679688 13.7265 0.976562C14.0234 1.25781 14.1796 1.60938 14.1953 2.03125V13.5156C14.1015 14.4531 13.5859 14.9609 12.6484 15.0391C12.2109 15.0391 11.8281 14.8984 11.4999 14.6172C11.1874 14.3203 11.0312 13.9531 11.0312 13.5156V9.08594H3.41401V13.5156C3.32026 14.4531 2.80463 14.9609 1.86713 15.0391C1.42963 15.0391 1.04682 14.8984 0.718693 14.6172C0.406193 14.3203 0.249943 13.9531 0.249943 13.5156V2.03125C0.265568 1.59375 0.42963 1.23438 0.74213 0.953125C1.05463 0.65625 1.42963 0.507812 1.86713 0.507812ZM23.0949 11.0781C23.0949 10.6406 23.2434 10.2734 23.5403 9.97656C23.8528 9.66406 24.2278 9.50781 24.6653 9.50781H28.2512L27.6418 7.77344C27.3918 7.13281 27.1418 6.53125 26.8918 5.96875C26.6574 5.39062 26.384 4.86719 26.0715 4.39844C25.7903 3.92969 25.4699 3.67969 25.1106 3.64844C24.7356 3.67969 24.3996 3.92969 24.1028 4.39844C23.8059 4.86719 23.5324 5.39062 23.2824 5.96875C23.0481 6.53125 22.8059 7.13281 22.5559 7.77344L20.3293 13.8672C20.1731 14.1953 19.9699 14.4688 19.7199 14.6875C19.4856 14.8906 19.1262 14.9922 18.6418 14.9922C18.1887 14.9922 17.8137 14.8359 17.5168 14.5234C17.2356 14.2109 17.1106 13.8359 17.1418 13.3984C17.1574 13.1953 17.2043 13.0078 17.2824 12.8359L19.8606 6.17969C20.5793 4.42969 21.2981 3.01562 22.0168 1.9375C22.7199 0.875 23.7512 0.335937 25.1106 0.320312C26.4543 0.335937 27.4778 0.875 28.1809 1.9375C28.8996 2.98438 29.6184 4.39844 30.3371 6.17969L32.9153 12.8359C32.9934 13.0078 33.0403 13.1953 33.0559 13.3984C33.0871 13.8359 32.9543 14.2109 32.6574 14.5234C32.3762 14.8359 32.009 14.9922 31.5559 14.9922C31.0403 14.9922 30.6574 14.8906 30.4074 14.6875C30.1731 14.4688 29.9778 14.1953 29.8215 13.8672L29.3762 12.6484H24.6653C24.2278 12.6484 23.8606 12.4922 23.5637 12.1797C23.2512 11.8828 23.0949 11.5156 23.0949 11.0781ZM51.2837 2.45312C51.2837 2.89062 51.1274 3.25781 50.8149 3.55469C50.5181 3.86719 50.1509 4.02344 49.7134 4.02344H40.3384C40.0415 4.03906 39.7915 4.10938 39.5884 4.23438C39.4009 4.34375 39.2603 4.47656 39.1665 4.63281C39.0728 4.77344 39.0259 4.92188 39.0259 5.07812C39.0259 5.23438 39.0728 5.39062 39.1665 5.54688C39.2603 5.6875 39.4009 5.82031 39.5884 5.94531C39.7915 6.05469 40.0415 6.11719 40.3384 6.13281H46.9946C48.0884 6.16406 48.9868 6.42188 49.6899 6.90625C50.4087 7.375 50.9165 7.92188 51.2134 8.54688C51.5259 9.15625 51.6821 9.78125 51.6821 10.4219C51.6821 11.0469 51.5259 11.6719 51.2134 12.2969C50.9009 12.9062 50.3931 13.4531 49.6899 13.9375C48.9868 14.4062 48.0884 14.6406 46.9946 14.6406H46.854C46.7603 14.6562 46.6665 14.6641 46.5728 14.6641H37.7134C37.2759 14.6641 36.9009 14.5156 36.5884 14.2188C36.2915 13.9062 36.1431 13.5312 36.1431 13.0938C36.1431 12.6562 36.2993 12.2891 36.6118 11.9922C36.9087 11.6797 37.2759 11.5234 37.7134 11.5234H47.1353C47.4321 11.5391 47.6743 11.4844 47.8618 11.3594C48.0649 11.2344 48.2134 11.0938 48.3071 10.9375C48.4009 10.7656 48.4478 10.5938 48.4478 10.4219C48.4478 10.3125 48.4009 10.1641 48.3071 9.97656C48.2134 9.77344 48.0649 9.60938 47.8618 9.48438C47.6743 9.35938 47.4321 9.28906 47.1353 9.27344H40.479C39.3853 9.24219 38.479 8.99219 37.7603 8.52344C37.0571 8.05469 36.5493 7.52344 36.2368 6.92969C35.9399 6.32031 35.7915 5.70312 35.7915 5.07812C35.7915 4.46875 35.9478 3.86719 36.2603 3.27344C36.5728 2.66406 37.0806 2.125 37.7837 1.65625C38.4868 1.1875 39.3853 0.9375 40.479 0.90625H40.6196C40.7134 0.890625 40.8071 0.882812 40.9009 0.882812H49.7134C50.1509 0.882812 50.5181 1.03906 50.8149 1.35156C51.1274 1.64844 51.2837 2.01562 51.2837 2.45312ZM60.3006 11.0781C60.3006 10.6406 60.449 10.2734 60.7459 9.97656C61.0584 9.66406 61.4334 9.50781 61.8709 9.50781H65.4568L64.8474 7.77344C64.5974 7.13281 64.3474 6.53125 64.0974 5.96875C63.8631 5.39062 63.5896 4.86719 63.2771 4.39844C62.9959 3.92969 62.6756 3.67969 62.3162 3.64844C61.9412 3.67969 61.6053 3.92969 61.3084 4.39844C61.0115 4.86719 60.7381 5.39062 60.4881 5.96875C60.2537 6.53125 60.0115 7.13281 59.7615 7.77344L57.5349 13.8672C57.3787 14.1953 57.1756 14.4688 56.9256 14.6875C56.6912 14.8906 56.3318 14.9922 55.8474 14.9922C55.3943 14.9922 55.0193 14.8359 54.7224 14.5234C54.4412 14.2109 54.3162 13.8359 54.3474 13.3984C54.3631 13.1953 54.4099 13.0078 54.4881 12.8359L57.0662 6.17969C57.7849 4.42969 58.5037 3.01562 59.2224 1.9375C59.9256 0.875 60.9568 0.335937 62.3162 0.320312C63.6599 0.335937 64.6834 0.875 65.3865 1.9375C66.1053 2.98438 66.824 4.39844 67.5428 6.17969L70.1209 12.8359C70.199 13.0078 70.2459 13.1953 70.2615 13.3984C70.2928 13.8359 70.1599 14.2109 69.8631 14.5234C69.5818 14.8359 69.2146 14.9922 68.7615 14.9922C68.2459 14.9922 67.8631 14.8906 67.6131 14.6875C67.3787 14.4688 67.1834 14.1953 67.0271 13.8672L66.5818 12.6484H61.8709C61.4334 12.6484 61.0662 12.4922 60.7693 12.1797C60.4568 11.8828 60.3006 11.5156 60.3006 11.0781ZM80.8018 0.25C81.6143 0.25 82.4112 0.34375 83.1924 0.53125C83.9893 0.71875 84.7471 1 85.4659 1.375C86.1846 1.73438 86.8174 2.21875 87.3643 2.82812C87.9268 3.4375 88.2315 4.16406 88.2784 5.00781V5.99219V13.4688C88.1846 14.4062 87.669 14.9141 86.7315 14.9922C86.294 14.9922 85.9112 14.8516 85.5831 14.5703C85.2706 14.2734 85.1143 13.9062 85.1143 13.4688V5.73438C85.0831 5.25 84.8956 4.85156 84.5518 4.53906C84.2237 4.21094 83.8487 3.95312 83.4268 3.76562C83.0206 3.57812 82.5909 3.4375 82.1378 3.34375C81.7003 3.25 81.2549 3.20312 80.8018 3.20312C80.3487 3.20312 79.8956 3.25 79.4424 3.34375C79.0049 3.4375 78.5753 3.57812 78.1534 3.76562C77.7471 3.95312 77.3721 4.21094 77.0284 4.53906C76.7003 4.85156 76.5206 5.25 76.4893 5.73438V13.4688C76.4112 14.4062 75.9034 14.9141 74.9659 14.9922C74.5284 14.9922 74.1456 14.8516 73.8174 14.5703C73.5049 14.2734 73.3487 13.9062 73.3487 13.4688V5.99219V5.00781C73.3956 4.16406 73.6924 3.4375 74.2393 2.82812C74.7862 2.21875 75.419 1.73438 76.1378 1.375C76.8565 1 77.6065 0.71875 78.3878 0.53125C79.1846 0.34375 79.9893 0.25 80.8018 0.25Z" fill="url(#paint0_linear_2070_15)"/>
<path d="M1.86713 0.507812L1.87639 0.257812H1.86713V0.507812ZM2.94526 0.976562L2.76841 1.1534L2.77332 1.15805L2.94526 0.976562ZM3.41401 2.03125H3.66418L3.66383 2.022L3.41401 2.03125ZM3.41401 5.94531H3.16401V6.19531H3.41401V5.94531ZM11.0312 5.94531V6.19531H11.2812V5.94531H11.0312ZM11.0312 2.03125L10.7812 2.02232V2.03125H11.0312ZM11.5234 0.953125L11.6907 1.13902L11.6956 1.13438L11.5234 0.953125ZM12.6484 0.507812L12.6576 0.257812H12.6484V0.507812ZM13.7265 0.976562L13.5497 1.1534L13.5546 1.15805L13.7265 0.976562ZM14.1953 2.03125H14.4454L14.4451 2.022L14.1953 2.03125ZM14.1953 13.5156L14.444 13.5405L14.4453 13.5281V13.5156H14.1953ZM12.6484 15.0391V15.2891H12.6588L12.6691 15.2882L12.6484 15.0391ZM11.4999 14.6172L11.3275 14.7987L11.3372 14.807L11.4999 14.6172ZM11.0312 9.08594H11.2812V8.83594H11.0312V9.08594ZM3.41401 9.08594V8.83594H3.16401V9.08594H3.41401ZM3.41401 13.5156L3.66276 13.5405L3.66401 13.5281V13.5156H3.41401ZM1.86713 15.0391V15.2891H1.87753L1.88789 15.2882L1.86713 15.0391ZM0.718693 14.6172L0.54628 14.7987L0.555995 14.807L0.718693 14.6172ZM0.249943 2.03125L-5.72205e-05 2.02232V2.03125H0.249943ZM0.74213 0.953125L0.909432 1.13902L0.914318 1.13438L0.74213 0.953125ZM1.86713 0.507812L1.85788 0.757641C2.21708 0.770945 2.5165 0.901358 2.76848 1.15334L2.94526 0.976562L3.12203 0.799786C2.78026 0.458017 2.36093 0.27593 1.87638 0.257984L1.86713 0.507812ZM2.94526 0.976562L2.77332 1.15805C3.021 1.3927 3.15089 1.68167 3.16418 2.0405L3.41401 2.03125L3.66383 2.022C3.64587 1.53708 3.46326 1.12292 3.11719 0.795074L2.94526 0.976562ZM3.41401 2.03125H3.16401V5.94531H3.41401H3.66401V2.03125H3.41401ZM3.41401 5.94531V6.19531H11.0312V5.94531V5.69531H3.41401V5.94531ZM11.0312 5.94531H11.2812V2.03125H11.0312H10.7812V5.94531H11.0312ZM11.0312 2.03125L11.281 2.04017C11.2944 1.66726 11.4308 1.37281 11.6906 1.13895L11.5234 0.953125L11.3561 0.767302C10.991 1.09594 10.7993 1.52024 10.7814 2.02233L11.0312 2.03125ZM11.5234 0.953125L11.6956 1.13438C11.9608 0.882371 12.2739 0.757812 12.6484 0.757812V0.507812V0.257812C12.1479 0.257812 11.7109 0.430129 11.3512 0.771875L11.5234 0.953125ZM12.6484 0.507812L12.6391 0.757641C12.9983 0.770945 13.2977 0.901358 13.5497 1.15334L13.7265 0.976562L13.9033 0.799786C13.5615 0.458017 13.1422 0.27593 12.6576 0.257984L12.6484 0.507812ZM13.7265 0.976562L13.5546 1.15805C13.8023 1.3927 13.9321 1.68167 13.9454 2.0405L14.1953 2.03125L14.4451 2.022C14.4271 1.53708 14.2445 1.12292 13.8984 0.795074L13.7265 0.976562ZM14.1953 2.03125H13.9453V13.5156H14.1953H14.4453V2.03125H14.1953ZM14.1953 13.5156L13.9465 13.4907C13.9037 13.9192 13.7679 14.2195 13.5628 14.4215C13.3578 14.6234 13.0558 14.7542 12.6276 14.7899L12.6484 15.0391L12.6691 15.2882C13.1784 15.2458 13.603 15.0836 13.9136 14.7777C14.2242 14.4719 14.3931 14.0495 14.444 13.5405L14.1953 13.5156ZM12.6484 15.0391V14.7891C12.2697 14.7891 11.9448 14.6693 11.6626 14.4274L11.4999 14.6172L11.3372 14.807C11.7113 15.1276 12.152 15.2891 12.6484 15.2891V15.0391ZM11.4999 14.6172L11.6721 14.4359C11.4102 14.1871 11.2812 13.8858 11.2812 13.5156H11.0312H10.7812C10.7812 14.0205 10.9647 14.4536 11.3278 14.7984L11.4999 14.6172ZM11.0312 13.5156H11.2812V9.08594H11.0312H10.7812V13.5156H11.0312ZM11.0312 9.08594V8.83594H3.41401V9.08594V9.33594H11.0312V9.08594ZM3.41401 9.08594H3.16401V13.5156H3.41401H3.66401V9.08594H3.41401ZM3.41401 13.5156L3.16525 13.4907C3.1224 13.9192 2.98661 14.2195 2.78155 14.4215C2.57653 14.6234 2.27459 14.7542 1.84637 14.7899L1.86713 15.0391L1.88789 15.2882C2.39717 15.2458 2.82179 15.0836 3.1324 14.7777C3.44296 14.4719 3.61186 14.0495 3.66276 13.5405L3.41401 13.5156ZM1.86713 15.0391V14.7891C1.4885 14.7891 1.16359 14.6693 0.881391 14.4274L0.718693 14.6172L0.555995 14.807C0.930041 15.1276 1.37076 15.2891 1.86713 15.2891V15.0391ZM0.718693 14.6172L0.89088 14.4359C0.6289 14.1871 0.499943 13.8858 0.499943 13.5156H0.249943H-5.72205e-05C-5.72205e-05 14.0205 0.183486 14.4536 0.546505 14.7984L0.718693 14.6172ZM0.249943 13.5156H0.499943V2.03125H0.249943H-5.72205e-05V13.5156H0.249943ZM0.249943 2.03125L0.499784 2.04017C0.513102 1.66726 0.649528 1.37281 0.909371 1.13895L0.74213 0.953125L0.574889 0.767302C0.209733 1.09594 0.0180339 1.52024 0.000102043 2.02233L0.249943 2.03125ZM0.74213 0.953125L0.914318 1.13438C1.17958 0.882371 1.49265 0.757812 1.86713 0.757812V0.507812V0.257812C1.36661 0.257812 0.929676 0.430129 0.569943 0.771875L0.74213 0.953125ZM28.2512 9.50781V9.75781H28.604L28.4871 9.42494L28.2512 9.50781ZM27.6418 7.77344L27.8778 7.69052L27.8747 7.68255L27.6418 7.77344ZM26.8918 5.96875L26.66 6.06273L26.6634 6.07028L26.8918 5.96875ZM26.0715 4.39844L25.8569 4.52721L25.8635 4.53711L26.0715 4.39844ZM25.1106 3.64844L25.1322 3.39938L25.111 3.39753L25.0898 3.3993L25.1106 3.64844ZM23.2824 5.96875L23.053 5.86951L23.0517 5.8726L23.2824 5.96875ZM22.5559 7.77344L22.3229 7.68253L22.3211 7.68764L22.5559 7.77344ZM20.3293 13.8672L20.555 13.9747L20.5601 13.964L20.5641 13.953L20.3293 13.8672ZM19.7199 14.6875L19.8837 14.8764L19.8846 14.8756L19.7199 14.6875ZM17.5168 14.5234L17.3309 14.6907L17.3356 14.6956L17.5168 14.5234ZM17.1418 13.3984L16.8925 13.3793L16.8925 13.3806L17.1418 13.3984ZM17.2824 12.8359L17.51 12.9394L17.513 12.9329L17.5156 12.9262L17.2824 12.8359ZM19.8606 6.17969L19.6293 6.08469L19.6274 6.08939L19.8606 6.17969ZM22.0168 1.9375L22.2248 2.07618L22.2253 2.07547L22.0168 1.9375ZM25.1106 0.320312L25.1135 0.0702624L25.1077 0.0703292L25.1106 0.320312ZM28.1809 1.9375L27.9724 2.07549L27.9748 2.079L28.1809 1.9375ZM30.3371 6.17969L30.5703 6.08938L30.569 6.08614L30.3371 6.17969ZM32.9153 12.8359L32.6821 12.9262L32.6847 12.9329L32.6877 12.9394L32.9153 12.8359ZM33.0559 13.3984L33.3052 13.3806L33.3051 13.3793L33.0559 13.3984ZM32.6574 14.5234L32.4761 14.3512L32.4716 14.3562L32.6574 14.5234ZM30.4074 14.6875L30.2369 14.8703L30.2431 14.8761L30.2498 14.8815L30.4074 14.6875ZM29.8215 13.8672L29.5867 13.953L29.5907 13.964L29.5958 13.9747L29.8215 13.8672ZM29.3762 12.6484L29.611 12.5626L29.551 12.3984H29.3762V12.6484ZM23.5637 12.1797L23.7452 12.0073L23.7359 11.9984L23.5637 12.1797ZM23.0949 11.0781H23.3449C23.3449 10.7038 23.4692 10.4012 23.717 10.1533L23.5403 9.97656L23.3635 9.79979C23.0176 10.1457 22.8449 10.5774 22.8449 11.0781H23.0949ZM23.5403 9.97656L23.717 10.1533C23.9832 9.88719 24.2948 9.75781 24.6653 9.75781V9.50781V9.25781C24.1607 9.25781 23.7223 9.44094 23.3635 9.79979L23.5403 9.97656ZM24.6653 9.50781V9.75781H28.2512V9.50781V9.25781H24.6653V9.50781ZM28.2512 9.50781L28.4871 9.42494L27.8777 7.69057L27.6418 7.77344L27.406 7.85631L28.0153 9.59068L28.2512 9.50781ZM27.6418 7.77344L27.8747 7.68255C27.6235 7.03875 27.372 6.43361 27.1203 5.86722L26.8918 5.96875L26.6634 6.07028C26.9116 6.62889 27.1602 7.22687 27.4089 7.86432L27.6418 7.77344ZM26.8918 5.96875L27.1235 5.87482C26.8834 5.28267 26.6023 4.744 26.2795 4.25976L26.0715 4.39844L25.8635 4.53711C26.1657 4.99038 26.4314 5.49858 26.6601 6.06268L26.8918 5.96875ZM26.0715 4.39844L26.2859 4.26981C25.9855 3.76913 25.6062 3.4406 25.1322 3.39938L25.1106 3.64844L25.0889 3.8975C25.3337 3.91878 25.595 4.09024 25.8571 4.52706L26.0715 4.39844ZM25.1106 3.64844L25.0898 3.3993C24.6049 3.43971 24.2096 3.76248 23.8916 4.26467L24.1028 4.39844L24.314 4.5322C24.5897 4.0969 24.8662 3.91967 25.1313 3.89757L25.1106 3.64844ZM24.1028 4.39844L23.8916 4.26467C23.5868 4.7458 23.3075 5.281 23.053 5.86952L23.2824 5.96875L23.5119 6.06798C23.7574 5.50025 24.0249 4.98857 24.314 4.5322L24.1028 4.39844ZM23.2824 5.96875L23.0517 5.8726C22.8165 6.43705 22.5736 7.04038 22.323 7.68255L22.5559 7.77344L22.7888 7.86432C23.0382 7.22524 23.2796 6.62545 23.5132 6.0649L23.2824 5.96875ZM22.5559 7.77344L22.3211 7.68764L20.0945 13.7814L20.3293 13.8672L20.5641 13.953L22.7907 7.85924L22.5559 7.77344ZM20.3293 13.8672L20.1036 13.7597C19.9606 14.06 19.7773 14.3051 19.5553 14.4994L19.7199 14.6875L19.8846 14.8756C20.1625 14.6324 20.3855 14.3307 20.555 13.9747L20.3293 13.8672ZM19.7199 14.6875L19.5562 14.4986C19.3868 14.6454 19.0982 14.7422 18.6418 14.7422V14.9922V15.2422C19.1542 15.2422 19.5843 15.1359 19.8837 14.8764L19.7199 14.6875ZM18.6418 14.9922V14.7422C18.2533 14.7422 17.9451 14.6113 17.6981 14.3512L17.5168 14.5234L17.3356 14.6956C17.6823 15.0606 18.1241 15.2422 18.6418 15.2422V14.9922ZM17.5168 14.5234L17.7026 14.3562C17.469 14.0966 17.3645 13.7893 17.3912 13.4162L17.1418 13.3984L16.8925 13.3806C16.8566 13.8826 17.0021 14.3253 17.331 14.6907L17.5168 14.5234ZM17.1418 13.3984L17.3911 13.4176C17.4046 13.2413 17.4449 13.0826 17.51 12.9394L17.2824 12.8359L17.0548 12.7325C16.9637 12.933 16.9102 13.1493 16.8926 13.3793L17.1418 13.3984ZM17.2824 12.8359L17.5156 12.9262L20.0937 6.26998L19.8606 6.17969L19.6274 6.08939L17.0493 12.7456L17.2824 12.8359ZM19.8606 6.17969L20.0918 6.27467C20.8069 4.53366 21.5184 3.13584 22.2248 2.07617L22.0168 1.9375L21.8088 1.79883C21.0777 2.89541 20.3518 4.32571 19.6293 6.08471L19.8606 6.17969ZM22.0168 1.9375L22.2253 2.07547C22.8792 1.08739 23.8303 0.585044 25.1134 0.570296L25.1106 0.320312L25.1077 0.0703292C23.672 0.0868306 22.5607 0.662606 21.8083 1.79953L22.0168 1.9375ZM25.1106 0.320312L25.1077 0.570296C26.374 0.58502 27.3179 1.08645 27.9724 2.07547L28.1809 1.9375L28.3894 1.79953C27.6376 0.663551 26.5347 0.0868549 25.1135 0.0703292L25.1106 0.320312ZM28.1809 1.9375L27.9748 2.079C28.6794 3.10533 29.3903 4.50121 30.1053 6.27324L30.3371 6.17969L30.569 6.08614C29.8465 4.29567 29.1198 2.86342 28.387 1.796L28.1809 1.9375ZM30.3371 6.17969L30.104 6.26998L32.6821 12.9262L32.9153 12.8359L33.1484 12.7456L30.5703 6.08939L30.3371 6.17969ZM32.9153 12.8359L32.6877 12.9394C32.7528 13.0826 32.7931 13.2413 32.8066 13.4176L33.0559 13.3984L33.3051 13.3793C33.2875 13.1493 33.234 12.933 33.1428 12.7325L32.9153 12.8359ZM33.0559 13.3984L32.8065 13.4162C32.8329 13.7851 32.7237 14.0907 32.4762 14.3512L32.6574 14.5234L32.8387 14.6956C33.1849 14.3312 33.3414 13.8868 33.3052 13.3806L33.0559 13.3984ZM32.6574 14.5234L32.4716 14.3562C32.2418 14.6116 31.9443 14.7422 31.5559 14.7422V14.9922V15.2422C32.0737 15.2422 32.5106 15.0603 32.8433 14.6907L32.6574 14.5234ZM31.5559 14.9922V14.7422C31.0654 14.7422 30.7507 14.6443 30.5651 14.4935L30.4074 14.6875L30.2498 14.8815C30.5642 15.137 31.0151 15.2422 31.5559 15.2422V14.9922ZM30.4074 14.6875L30.578 14.5047C30.3694 14.3101 30.1918 14.0633 30.0472 13.7597L29.8215 13.8672L29.5958 13.9747C29.7637 14.3274 29.9767 14.6274 30.2369 14.8703L30.4074 14.6875ZM29.8215 13.8672L30.0563 13.7814L29.611 12.5626L29.3762 12.6484L29.1414 12.7342L29.5867 13.953L29.8215 13.8672ZM29.3762 12.6484V12.3984H24.6653V12.6484V12.8984H29.3762V12.6484ZM24.6653 12.6484V12.3984C24.2951 12.3984 23.9938 12.2695 23.7449 12.0075L23.5637 12.1797L23.3824 12.3519C23.7273 12.7149 24.1604 12.8984 24.6653 12.8984V12.6484ZM23.5637 12.1797L23.7359 11.9984C23.4739 11.7496 23.3449 11.4483 23.3449 11.0781H23.0949H22.8449C22.8449 11.583 23.0285 12.0161 23.3915 12.3609L23.5637 12.1797ZM50.8149 3.55469L50.6425 3.3732L50.6337 3.3825L50.8149 3.55469ZM40.3384 4.02344V3.77309L40.3252 3.77378L40.3384 4.02344ZM39.5884 4.23438L39.7144 4.45038L39.7194 4.44729L39.5884 4.23438ZM39.1665 4.63281L39.3748 4.77164L39.3809 4.76144L39.1665 4.63281ZM39.1665 5.54688L38.9519 5.67564L38.9585 5.68555L39.1665 5.54688ZM39.5884 5.94531L39.4497 6.15333L39.4595 6.15985L39.4699 6.16543L39.5884 5.94531ZM40.3384 6.13281L40.3252 6.38281H40.3384V6.13281ZM46.9946 6.13281L47.0018 5.88281H46.9946V6.13281ZM49.6899 6.90625L49.5481 7.11219L49.5534 7.11565L49.6899 6.90625ZM51.2134 8.54688L50.9875 8.65419L50.9909 8.66095L51.2134 8.54688ZM51.2134 12.2969L51.4358 12.411L51.437 12.4087L51.2134 12.2969ZM49.6899 13.9375L49.8286 14.1455L49.8318 14.1434L49.6899 13.9375ZM46.854 14.6406V14.3906H46.8333L46.8129 14.394L46.854 14.6406ZM36.5884 14.2188L36.4069 14.3912L36.4162 14.4L36.5884 14.2188ZM36.6118 11.9922L36.7842 12.1737L36.7931 12.1644L36.6118 11.9922ZM47.1353 11.5234L47.1484 11.2734H47.1353V11.5234ZM47.8618 11.3594L47.7307 11.1463L47.7231 11.1514L47.8618 11.3594ZM48.3071 10.9375L48.5217 11.0662L48.5266 11.0572L48.3071 10.9375ZM48.3071 9.97656L48.08 10.0814L48.0835 10.0884L48.3071 9.97656ZM47.8618 9.48438L47.723 9.69252L47.7308 9.69729L47.8618 9.48438ZM47.1353 9.27344L47.1484 9.02344H47.1353V9.27344ZM40.479 9.27344L40.4719 9.52344H40.479V9.27344ZM37.7603 8.52344L37.6216 8.73146L37.6237 8.73284L37.7603 8.52344ZM36.2368 6.92969L36.012 7.03923L36.0156 7.04612L36.2368 6.92969ZM36.2603 3.27344L36.4815 3.38988L36.4827 3.38752L36.2603 3.27344ZM40.479 0.90625V0.656148L40.4719 0.656352L40.479 0.90625ZM40.6196 0.90625V1.15625H40.6403L40.6607 1.15285L40.6196 0.90625ZM50.8149 1.35156L50.6335 1.52398L50.6428 1.53281L50.8149 1.35156ZM51.2837 2.45312H51.0337C51.0337 2.82326 50.9047 3.12456 50.6428 3.37344L50.8149 3.55469L50.9871 3.73594C51.3501 3.39107 51.5337 2.95799 51.5337 2.45312H51.2837ZM50.8149 3.55469L50.6337 3.3825C50.3848 3.64448 50.0835 3.77344 49.7134 3.77344V4.02344V4.27344C50.2182 4.27344 50.6513 4.0899 50.9962 3.72688L50.8149 3.55469ZM49.7134 4.02344V3.77344H40.3384V4.02344V4.27344H49.7134V4.02344ZM40.3384 4.02344L40.3252 3.77378C39.9967 3.79107 39.7038 3.86979 39.4574 4.02146L39.5884 4.23438L39.7194 4.44729C39.8792 4.34896 40.0863 4.28705 40.3515 4.27309L40.3384 4.02344ZM39.5884 4.23438L39.4624 4.01843C39.2455 4.14496 39.0713 4.30554 38.9521 4.50419L39.1665 4.63281L39.3809 4.76144C39.4492 4.64759 39.5562 4.54254 39.7143 4.45032L39.5884 4.23438ZM39.1665 4.63281L38.9585 4.49414C38.8397 4.67232 38.7759 4.86846 38.7759 5.07812H39.0259H39.2759C39.2759 4.97529 39.3058 4.87455 39.3745 4.77149L39.1665 4.63281ZM39.0259 5.07812H38.7759C38.7759 5.28675 38.839 5.48694 38.9521 5.6755L39.1665 5.54688L39.3809 5.41825C39.3065 5.29431 39.2759 5.182 39.2759 5.07812H39.0259ZM39.1665 5.54688L38.9585 5.68555C39.0756 5.86114 39.2434 6.01579 39.4497 6.15333L39.5884 5.94531L39.7271 5.7373C39.5584 5.62484 39.445 5.51386 39.3745 5.4082L39.1665 5.54688ZM39.5884 5.94531L39.4699 6.16543C39.7135 6.29661 40.0017 6.36544 40.3252 6.38247L40.3384 6.13281L40.3515 5.88316C40.0813 5.86893 39.8695 5.81277 39.7069 5.72519L39.5884 5.94531ZM40.3384 6.13281V6.38281H46.9946V6.13281V5.88281H40.3384V6.13281ZM46.9946 6.13281L46.9875 6.38271C48.0465 6.41297 48.8945 6.66185 49.5481 7.11213L49.6899 6.90625L49.8318 6.70037C49.0791 6.1819 48.1303 5.91516 47.0018 5.88291L46.9946 6.13281ZM49.6899 6.90625L49.5534 7.11565C50.2428 7.56525 50.7147 8.0797 50.9876 8.65414L51.2134 8.54688L51.4392 8.43961C51.1183 7.76405 50.5746 7.18475 49.8265 6.69685L49.6899 6.90625ZM51.2134 8.54688L50.9909 8.66095C51.2866 9.23752 51.4321 9.82364 51.4321 10.4219H51.6821H51.9321C51.9321 9.73886 51.7652 9.07498 51.4358 8.4328L51.2134 8.54688ZM51.6821 10.4219H51.4321C51.4321 11.0037 51.287 11.5906 50.9898 12.1851L51.2134 12.2969L51.437 12.4087C51.7648 11.7531 51.9321 11.0901 51.9321 10.4219H51.6821ZM51.2134 12.2969L50.9909 12.1828C50.7014 12.7474 50.2254 13.265 49.5481 13.7316L49.6899 13.9375L49.8318 14.1434C50.5607 13.6412 51.1004 13.0651 51.4358 12.411L51.2134 12.2969ZM49.6899 13.9375L49.5513 13.7295C48.8997 14.1638 48.0534 14.3906 46.9946 14.3906V14.6406V14.8906C48.1234 14.8906 49.0739 14.6487 49.8286 14.1455L49.6899 13.9375ZM46.9946 14.6406V14.3906H46.854V14.6406V14.8906H46.9946V14.6406ZM46.854 14.6406L46.8129 14.394C46.7325 14.4074 46.6525 14.4141 46.5728 14.4141V14.6641V14.9141C46.6805 14.9141 46.788 14.9051 46.8951 14.8872L46.854 14.6406ZM46.5728 14.6641V14.4141H37.7134V14.6641V14.9141H46.5728V14.6641ZM37.7134 14.6641V14.4141C37.3389 14.4141 37.0258 14.2895 36.7606 14.0375L36.5884 14.2188L36.4162 14.4C36.7759 14.7417 37.2129 14.9141 37.7134 14.9141V14.6641ZM36.5884 14.2188L36.7696 14.0466C36.5176 13.7813 36.3931 13.4682 36.3931 13.0938H36.1431H35.8931C35.8931 13.5943 36.0654 14.0312 36.4071 14.3909L36.5884 14.2188ZM36.1431 13.0938H36.3931C36.3931 12.7236 36.522 12.4223 36.784 12.1734L36.6118 11.9922L36.4396 11.8109C36.0766 12.1558 35.8931 12.5889 35.8931 13.0938H36.1431ZM36.6118 11.9922L36.7931 12.1644C37.0419 11.9024 37.3432 11.7734 37.7134 11.7734V11.5234V11.2734C37.2085 11.2734 36.7754 11.457 36.4306 11.82L36.6118 11.9922ZM37.7134 11.5234V11.7734H47.1353V11.5234V11.2734H37.7134V11.5234ZM47.1353 11.5234L47.1221 11.7731C47.4557 11.7906 47.7558 11.7305 48.0005 11.5674L47.8618 11.3594L47.7231 11.1514C47.5929 11.2382 47.4086 11.2875 47.1484 11.2738L47.1353 11.5234ZM47.8618 11.3594L47.9928 11.5723C48.2199 11.4325 48.4018 11.2657 48.5215 11.0661L48.3071 10.9375L48.0928 10.8089C48.025 10.9218 47.91 11.0362 47.7308 11.1465L47.8618 11.3594ZM48.3071 10.9375L48.5266 11.0572C48.6376 10.8538 48.6978 10.6411 48.6978 10.4219H48.4478H48.1978C48.1978 10.5464 48.1642 10.6775 48.0877 10.8178L48.3071 10.9375ZM48.4478 10.4219H48.6978C48.6978 10.2523 48.6287 10.0608 48.5307 9.86476L48.3071 9.97656L48.0835 10.0884C48.173 10.2674 48.1978 10.3727 48.1978 10.4219H48.4478ZM48.3071 9.97656L48.5341 9.8718C48.4183 9.62095 48.235 9.42048 47.9928 9.27146L47.8618 9.48438L47.7308 9.69729C47.8949 9.79827 48.0084 9.92592 48.0801 10.0813L48.3071 9.97656ZM47.8618 9.48438L48.0005 9.27636C47.7655 9.11973 47.4762 9.04103 47.1484 9.02378L47.1353 9.27344L47.1221 9.52309C47.3881 9.53709 47.5831 9.59902 47.7231 9.69239L47.8618 9.48438ZM47.1353 9.27344V9.02344H40.479V9.27344V9.52344H47.1353V9.27344ZM40.479 9.27344L40.4861 9.02354C39.4259 8.99325 38.5677 8.75157 37.8968 8.31403L37.7603 8.52344L37.6237 8.73284C38.3903 9.23281 39.3446 9.49113 40.4719 9.52334L40.479 9.27344ZM37.7603 8.52344L37.8989 8.31542C37.2217 7.86394 36.7467 7.36168 36.458 6.81325L36.2368 6.92969L36.0156 7.04612C36.3519 7.68519 36.8926 8.24544 37.6216 8.73145L37.7603 8.52344ZM36.2368 6.92969L36.4616 6.8202C36.1799 6.24199 36.0415 5.66205 36.0415 5.07812H35.7915H35.5415C35.5415 5.7442 35.7 6.39863 36.0121 7.03918L36.2368 6.92969ZM35.7915 5.07812H36.0415C36.0415 4.5133 36.1859 3.95142 36.4815 3.38987L36.2603 3.27344L36.039 3.157C35.7096 3.78296 35.5415 4.4242 35.5415 5.07812H35.7915ZM36.2603 3.27344L36.4827 3.38752C36.7717 2.82399 37.2465 2.31483 37.9224 1.86426L37.7837 1.65625L37.645 1.44824C36.9146 1.93517 36.3738 2.50413 36.0378 3.15936L36.2603 3.27344ZM37.7837 1.65625L37.9224 1.86426C38.5765 1.42818 39.4257 1.18645 40.4861 1.15615L40.479 0.90625L40.4719 0.656352C39.3448 0.688553 38.3971 0.946818 37.645 1.44824L37.7837 1.65625ZM40.479 0.90625V1.15625H40.6196V0.90625V0.65625H40.479V0.90625ZM40.6196 0.90625L40.6607 1.15285C40.7411 1.13946 40.8211 1.13281 40.9009 1.13281V0.882812V0.632812C40.7932 0.632812 40.6857 0.641794 40.5785 0.659652L40.6196 0.90625ZM40.9009 0.882812V1.13281H49.7134V0.882812V0.632812H40.9009V0.882812ZM49.7134 0.882812V1.13281C50.0835 1.13281 50.3848 1.26177 50.6337 1.52375L50.8149 1.35156L50.9962 1.17938C50.6513 0.816355 50.2182 0.632812 49.7134 0.632812V0.882812ZM50.8149 1.35156L50.6428 1.53281C50.9047 1.78169 51.0337 2.08299 51.0337 2.45312H51.2837H51.5337C51.5337 1.94826 51.3501 1.51518 50.9871 1.17031L50.8149 1.35156ZM65.4568 9.50781V9.75781H65.8096L65.6927 9.42494L65.4568 9.50781ZM64.8474 7.77344L65.0834 7.69052L65.0803 7.68255L64.8474 7.77344ZM64.0974 5.96875L63.8656 6.06273L63.869 6.07028L64.0974 5.96875ZM63.2771 4.39844L63.0625 4.52721L63.0691 4.53711L63.2771 4.39844ZM62.3162 3.64844L62.3378 3.39938L62.3166 3.39753L62.2954 3.3993L62.3162 3.64844ZM60.4881 5.96875L60.2586 5.86951L60.2573 5.8726L60.4881 5.96875ZM59.7615 7.77344L59.5286 7.68253L59.5267 7.68764L59.7615 7.77344ZM57.5349 13.8672L57.7607 13.9747L57.7657 13.964L57.7698 13.953L57.5349 13.8672ZM56.9256 14.6875L57.0893 14.8764L57.0902 14.8756L56.9256 14.6875ZM54.7224 14.5234L54.5366 14.6907L54.5412 14.6956L54.7224 14.5234ZM54.3474 13.3984L54.0982 13.3793L54.0981 13.3806L54.3474 13.3984ZM54.4881 12.8359L54.7157 12.9394L54.7186 12.9329L54.7212 12.9262L54.4881 12.8359ZM57.0662 6.17969L56.8349 6.08469L56.8331 6.08939L57.0662 6.17969ZM59.2224 1.9375L59.4305 2.07618L59.4309 2.07547L59.2224 1.9375ZM62.3162 0.320312L62.3191 0.0702624L62.3133 0.0703292L62.3162 0.320312ZM65.3865 1.9375L65.178 2.07549L65.1804 2.079L65.3865 1.9375ZM67.5428 6.17969L67.7759 6.08938L67.7746 6.08614L67.5428 6.17969ZM70.1209 12.8359L69.8878 12.9262L69.8903 12.9329L69.8933 12.9394L70.1209 12.8359ZM70.2615 13.3984L70.5109 13.3806L70.5108 13.3793L70.2615 13.3984ZM69.8631 14.5234L69.6818 14.3512L69.6772 14.3562L69.8631 14.5234ZM67.6131 14.6875L67.4425 14.8703L67.4488 14.8761L67.4554 14.8815L67.6131 14.6875ZM67.0271 13.8672L66.7923 13.953L66.7964 13.964L66.8014 13.9747L67.0271 13.8672ZM66.5818 12.6484L66.8166 12.5626L66.7566 12.3984H66.5818V12.6484ZM60.7693 12.1797L60.9508 12.0073L60.9415 11.9984L60.7693 12.1797ZM60.3006 11.0781H60.5506C60.5506 10.7038 60.6748 10.4012 60.9227 10.1533L60.7459 9.97656L60.5691 9.79979C60.2232 10.1457 60.0506 10.5774 60.0506 11.0781H60.3006ZM60.7459 9.97656L60.9227 10.1533C61.1888 9.88719 61.5004 9.75781 61.8709 9.75781V9.50781V9.25781C61.3663 9.25781 60.928 9.44094 60.5691 9.79979L60.7459 9.97656ZM61.8709 9.50781V9.75781H65.4568V9.50781V9.25781H61.8709V9.50781ZM65.4568 9.50781L65.6927 9.42494L65.0833 7.69057L64.8474 7.77344L64.6116 7.85631L65.221 9.59068L65.4568 9.50781ZM64.8474 7.77344L65.0803 7.68255C64.8291 7.03875 64.5776 6.43361 64.3259 5.86722L64.0974 5.96875L63.869 6.07028C64.1173 6.62889 64.3658 7.22687 64.6145 7.86432L64.8474 7.77344ZM64.0974 5.96875L64.3291 5.87482C64.0891 5.28267 63.808 4.744 63.4851 4.25976L63.2771 4.39844L63.0691 4.53711C63.3713 4.99038 63.6371 5.49858 63.8658 6.06268L64.0974 5.96875ZM63.2771 4.39844L63.4915 4.26981C63.1911 3.76913 62.8119 3.4406 62.3378 3.39938L62.3162 3.64844L62.2945 3.8975C62.5393 3.91878 62.8007 4.09024 63.0628 4.52706L63.2771 4.39844ZM62.3162 3.64844L62.2954 3.3993C61.8105 3.43971 61.4152 3.76248 61.0972 4.26467L61.3084 4.39844L61.5196 4.5322C61.7953 4.0969 62.0719 3.91967 62.337 3.89757L62.3162 3.64844ZM61.3084 4.39844L61.0972 4.26467C60.7925 4.7458 60.5131 5.281 60.2586 5.86952L60.4881 5.96875L60.7175 6.06798C60.963 5.50025 61.2305 4.98857 61.5196 4.5322L61.3084 4.39844ZM60.4881 5.96875L60.2573 5.8726C60.0221 6.43705 59.7792 7.04038 59.5286 7.68255L59.7615 7.77344L59.9944 7.86432C60.2438 7.22524 60.4853 6.62545 60.7188 6.0649L60.4881 5.96875ZM59.7615 7.77344L59.5267 7.68764L57.3001 13.7814L57.5349 13.8672L57.7698 13.953L59.9963 7.85924L59.7615 7.77344ZM57.5349 13.8672L57.3092 13.7597C57.1662 14.06 56.983 14.3051 56.7609 14.4994L56.9256 14.6875L57.0902 14.8756C57.3682 14.6324 57.5911 14.3307 57.7607 13.9747L57.5349 13.8672ZM56.9256 14.6875L56.7618 14.4986C56.5924 14.6454 56.3038 14.7422 55.8474 14.7422V14.9922V15.2422C56.3598 15.2422 56.79 15.1359 57.0893 14.8764L56.9256 14.6875ZM55.8474 14.9922V14.7422C55.4589 14.7422 55.1507 14.6113 54.9037 14.3512L54.7224 14.5234L54.5412 14.6956C54.8879 15.0606 55.3297 15.2422 55.8474 15.2422V14.9922ZM54.7224 14.5234L54.9083 14.3562C54.6746 14.0966 54.5702 13.7893 54.5968 13.4162L54.3474 13.3984L54.0981 13.3806C54.0622 13.8826 54.2078 14.3253 54.5366 14.6907L54.7224 14.5234ZM54.3474 13.3984L54.5967 13.4176C54.6103 13.2413 54.6506 13.0826 54.7157 12.9394L54.4881 12.8359L54.2605 12.7325C54.1693 12.933 54.1159 13.1493 54.0982 13.3793L54.3474 13.3984ZM54.4881 12.8359L54.7212 12.9262L57.2993 6.26998L57.0662 6.17969L56.8331 6.08939L54.2549 12.7456L54.4881 12.8359ZM57.0662 6.17969L57.2974 6.27467C58.0125 4.53366 58.724 3.13584 59.4305 2.07617L59.2224 1.9375L59.0144 1.79883C58.2834 2.89541 57.5574 4.32571 56.8349 6.08471L57.0662 6.17969ZM59.2224 1.9375L59.4309 2.07547C60.0848 1.08739 61.036 0.585044 62.3191 0.570296L62.3162 0.320312L62.3133 0.0703292C60.8777 0.0868306 59.7663 0.662606 59.014 1.79953L59.2224 1.9375ZM62.3162 0.320312L62.3133 0.570296C63.5796 0.58502 64.5235 1.08645 65.178 2.07547L65.3865 1.9375L65.595 1.79953C64.8432 0.663551 63.7403 0.0868549 62.3191 0.0703292L62.3162 0.320312ZM65.3865 1.9375L65.1804 2.079C65.885 3.10533 66.5959 4.50121 67.3109 6.27324L67.5428 6.17969L67.7746 6.08614C67.0521 4.29567 66.3255 2.86342 65.5926 1.796L65.3865 1.9375ZM67.5428 6.17969L67.3096 6.26998L69.8878 12.9262L70.1209 12.8359L70.354 12.7456L67.7759 6.08939L67.5428 6.17969ZM70.1209 12.8359L69.8933 12.9394C69.9584 13.0826 69.9987 13.2413 70.0122 13.4176L70.2615 13.3984L70.5108 13.3793C70.4931 13.1493 70.4396 12.933 70.3485 12.7325L70.1209 12.8359ZM70.2615 13.3984L70.0121 13.4162C70.0385 13.7851 69.9293 14.0907 69.6818 14.3512L69.8631 14.5234L70.0443 14.6956C70.3905 14.3312 70.547 13.8868 70.5109 13.3806L70.2615 13.3984ZM69.8631 14.5234L69.6772 14.3562C69.4474 14.6116 69.15 14.7422 68.7615 14.7422V14.9922V15.2422C69.2793 15.2422 69.7162 15.0603 70.0489 14.6907L69.8631 14.5234ZM68.7615 14.9922V14.7422C68.271 14.7422 67.9563 14.6443 67.7707 14.4935L67.6131 14.6875L67.4554 14.8815C67.7698 15.137 68.2207 15.2422 68.7615 15.2422V14.9922ZM67.6131 14.6875L67.7836 14.5047C67.5751 14.3101 67.3974 14.0633 67.2528 13.7597L67.0271 13.8672L66.8014 13.9747C66.9694 14.3274 67.1823 14.6274 67.4425 14.8703L67.6131 14.6875ZM67.0271 13.8672L67.2619 13.7814L66.8166 12.5626L66.5818 12.6484L66.347 12.7342L66.7923 13.953L67.0271 13.8672ZM66.5818 12.6484V12.3984H61.8709V12.6484V12.8984H66.5818V12.6484ZM61.8709 12.6484V12.3984C61.5007 12.3984 61.1994 12.2695 60.9506 12.0075L60.7693 12.1797L60.5881 12.3519C60.9329 12.7149 61.366 12.8984 61.8709 12.8984V12.6484ZM60.7693 12.1797L60.9415 11.9984C60.6795 11.7496 60.5506 11.4483 60.5506 11.0781H60.3006H60.0506C60.0506 11.583 60.2341 12.0161 60.5971 12.3609L60.7693 12.1797ZM83.1924 0.53125L83.1341 0.774349L83.1352 0.774604L83.1924 0.53125ZM85.4659 1.375L85.3502 1.59668L85.3541 1.59861L85.4659 1.375ZM87.3643 2.82812L87.1782 2.99512L87.1806 2.99769L87.3643 2.82812ZM88.2784 5.00781H88.5288L88.528 4.99395L88.2784 5.00781ZM88.2784 13.4688L88.5271 13.4936L88.5284 13.4812V13.4688H88.2784ZM86.7315 14.9922V15.2422H86.7419L86.7523 15.2413L86.7315 14.9922ZM85.5831 14.5703L85.4107 14.7518L85.4204 14.7601L85.5831 14.5703ZM85.1143 5.73438H85.3643V5.72632L85.3638 5.71828L85.1143 5.73438ZM84.5518 4.53906L84.3748 4.71604L84.3837 4.72405L84.5518 4.53906ZM83.4268 3.76562L83.322 3.99264L83.3253 3.99408L83.4268 3.76562ZM82.1378 3.34375L82.0854 3.58821L82.0871 3.58856L82.1378 3.34375ZM79.4424 3.34375L79.3918 3.09893L79.3901 3.0993L79.4424 3.34375ZM78.1534 3.76562L78.0518 3.53715L78.0486 3.53864L78.1534 3.76562ZM77.0284 4.53906L77.2008 4.7201L77.201 4.7199L77.0284 4.53906ZM76.4893 5.73438L76.2398 5.71828L76.2393 5.72632V5.73438H76.4893ZM76.4893 13.4688L76.7385 13.4895L76.7393 13.4791V13.4688H76.4893ZM74.9659 14.9922V15.2422H74.9763L74.9866 15.2413L74.9659 14.9922ZM73.8174 14.5703L73.645 14.7518L73.6547 14.7601L73.8174 14.5703ZM73.3487 5.00781L73.0987 4.99392V5.00781H73.3487ZM76.1378 1.375L76.2496 1.59864L76.2534 1.59665L76.1378 1.375ZM78.3878 0.53125L78.3305 0.287893L78.3294 0.288153L78.3878 0.53125ZM80.8018 0.25V0.5C81.5949 0.5 82.3722 0.591485 83.1341 0.774347L83.1924 0.53125L83.2508 0.288153C82.4502 0.096015 81.6337 0 80.8018 0V0.25ZM83.1924 0.53125L83.1352 0.774604C83.912 0.957377 84.6502 1.23138 85.3502 1.59665L85.4659 1.375L85.5815 1.15335C84.8441 0.768618 84.0667 0.480123 83.2497 0.287896L83.1924 0.53125ZM85.4659 1.375L85.3541 1.59861C86.0442 1.94367 86.652 2.40865 87.1783 2.9951L87.3643 2.82812L87.5504 2.66115C86.9829 2.02885 86.3251 1.52508 85.5777 1.15139L85.4659 1.375ZM87.3643 2.82812L87.1806 2.99769C87.7029 3.56352 87.985 4.23471 88.0288 5.02168L88.2784 5.00781L88.528 4.99395C88.478 4.09342 88.1507 3.31148 87.548 2.65856L87.3643 2.82812ZM88.2784 5.00781H88.0284V5.99219H88.2784H88.5284V5.00781H88.2784ZM88.2784 5.99219H88.0284V13.4688H88.2784H88.5284V5.99219H88.2784ZM88.2784 13.4688L88.0296 13.4439C87.9868 13.8723 87.851 14.1727 87.6459 14.3746C87.4409 14.5765 87.139 14.7074 86.7107 14.7431L86.7315 14.9922L86.7523 15.2413C87.2616 15.1989 87.6862 15.0368 87.9968 14.7309C88.3073 14.425 88.4762 14.0027 88.5271 13.4936L88.2784 13.4688ZM86.7315 14.9922V14.7422C86.3529 14.7422 86.028 14.6224 85.7458 14.3805L85.5831 14.5703L85.4204 14.7601C85.7944 15.0807 86.2351 15.2422 86.7315 15.2422V14.9922ZM85.5831 14.5703L85.7553 14.3891C85.4933 14.1402 85.3643 13.8389 85.3643 13.4688H85.1143H84.8643C84.8643 13.9736 85.0479 14.4067 85.4109 14.7516L85.5831 14.5703ZM85.1143 13.4688H85.3643V5.73438H85.1143H84.8643V13.4688H85.1143ZM85.1143 5.73438L85.3638 5.71828C85.3286 5.17241 85.1141 4.71232 84.72 4.35408L84.5518 4.53906L84.3837 4.72405C84.6771 4.99081 84.8376 5.32759 84.8648 5.75047L85.1143 5.73438ZM84.5518 4.53906L84.7286 4.36229C84.3789 4.01258 83.9784 3.7372 83.5284 3.53717L83.4268 3.76562L83.3253 3.99408C83.719 4.16905 84.0685 4.4093 84.375 4.71584L84.5518 4.53906ZM83.4268 3.76562L83.5316 3.53864C83.1075 3.34288 82.6596 3.19641 82.1884 3.09894L82.1378 3.34375L82.0871 3.58856C82.5222 3.67859 82.9337 3.81337 83.3221 3.99261L83.4268 3.76562ZM82.1378 3.34375L82.1901 3.0993C81.7352 3.00181 81.2723 2.95312 80.8018 2.95312V3.20312V3.45312C81.2376 3.45312 81.6653 3.49819 82.0854 3.5882L82.1378 3.34375ZM80.8018 3.20312V2.95312C80.3313 2.95312 79.8612 3.00181 79.3918 3.09894L79.4424 3.34375L79.4931 3.58856C79.9299 3.49819 80.3661 3.45312 80.8018 3.45312V3.20312ZM79.4424 3.34375L79.3901 3.0993C78.9351 3.19678 78.489 3.34288 78.0518 3.53717L78.1534 3.76562L78.2549 3.99408C78.6615 3.81337 79.0747 3.67822 79.4948 3.5882L79.4424 3.34375ZM78.1534 3.76562L78.0486 3.53864C77.6158 3.73837 77.2182 4.01227 76.8558 4.35822L77.0284 4.53906L77.201 4.7199C77.5261 4.40961 77.8784 4.16788 78.2581 3.99261L78.1534 3.76562ZM77.0284 4.53906L76.856 4.35803C76.4789 4.71713 76.2748 5.17607 76.2398 5.71828L76.4893 5.73438L76.7388 5.75047C76.7663 5.32393 76.9216 4.986 77.2008 4.7201L77.0284 4.53906ZM76.4893 5.73438H76.2393V13.4688H76.4893H76.7393V5.73438H76.4893ZM76.4893 13.4688L76.2402 13.448C76.2045 13.8763 76.0737 14.1754 75.8731 14.376C75.6725 14.5766 75.3735 14.7074 74.9451 14.7431L74.9659 14.9922L74.9866 15.2413C75.4958 15.1989 75.9194 15.0367 76.2266 14.7295C76.5339 14.4223 76.696 13.9987 76.7385 13.4895L76.4893 13.4688ZM74.9659 14.9922V14.7422C74.5872 14.7422 74.2623 14.6224 73.9801 14.3805L73.8174 14.5703L73.6547 14.7601C74.0288 15.0807 74.4695 15.2422 74.9659 15.2422V14.9922ZM73.8174 14.5703L73.9896 14.3891C73.7277 14.1402 73.5987 13.8389 73.5987 13.4688H73.3487H73.0987C73.0987 13.9736 73.2822 14.4067 73.6453 14.7516L73.8174 14.5703ZM73.3487 13.4688H73.5987V5.99219H73.3487H73.0987V13.4688H73.3487ZM73.3487 5.99219H73.5987V5.00781H73.3487H73.0987V5.99219H73.3487ZM73.3487 5.00781L73.5983 5.02168C73.6421 4.23274 73.9178 3.56071 74.4254 2.9951L74.2393 2.82812L74.0533 2.66115C73.4671 3.31429 73.149 4.09539 73.0991 4.99395L73.3487 5.00781ZM74.2393 2.82812L74.4254 2.9951C74.9517 2.40865 75.5594 1.94367 76.2496 1.59861L76.1378 1.375L76.026 1.15139C75.2786 1.52508 74.6207 2.02885 74.0533 2.66115L74.2393 2.82812ZM76.1378 1.375L76.2534 1.59665C76.9542 1.23103 77.6849 0.957026 78.4461 0.774347L78.3878 0.53125L78.3294 0.288153C77.5281 0.480474 76.7589 0.768971 76.0221 1.15335L76.1378 1.375ZM78.3878 0.53125L78.445 0.774604C79.2233 0.591486 80.0087 0.5 80.8018 0.5V0.25V0C79.9699 0 79.146 0.0960135 78.3305 0.287896L78.3878 0.53125Z" fill="#12A2B2" fill-opacity="0.9"/>
<defs>
<linearGradient id="paint0_linear_2070_15" x1="-1.23584" y1="5.75781" x2="89.7642" y2="5.75781" gradientUnits="userSpaceOnUse">
<stop offset="0.0913462" stop-color="#08454C"/>
<stop offset="1" stop-color="#13A2B2" stop-opacity="0.9"/>
</linearGradient>
</defs>
</svg>
