<svg width="45" height="40" viewBox="0 0 45 40" fill="none" xmlns="http://www.w3.org/2000/svg">
<path d="M13.1875 0.3125C14.6458 0.3125 16.0625 0.5625 17.4375 1.0625C18.8542 1.5625 20.2083 2.29167 21.5 3.25C21.7083 3.45833 21.9375 3.66667 22.1875 3.875C22.3958 3.66667 22.625 3.45833 22.875 3.25C24.1667 2.29167 25.5 1.5625 26.875 1.0625C28.2917 0.5625 29.7083 0.3125 31.125 0.3125C32.5833 0.3125 34 0.5625 35.375 1.0625C36.7917 1.5625 38.125 2.3125 39.375 3.3125C40.6667 4.27083 41.7917 5.5625 42.75 7.1875C43.75 8.8125 44.25 10.75 44.25 13V35.5625C44 38.0625 42.625 39.4167 40.125 39.625C38.9583 39.625 37.9375 39.25 37.0625 38.5C36.2292 37.7083 35.8125 36.7292 35.8125 35.5625V13.5C35.8125 12.5 35.625 11.6667 35.25 11C34.875 10.2917 34.4583 9.75 34 9.375C33.5417 8.95833 33.0625 8.66667 32.5625 8.5C32.0625 8.29167 31.5625 8.1875 31.0625 8.1875C30.5625 8.1875 30.0625 8.29167 29.5625 8.5C29.1042 8.66667 28.6458 8.95833 28.1875 9.375C27.7292 9.75 27.3125 10.2917 26.9375 11C26.5625 11.6667 26.3542 12.5 26.3125 13.5V35.5625C26.0625 38.0625 24.6875 39.4167 22.1875 39.625C21.0208 39.625 20 39.25 19.125 38.5C18.2917 37.7083 17.875 36.7292 17.875 35.5625V13.5C17.875 12.5 17.6875 11.6667 17.3125 11C16.9375 10.2917 16.5208 9.75 16.0625 9.375C15.6042 8.95833 15.125 8.66667 14.625 8.5C14.125 8.29167 13.625 8.1875 13.125 8.1875C12.625 8.1875 12.125 8.29167 11.625 8.5C11.1667 8.66667 10.7083 8.95833 10.25 9.375C9.79167 9.75 9.375 10.2917 9 11C8.625 11.6667 8.41667 12.5 8.375 13.5V35.5625C8.16667 38.0625 6.8125 39.4167 4.3125 39.625C3.14583 39.625 2.125 39.25 1.25 38.5C0.416667 37.7083 0 36.7292 0 35.5625V13C0.0833333 10.75 0.604167 8.8125 1.5625 7.1875C2.52083 5.5625 3.64583 4.27083 4.9375 3.3125C6.22917 2.3125 7.5625 1.5625 8.9375 1.0625C10.3542 0.5625 11.7708 0.3125 13.1875 0.3125Z" fill="url(#paint0_linear_18_15)"/>
<defs>
<linearGradient id="paint0_linear_18_15" x1="-4" y1="16.0685" x2="49" y2="15.9315" gradientUnits="userSpaceOnUse">
<stop offset="0.182692" stop-color="#08454C"/>
<stop offset="1" stop-color="#16AABB"/>
</linearGradient>
</defs>
</svg>
