<svg width="202" height="202" viewBox="0 0 202 202" fill="none" xmlns="http://www.w3.org/2000/svg">
<circle cx="101" cy="101" r="98" fill="url(#paint0_linear_5_4)" stroke="white" stroke-width="6"/>
<g filter="url(#filter0_i_5_4)">
<path d="M88 197.532C191.5 137.533 146.537 86.4272 200 113.388M104.5 199.532C199.5 147.532 161.5 109.388 196.5 125.388" stroke="white" stroke-width="3"/>
</g>
<path d="M19.9824 78.2832C20.5749 78.2832 21.1504 78.3848 21.709 78.5879C22.2845 78.791 22.8346 79.0872 23.3594 79.4766C23.444 79.5612 23.5371 79.6458 23.6387 79.7305C23.7233 79.6458 23.8164 79.5612 23.918 79.4766C24.4427 79.0872 24.9844 78.791 25.543 78.5879C26.1185 78.3848 26.694 78.2832 27.2695 78.2832C27.862 78.2832 28.4375 78.3848 28.9961 78.5879C29.5716 78.791 30.1133 79.0957 30.6211 79.502C31.1458 79.8913 31.6029 80.416 31.9922 81.0762C32.3984 81.7363 32.6016 82.5234 32.6016 83.4375V92.6035C32.5 93.6191 31.9414 94.1693 30.9258 94.2539C30.4518 94.2539 30.0371 94.1016 29.6816 93.7969C29.3431 93.4753 29.1738 93.0775 29.1738 92.6035V83.6406C29.1738 83.2344 29.0977 82.8958 28.9453 82.625C28.793 82.3372 28.6237 82.1172 28.4375 81.9648C28.2513 81.7956 28.0566 81.6771 27.8535 81.6094C27.6504 81.5247 27.4473 81.4824 27.2441 81.4824C27.041 81.4824 26.8379 81.5247 26.6348 81.6094C26.4486 81.6771 26.2624 81.7956 26.0762 81.9648C25.89 82.1172 25.7207 82.3372 25.5684 82.625C25.416 82.8958 25.3314 83.2344 25.3145 83.6406V92.6035C25.2129 93.6191 24.6543 94.1693 23.6387 94.2539C23.1647 94.2539 22.75 94.1016 22.3945 93.7969C22.056 93.4753 21.8867 93.0775 21.8867 92.6035V83.6406C21.8867 83.2344 21.8105 82.8958 21.6582 82.625C21.5059 82.3372 21.3366 82.1172 21.1504 81.9648C20.9642 81.7956 20.7695 81.6771 20.5664 81.6094C20.3633 81.5247 20.1602 81.4824 19.957 81.4824C19.7539 81.4824 19.5508 81.5247 19.3477 81.6094C19.1615 81.6771 18.9753 81.7956 18.7891 81.9648C18.6029 82.1172 18.4336 82.3372 18.2812 82.625C18.1289 82.8958 18.0443 83.2344 18.0273 83.6406V92.6035C17.9427 93.6191 17.3926 94.1693 16.377 94.2539C15.903 94.2539 15.4883 94.1016 15.1328 93.7969C14.7943 93.4753 14.625 93.0775 14.625 92.6035V83.4375C14.6589 82.5234 14.8704 81.7363 15.2598 81.0762C15.6491 80.416 16.1061 79.8913 16.6309 79.502C17.1556 79.0957 17.6973 78.791 18.2559 78.5879C18.8314 78.3848 19.4069 78.2832 19.9824 78.2832ZM51.7755 78.9688C52.6388 78.9857 53.409 79.2565 54.0861 79.7812C54.7632 80.306 55.3048 80.9323 55.7111 81.6602C56.1343 82.388 56.4474 83.1582 56.6505 83.9707C56.8537 84.7832 56.9552 85.6126 56.9552 86.459C56.9552 87.5762 56.7775 88.6764 56.422 89.7598C56.0835 90.8262 55.5164 91.7741 54.7209 92.6035C53.9422 93.4329 52.9604 93.8815 51.7755 93.9492H42.9142C41.7293 93.8984 40.7391 93.4583 39.9435 92.6289C39.1479 91.7995 38.5809 90.8431 38.2423 89.7598C37.9207 88.6764 37.7599 87.5762 37.7599 86.459C37.7599 85.3418 37.9292 84.25 38.2677 83.1836C38.6063 82.1003 39.1649 81.1439 39.9435 80.3145C40.7391 79.4681 41.7293 79.0195 42.9142 78.9688H43.3966H51.2931H51.7755ZM50.9123 90.5469C51.5555 90.513 52.0887 90.276 52.5119 89.8359C52.952 89.3789 53.2651 88.8542 53.4513 88.2617C53.6375 87.6693 53.7306 87.0684 53.7306 86.459C53.7306 85.8496 53.6291 85.2572 53.4259 84.6816C53.2397 84.0892 52.9351 83.5645 52.5119 83.1074C52.0887 82.6504 51.5555 82.4049 50.9123 82.3711H43.7013C43.0581 82.4049 42.5249 82.6504 42.1017 83.1074C41.6785 83.5645 41.3654 84.0892 41.1623 84.6816C40.9761 85.2572 40.883 85.8496 40.883 86.459C40.883 87.0684 40.9761 87.6693 41.1623 88.2617C41.3485 88.8542 41.6532 89.3789 42.0763 89.8359C42.5164 90.276 43.0581 90.513 43.7013 90.5469H50.9123ZM70.1624 94.5332C69.2822 94.5332 68.4105 94.4316 67.5472 94.2285C66.7008 94.0254 65.8883 93.7292 65.1097 93.3398C64.331 92.9336 63.6455 92.4004 63.053 91.7402C62.4606 91.0801 62.139 90.293 62.0882 89.3789V88.3125V80.2129C62.0882 79.7389 62.2575 79.3496 62.596 79.0449C62.9515 78.7233 63.3662 78.5625 63.8402 78.5625C64.8558 78.6471 65.4059 79.1973 65.4905 80.2129V88.5918C65.5244 89.1165 65.7191 89.5566 66.0745 89.9121C66.4469 90.2507 66.8532 90.5215 67.2933 90.7246C67.7503 90.9277 68.2158 91.0801 68.6898 91.1816C69.1807 91.2832 69.6715 91.334 70.1624 91.334C70.6533 91.334 71.1357 91.2832 71.6097 91.1816C72.1006 91.0801 72.5661 90.9277 73.0062 90.7246C73.4632 90.5215 73.8695 90.2507 74.2249 89.9121C74.5973 89.5566 74.8004 89.1165 74.8343 88.5918V80.2129C74.8343 79.7389 75.0036 79.3496 75.3421 79.0449C75.6976 78.7233 76.1123 78.5625 76.5863 78.5625C77.6019 78.6471 78.1605 79.1973 78.262 80.2129V88.3125V89.3789C78.2113 90.293 77.8812 91.0801 77.2718 91.7402C76.6793 92.4004 75.9938 92.9336 75.2152 93.3398C74.4365 93.7292 73.6155 94.0254 72.7523 94.2285C71.9059 94.4316 71.0426 94.5332 70.1624 94.5332ZM100.407 80.6699C100.407 81.1439 100.237 81.5417 99.8989 81.8633C99.5773 82.2018 99.1795 82.3711 98.7055 82.3711H88.5493C88.2277 82.388 87.9568 82.4642 87.7368 82.5996C87.5337 82.7181 87.3813 82.862 87.2798 83.0312C87.1782 83.1836 87.1274 83.3444 87.1274 83.5137C87.1274 83.6829 87.1782 83.8522 87.2798 84.0215C87.3813 84.1738 87.5337 84.3177 87.7368 84.4531C87.9568 84.5716 88.2277 84.6393 88.5493 84.6562H95.7602C96.9451 84.6901 97.9184 84.9694 98.6802 85.4941C99.4588 86.002 100.009 86.5944 100.331 87.2715C100.669 87.9316 100.838 88.6087 100.838 89.3027C100.838 89.9798 100.669 90.6569 100.331 91.334C99.992 91.9941 99.4419 92.5866 98.6802 93.1113C97.9184 93.6191 96.9451 93.873 95.7602 93.873H95.6079C95.5063 93.89 95.4048 93.8984 95.3032 93.8984H85.7055C85.2316 93.8984 84.8253 93.7376 84.4868 93.416C84.1652 93.0775 84.0044 92.6712 84.0044 92.1973C84.0044 91.7233 84.1736 91.3255 84.5122 91.0039C84.8338 90.6654 85.2316 90.4961 85.7055 90.4961H95.9126C96.2342 90.513 96.4966 90.4538 96.6997 90.3184C96.9197 90.1829 97.0805 90.0306 97.1821 89.8613C97.2837 89.6751 97.3344 89.4889 97.3344 89.3027C97.3344 89.1842 97.2837 89.0234 97.1821 88.8203C97.0805 88.6003 96.9197 88.4225 96.6997 88.2871C96.4966 88.1517 96.2342 88.0755 95.9126 88.0586H88.7016C87.5167 88.0247 86.535 87.7539 85.7563 87.2461C84.9946 86.7383 84.4445 86.1628 84.1059 85.5195C83.7843 84.8594 83.6235 84.1908 83.6235 83.5137C83.6235 82.8535 83.7928 82.2018 84.1313 81.5586C84.4699 80.8984 85.02 80.3145 85.7817 79.8066C86.5434 79.2988 87.5167 79.028 88.7016 78.9941H88.854C88.9555 78.9772 89.0571 78.9688 89.1587 78.9688H98.7055C99.1795 78.9688 99.5773 79.138 99.8989 79.4766C100.237 79.7982 100.407 80.196 100.407 80.6699ZM105.54 80.6699C105.54 80.196 105.7 79.7982 106.022 79.4766C106.361 79.138 106.767 78.9688 107.241 78.9688H122.018C122.492 78.9688 122.898 79.1296 123.237 79.4512C123.559 79.7897 123.719 80.196 123.719 80.6699C123.719 81.1439 123.55 81.5501 123.212 81.8887C122.89 82.2103 122.492 82.3711 122.018 82.3711H116.356V92.6543C116.255 93.6699 115.696 94.2201 114.68 94.3047C114.206 94.3047 113.792 94.1523 113.436 93.8477C113.098 93.526 112.928 93.1283 112.928 92.6543V82.3711H107.241C106.767 82.3711 106.369 82.2018 106.048 81.8633C105.709 81.5417 105.54 81.1439 105.54 80.6699ZM134.438 90.0137C134.438 89.5397 134.599 89.1419 134.921 88.8203C135.259 88.4818 135.665 88.3125 136.139 88.3125H140.024L139.364 86.4336C139.093 85.7396 138.822 85.0879 138.552 84.4785C138.298 83.8522 138.001 83.2852 137.663 82.7773C137.358 82.2695 137.011 81.9987 136.622 81.9648C136.216 81.9987 135.852 82.2695 135.53 82.7773C135.208 83.2852 134.912 83.8522 134.641 84.4785C134.387 85.0879 134.125 85.7396 133.854 86.4336L131.442 93.0352C131.273 93.3906 131.053 93.6868 130.782 93.9238C130.528 94.1439 130.139 94.2539 129.614 94.2539C129.123 94.2539 128.717 94.0846 128.395 93.7461C128.091 93.4076 127.955 93.0013 127.989 92.5273C128.006 92.3073 128.057 92.1042 128.141 91.918L130.934 84.707C131.713 82.8112 132.492 81.2793 133.27 80.1113C134.032 78.9603 135.149 78.3763 136.622 78.3594C138.078 78.3763 139.186 78.9603 139.948 80.1113C140.727 81.2454 141.505 82.7773 142.284 84.707L145.077 91.918C145.162 92.1042 145.212 92.3073 145.229 92.5273C145.263 93.0013 145.119 93.4076 144.798 93.7461C144.493 94.0846 144.095 94.2539 143.604 94.2539C143.046 94.2539 142.631 94.1439 142.36 93.9238C142.106 93.6868 141.895 93.3906 141.725 93.0352L141.243 91.7148H136.139C135.665 91.7148 135.268 91.5456 134.946 91.207C134.608 90.8854 134.438 90.4876 134.438 90.0137ZM151.86 94.2539C151.403 94.237 151.014 94.0762 150.692 93.7715C150.371 93.4499 150.201 93.0605 150.185 92.6035V86.2812C150.201 85.0794 150.371 83.9453 150.692 82.8789C151.031 81.8125 151.581 80.9154 152.343 80.1875C153.121 79.4427 154.103 79.0365 155.288 78.9688H165.089C165.546 78.9857 165.927 79.1549 166.231 79.4766C166.553 79.7812 166.722 80.1621 166.739 80.6191C166.739 81.0931 166.578 81.4993 166.257 81.8379C165.952 82.1764 165.563 82.3542 165.089 82.3711H156.151C155.508 82.4049 154.975 82.6504 154.552 83.1074C154.129 83.5645 153.858 84.0892 153.739 84.6816C153.638 85.2572 153.595 85.8919 153.612 86.5859V92.6035C153.595 93.0775 153.418 93.4753 153.079 93.7969C152.741 94.1016 152.334 94.2539 151.86 94.2539ZM154.806 87.5762C154.806 87.1022 154.975 86.7044 155.313 86.3828C155.635 86.0443 156.033 85.875 156.507 85.875H165.089C165.563 85.875 165.961 86.0443 166.282 86.3828C166.621 86.7044 166.79 87.1022 166.79 87.5762C166.79 88.0501 166.629 88.4564 166.308 88.7949C165.969 89.1165 165.563 89.2773 165.089 89.2773H156.507C156.033 89.2773 155.627 89.1165 155.288 88.7949C154.966 88.4564 154.806 88.0501 154.806 87.5762ZM177.153 90.0137C177.153 89.5397 177.314 89.1419 177.636 88.8203C177.974 88.4818 178.381 88.3125 178.855 88.3125H182.739L182.079 86.4336C181.808 85.7396 181.538 85.0879 181.267 84.4785C181.013 83.8522 180.717 83.2852 180.378 82.7773C180.073 82.2695 179.726 81.9987 179.337 81.9648C178.931 81.9987 178.567 82.2695 178.245 82.7773C177.924 83.2852 177.627 83.8522 177.357 84.4785C177.103 85.0879 176.84 85.7396 176.569 86.4336L174.157 93.0352C173.988 93.3906 173.768 93.6868 173.497 93.9238C173.243 94.1439 172.854 94.2539 172.329 94.2539C171.838 94.2539 171.432 94.0846 171.11 93.7461C170.806 93.4076 170.67 93.0013 170.704 92.5273C170.721 92.3073 170.772 92.1042 170.857 91.918L173.65 84.707C174.428 82.8112 175.207 81.2793 175.985 80.1113C176.747 78.9603 177.864 78.3763 179.337 78.3594C180.793 78.3763 181.901 78.9603 182.663 80.1113C183.442 81.2454 184.22 82.7773 184.999 84.707L187.792 91.918C187.877 92.1042 187.928 92.3073 187.944 92.5273C187.978 93.0013 187.834 93.4076 187.513 93.7461C187.208 94.0846 186.81 94.2539 186.319 94.2539C185.761 94.2539 185.346 94.1439 185.075 93.9238C184.821 93.6868 184.61 93.3906 184.441 93.0352L183.958 91.7148H178.855C178.381 91.7148 177.983 91.5456 177.661 91.207C177.323 90.8854 177.153 90.4876 177.153 90.0137Z" fill="white"/>
<path d="M86.3516 34.5625C86.8086 34.5794 87.1979 34.7487 87.5195 35.0703C87.8411 35.375 88.0104 35.7559 88.0273 36.2129V40.4531H96.2793V36.2129C96.2962 35.7389 96.474 35.3496 96.8125 35.0449C97.151 34.7233 97.5573 34.5625 98.0312 34.5625C98.4883 34.5794 98.8776 34.7487 99.1992 35.0703C99.5208 35.375 99.6901 35.7559 99.707 36.2129V48.6543C99.6055 49.6699 99.0469 50.2201 98.0312 50.3047C97.5573 50.3047 97.1426 50.1523 96.7871 49.8477C96.4486 49.526 96.2793 49.1283 96.2793 48.6543V43.8555H88.0273V48.6543C87.9258 49.6699 87.3672 50.2201 86.3516 50.3047C85.8776 50.3047 85.4629 50.1523 85.1074 49.8477C84.7689 49.526 84.5996 49.1283 84.5996 48.6543V36.2129C84.6165 35.7389 84.7943 35.3496 85.1328 35.0449C85.4714 34.7233 85.8776 34.5625 86.3516 34.5625Z" fill="white"/>
<path d="M90.3125 68.0137C90.3125 67.5397 90.4733 67.1419 90.7949 66.8203C91.1335 66.4818 91.5397 66.3125 92.0137 66.3125H95.8984L95.2383 64.4336C94.9674 63.7396 94.6966 63.0879 94.4258 62.4785C94.1719 61.8522 93.8757 61.2852 93.5371 60.7773C93.2324 60.2695 92.8854 59.9987 92.4961 59.9648C92.0898 59.9987 91.7259 60.2695 91.4043 60.7773C91.0827 61.2852 90.7865 61.8522 90.5156 62.4785C90.2617 63.0879 89.9993 63.7396 89.7285 64.4336L87.3164 71.0352C87.1471 71.3906 86.9271 71.6868 86.6562 71.9238C86.4023 72.1439 86.013 72.2539 85.4883 72.2539C84.9974 72.2539 84.5911 72.0846 84.2695 71.7461C83.9648 71.4076 83.8294 71.0013 83.8633 70.5273C83.8802 70.3073 83.931 70.1042 84.0156 69.918L86.8086 62.707C87.5872 60.8112 88.3659 59.2793 89.1445 58.1113C89.9062 56.9603 91.0234 56.3763 92.4961 56.3594C93.9518 56.3763 95.0605 56.9603 95.8223 58.1113C96.6009 59.2454 97.3796 60.7773 98.1582 62.707L100.951 69.918C101.036 70.1042 101.087 70.3073 101.104 70.5273C101.137 71.0013 100.993 71.4076 100.672 71.7461C100.367 72.0846 99.9694 72.2539 99.4785 72.2539C98.9199 72.2539 98.5052 72.1439 98.2344 71.9238C97.9805 71.6868 97.7689 71.3906 97.5996 71.0352L97.1172 69.7148H92.0137C91.5397 69.7148 91.1419 69.5456 90.8203 69.207C90.4818 68.8854 90.3125 68.4876 90.3125 68.0137Z" fill="white"/>
<path d="M90.3125 112.014C90.3125 111.54 90.4733 111.142 90.7949 110.82C91.1335 110.482 91.5397 110.312 92.0137 110.312H95.8984L95.2383 108.434C94.9674 107.74 94.6966 107.088 94.4258 106.479C94.1719 105.852 93.8757 105.285 93.5371 104.777C93.2324 104.27 92.8854 103.999 92.4961 103.965C92.0898 103.999 91.7259 104.27 91.4043 104.777C91.0827 105.285 90.7865 105.852 90.5156 106.479C90.2617 107.088 89.9993 107.74 89.7285 108.434L87.3164 115.035C87.1471 115.391 86.9271 115.687 86.6562 115.924C86.4023 116.144 86.013 116.254 85.4883 116.254C84.9974 116.254 84.5911 116.085 84.2695 115.746C83.9648 115.408 83.8294 115.001 83.8633 114.527C83.8802 114.307 83.931 114.104 84.0156 113.918L86.8086 106.707C87.5872 104.811 88.3659 103.279 89.1445 102.111C89.9062 100.96 91.0234 100.376 92.4961 100.359C93.9518 100.376 95.0605 100.96 95.8223 102.111C96.6009 103.245 97.3796 104.777 98.1582 106.707L100.951 113.918C101.036 114.104 101.087 114.307 101.104 114.527C101.137 115.001 100.993 115.408 100.672 115.746C100.367 116.085 99.9694 116.254 99.4785 116.254C98.9199 116.254 98.5052 116.144 98.2344 115.924C97.9805 115.687 97.7689 115.391 97.5996 115.035L97.1172 113.715H92.0137C91.5397 113.715 91.1419 113.546 90.8203 113.207C90.4818 112.885 90.3125 112.488 90.3125 112.014Z" fill="white"/>
<path d="M92.6992 122.283C93.5794 122.283 94.4427 122.385 95.2891 122.588C96.1523 122.791 96.9733 123.096 97.752 123.502C98.5306 123.891 99.2161 124.416 99.8086 125.076C100.418 125.736 100.748 126.523 100.799 127.438V128.504V136.604C100.697 137.619 100.139 138.169 99.123 138.254C98.6491 138.254 98.2344 138.102 97.8789 137.797C97.5404 137.475 97.3711 137.077 97.3711 136.604V128.225C97.3372 127.7 97.1341 127.268 96.7617 126.93C96.4062 126.574 96 126.295 95.543 126.092C95.1029 125.889 94.6374 125.736 94.1465 125.635C93.6725 125.533 93.1901 125.482 92.6992 125.482C92.2083 125.482 91.7174 125.533 91.2266 125.635C90.7526 125.736 90.2871 125.889 89.8301 126.092C89.39 126.295 88.9837 126.574 88.6113 126.93C88.2559 127.268 88.0612 127.7 88.0273 128.225V136.604C87.9427 137.619 87.3926 138.169 86.377 138.254C85.903 138.254 85.4883 138.102 85.1328 137.797C84.7943 137.475 84.625 137.077 84.625 136.604V128.504V127.438C84.6758 126.523 84.9974 125.736 85.5898 125.076C86.1823 124.416 86.8678 123.891 87.6465 123.502C88.4251 123.096 89.2376 122.791 90.084 122.588C90.9473 122.385 91.819 122.283 92.6992 122.283Z" fill="white"/>
<defs>
<filter id="filter0_i_5_4" x="87.2477" y="104.5" width="119.428" height="100.348" filterUnits="userSpaceOnUse" color-interpolation-filters="sRGB">
<feFlood flood-opacity="0" result="BackgroundImageFix"/>
<feBlend mode="normal" in="SourceGraphic" in2="BackgroundImageFix" result="shape"/>
<feColorMatrix in="SourceAlpha" type="matrix" values="0 0 0 0 0 0 0 0 0 0 0 0 0 0 0 0 0 0 127 0" result="hardAlpha"/>
<feMorphology radius="8" operator="erode" in="SourceAlpha" result="effect1_innerShadow_5_4"/>
<feOffset dx="6" dy="4"/>
<feGaussianBlur stdDeviation="2.15"/>
<feComposite in2="hardAlpha" operator="arithmetic" k2="-1" k3="1"/>
<feColorMatrix type="matrix" values="0 0 0 0 1 0 0 0 0 1 0 0 0 0 1 0 0 0 0.25 0"/>
<feBlend mode="normal" in2="shape" result="effect1_innerShadow_5_4"/>
</filter>
<linearGradient id="paint0_linear_5_4" x1="196" y1="191.684" x2="5.99999" y2="10.3157" gradientUnits="userSpaceOnUse">
<stop stop-color="#12A2B2"/>
<stop offset="1" stop-color="#1E1E1E"/>
</linearGradient>
</defs>
</svg>
