<svg width="202" height="202" viewBox="0 0 202 202" fill="none" xmlns="http://www.w3.org/2000/svg">
<circle cx="101" cy="101" r="98" fill="url(#paint0_linear_5_4)" stroke="url(#paint1_linear_5_4)" stroke-width="6"/>
<path d="M84 193C187.5 132.7 141.037 80.9042 194.5 108M100.5 194.5C195.5 142.24 157.5 104.405 192.5 120.485" stroke="white" stroke-width="3" stroke-linecap="round"/>
<path d="M19.9824 72.2832C20.5749 72.2832 21.1504 72.3848 21.709 72.5879C22.2845 72.791 22.8346 73.0872 23.3594 73.4766C23.444 73.5612 23.5371 73.6458 23.6387 73.7305C23.7233 73.6458 23.8164 73.5612 23.918 73.4766C24.4427 73.0872 24.9844 72.791 25.543 72.5879C26.1185 72.3848 26.694 72.2832 27.2695 72.2832C27.862 72.2832 28.4375 72.3848 28.9961 72.5879C29.5716 72.791 30.1133 73.0957 30.6211 73.502C31.1458 73.8913 31.6029 74.416 31.9922 75.0762C32.3984 75.7363 32.6016 76.5234 32.6016 77.4375V86.6035C32.5 87.6191 31.9414 88.1693 30.9258 88.2539C30.4518 88.2539 30.0371 88.1016 29.6816 87.7969C29.3431 87.4753 29.1738 87.0775 29.1738 86.6035V77.6406C29.1738 77.2344 29.0977 76.8958 28.9453 76.625C28.793 76.3372 28.6237 76.1172 28.4375 75.9648C28.2513 75.7956 28.0566 75.6771 27.8535 75.6094C27.6504 75.5247 27.4473 75.4824 27.2441 75.4824C27.041 75.4824 26.8379 75.5247 26.6348 75.6094C26.4486 75.6771 26.2624 75.7956 26.0762 75.9648C25.89 76.1172 25.7207 76.3372 25.5684 76.625C25.416 76.8958 25.3314 77.2344 25.3145 77.6406V86.6035C25.2129 87.6191 24.6543 88.1693 23.6387 88.2539C23.1647 88.2539 22.75 88.1016 22.3945 87.7969C22.056 87.4753 21.8867 87.0775 21.8867 86.6035V77.6406C21.8867 77.2344 21.8105 76.8958 21.6582 76.625C21.5059 76.3372 21.3366 76.1172 21.1504 75.9648C20.9642 75.7956 20.7695 75.6771 20.5664 75.6094C20.3633 75.5247 20.1602 75.4824 19.957 75.4824C19.7539 75.4824 19.5508 75.5247 19.3477 75.6094C19.1615 75.6771 18.9753 75.7956 18.7891 75.9648C18.6029 76.1172 18.4336 76.3372 18.2812 76.625C18.1289 76.8958 18.0443 77.2344 18.0273 77.6406V86.6035C17.9427 87.6191 17.3926 88.1693 16.377 88.2539C15.903 88.2539 15.4883 88.1016 15.1328 87.7969C14.7943 87.4753 14.625 87.0775 14.625 86.6035V77.4375C14.6589 76.5234 14.8704 75.7363 15.2598 75.0762C15.6491 74.416 16.1061 73.8913 16.6309 73.502C17.1556 73.0957 17.6973 72.791 18.2559 72.5879C18.8314 72.3848 19.4069 72.2832 19.9824 72.2832ZM51.7755 72.9688C52.6388 72.9857 53.409 73.2565 54.0861 73.7812C54.7632 74.306 55.3048 74.9323 55.7111 75.6602C56.1343 76.388 56.4474 77.1582 56.6505 77.9707C56.8537 78.7832 56.9552 79.6126 56.9552 80.459C56.9552 81.5762 56.7775 82.6764 56.422 83.7598C56.0835 84.8262 55.5164 85.7741 54.7209 86.6035C53.9422 87.4329 52.9604 87.8815 51.7755 87.9492H42.9142C41.7293 87.8984 40.7391 87.4583 39.9435 86.6289C39.1479 85.7995 38.5809 84.8431 38.2423 83.7598C37.9207 82.6764 37.7599 81.5762 37.7599 80.459C37.7599 79.3418 37.9292 78.25 38.2677 77.1836C38.6063 76.1003 39.1649 75.1439 39.9435 74.3145C40.7391 73.4681 41.7293 73.0195 42.9142 72.9688H43.3966H51.2931H51.7755ZM50.9123 84.5469C51.5555 84.513 52.0887 84.276 52.5119 83.8359C52.952 83.3789 53.2651 82.8542 53.4513 82.2617C53.6375 81.6693 53.7306 81.0684 53.7306 80.459C53.7306 79.8496 53.6291 79.2572 53.4259 78.6816C53.2397 78.0892 52.9351 77.5645 52.5119 77.1074C52.0887 76.6504 51.5555 76.4049 50.9123 76.3711H43.7013C43.0581 76.4049 42.5249 76.6504 42.1017 77.1074C41.6785 77.5645 41.3654 78.0892 41.1623 78.6816C40.9761 79.2572 40.883 79.8496 40.883 80.459C40.883 81.0684 40.9761 81.6693 41.1623 82.2617C41.3485 82.8542 41.6532 83.3789 42.0763 83.8359C42.5164 84.276 43.0581 84.513 43.7013 84.5469H50.9123ZM70.1624 88.5332C69.2822 88.5332 68.4105 88.4316 67.5472 88.2285C66.7008 88.0254 65.8883 87.7292 65.1097 87.3398C64.331 86.9336 63.6455 86.4004 63.053 85.7402C62.4606 85.0801 62.139 84.293 62.0882 83.3789V82.3125V74.2129C62.0882 73.7389 62.2575 73.3496 62.596 73.0449C62.9515 72.7233 63.3662 72.5625 63.8402 72.5625C64.8558 72.6471 65.4059 73.1973 65.4905 74.2129V82.5918C65.5244 83.1165 65.7191 83.5566 66.0745 83.9121C66.4469 84.2507 66.8532 84.5215 67.2933 84.7246C67.7503 84.9277 68.2158 85.0801 68.6898 85.1816C69.1807 85.2832 69.6715 85.334 70.1624 85.334C70.6533 85.334 71.1357 85.2832 71.6097 85.1816C72.1006 85.0801 72.5661 84.9277 73.0062 84.7246C73.4632 84.5215 73.8695 84.2507 74.2249 83.9121C74.5973 83.5566 74.8004 83.1165 74.8343 82.5918V74.2129C74.8343 73.7389 75.0036 73.3496 75.3421 73.0449C75.6976 72.7233 76.1123 72.5625 76.5863 72.5625C77.6019 72.6471 78.1605 73.1973 78.262 74.2129V82.3125V83.3789C78.2113 84.293 77.8812 85.0801 77.2718 85.7402C76.6793 86.4004 75.9938 86.9336 75.2152 87.3398C74.4365 87.7292 73.6155 88.0254 72.7523 88.2285C71.9059 88.4316 71.0426 88.5332 70.1624 88.5332ZM100.407 74.6699C100.407 75.1439 100.237 75.5417 99.8989 75.8633C99.5773 76.2018 99.1795 76.3711 98.7055 76.3711H88.5493C88.2277 76.388 87.9568 76.4642 87.7368 76.5996C87.5337 76.7181 87.3813 76.862 87.2798 77.0312C87.1782 77.1836 87.1274 77.3444 87.1274 77.5137C87.1274 77.6829 87.1782 77.8522 87.2798 78.0215C87.3813 78.1738 87.5337 78.3177 87.7368 78.4531C87.9568 78.5716 88.2277 78.6393 88.5493 78.6562H95.7602C96.9451 78.6901 97.9184 78.9694 98.6802 79.4941C99.4588 80.002 100.009 80.5944 100.331 81.2715C100.669 81.9316 100.838 82.6087 100.838 83.3027C100.838 83.9798 100.669 84.6569 100.331 85.334C99.992 85.9941 99.4419 86.5866 98.6802 87.1113C97.9184 87.6191 96.9451 87.873 95.7602 87.873H95.6079C95.5063 87.89 95.4048 87.8984 95.3032 87.8984H85.7055C85.2316 87.8984 84.8253 87.7376 84.4868 87.416C84.1652 87.0775 84.0044 86.6712 84.0044 86.1973C84.0044 85.7233 84.1736 85.3255 84.5122 85.0039C84.8338 84.6654 85.2316 84.4961 85.7055 84.4961H95.9126C96.2342 84.513 96.4966 84.4538 96.6997 84.3184C96.9197 84.1829 97.0805 84.0306 97.1821 83.8613C97.2837 83.6751 97.3344 83.4889 97.3344 83.3027C97.3344 83.1842 97.2837 83.0234 97.1821 82.8203C97.0805 82.6003 96.9197 82.4225 96.6997 82.2871C96.4966 82.1517 96.2342 82.0755 95.9126 82.0586H88.7016C87.5167 82.0247 86.535 81.7539 85.7563 81.2461C84.9946 80.7383 84.4445 80.1628 84.1059 79.5195C83.7843 78.8594 83.6235 78.1908 83.6235 77.5137C83.6235 76.8535 83.7928 76.2018 84.1313 75.5586C84.4699 74.8984 85.02 74.3145 85.7817 73.8066C86.5434 73.2988 87.5167 73.028 88.7016 72.9941H88.854C88.9555 72.9772 89.0571 72.9688 89.1587 72.9688H98.7055C99.1795 72.9688 99.5773 73.138 99.8989 73.4766C100.237 73.7982 100.407 74.196 100.407 74.6699ZM105.54 74.6699C105.54 74.196 105.7 73.7982 106.022 73.4766C106.361 73.138 106.767 72.9688 107.241 72.9688H122.018C122.492 72.9688 122.898 73.1296 123.237 73.4512C123.559 73.7897 123.719 74.196 123.719 74.6699C123.719 75.1439 123.55 75.5501 123.212 75.8887C122.89 76.2103 122.492 76.3711 122.018 76.3711H116.356V86.6543C116.255 87.6699 115.696 88.2201 114.68 88.3047C114.206 88.3047 113.792 88.1523 113.436 87.8477C113.098 87.526 112.928 87.1283 112.928 86.6543V76.3711H107.241C106.767 76.3711 106.369 76.2018 106.048 75.8633C105.709 75.5417 105.54 75.1439 105.54 74.6699ZM134.438 84.0137C134.438 83.5397 134.599 83.1419 134.921 82.8203C135.259 82.4818 135.665 82.3125 136.139 82.3125H140.024L139.364 80.4336C139.093 79.7396 138.822 79.0879 138.552 78.4785C138.298 77.8522 138.001 77.2852 137.663 76.7773C137.358 76.2695 137.011 75.9987 136.622 75.9648C136.216 75.9987 135.852 76.2695 135.53 76.7773C135.208 77.2852 134.912 77.8522 134.641 78.4785C134.387 79.0879 134.125 79.7396 133.854 80.4336L131.442 87.0352C131.273 87.3906 131.053 87.6868 130.782 87.9238C130.528 88.1439 130.139 88.2539 129.614 88.2539C129.123 88.2539 128.717 88.0846 128.395 87.7461C128.091 87.4076 127.955 87.0013 127.989 86.5273C128.006 86.3073 128.057 86.1042 128.141 85.918L130.934 78.707C131.713 76.8112 132.492 75.2793 133.27 74.1113C134.032 72.9603 135.149 72.3763 136.622 72.3594C138.078 72.3763 139.186 72.9603 139.948 74.1113C140.727 75.2454 141.505 76.7773 142.284 78.707L145.077 85.918C145.162 86.1042 145.212 86.3073 145.229 86.5273C145.263 87.0013 145.119 87.4076 144.798 87.7461C144.493 88.0846 144.095 88.2539 143.604 88.2539C143.046 88.2539 142.631 88.1439 142.36 87.9238C142.106 87.6868 141.895 87.3906 141.725 87.0352L141.243 85.7148H136.139C135.665 85.7148 135.268 85.5456 134.946 85.207C134.608 84.8854 134.438 84.4876 134.438 84.0137ZM151.86 88.2539C151.403 88.237 151.014 88.0762 150.692 87.7715C150.371 87.4499 150.201 87.0605 150.185 86.6035V80.2812C150.201 79.0794 150.371 77.9453 150.692 76.8789C151.031 75.8125 151.581 74.9154 152.343 74.1875C153.121 73.4427 154.103 73.0365 155.288 72.9688H165.089C165.546 72.9857 165.927 73.1549 166.231 73.4766C166.553 73.7812 166.722 74.1621 166.739 74.6191C166.739 75.0931 166.578 75.4993 166.257 75.8379C165.952 76.1764 165.563 76.3542 165.089 76.3711H156.151C155.508 76.4049 154.975 76.6504 154.552 77.1074C154.129 77.5645 153.858 78.0892 153.739 78.6816C153.638 79.2572 153.595 79.8919 153.612 80.5859V86.6035C153.595 87.0775 153.418 87.4753 153.079 87.7969C152.741 88.1016 152.334 88.2539 151.86 88.2539ZM154.806 81.5762C154.806 81.1022 154.975 80.7044 155.313 80.3828C155.635 80.0443 156.033 79.875 156.507 79.875H165.089C165.563 79.875 165.961 80.0443 166.282 80.3828C166.621 80.7044 166.79 81.1022 166.79 81.5762C166.79 82.0501 166.629 82.4564 166.308 82.7949C165.969 83.1165 165.563 83.2773 165.089 83.2773H156.507C156.033 83.2773 155.627 83.1165 155.288 82.7949C154.966 82.4564 154.806 82.0501 154.806 81.5762ZM177.153 84.0137C177.153 83.5397 177.314 83.1419 177.636 82.8203C177.974 82.4818 178.381 82.3125 178.855 82.3125H182.739L182.079 80.4336C181.808 79.7396 181.538 79.0879 181.267 78.4785C181.013 77.8522 180.717 77.2852 180.378 76.7773C180.073 76.2695 179.726 75.9987 179.337 75.9648C178.931 75.9987 178.567 76.2695 178.245 76.7773C177.924 77.2852 177.627 77.8522 177.357 78.4785C177.103 79.0879 176.84 79.7396 176.569 80.4336L174.157 87.0352C173.988 87.3906 173.768 87.6868 173.497 87.9238C173.243 88.1439 172.854 88.2539 172.329 88.2539C171.838 88.2539 171.432 88.0846 171.11 87.7461C170.806 87.4076 170.67 87.0013 170.704 86.5273C170.721 86.3073 170.772 86.1042 170.857 85.918L173.65 78.707C174.428 76.8112 175.207 75.2793 175.985 74.1113C176.747 72.9603 177.864 72.3763 179.337 72.3594C180.793 72.3763 181.901 72.9603 182.663 74.1113C183.442 75.2454 184.22 76.7773 184.999 78.707L187.792 85.918C187.877 86.1042 187.928 86.3073 187.944 86.5273C187.978 87.0013 187.834 87.4076 187.513 87.7461C187.208 88.0846 186.81 88.2539 186.319 88.2539C185.761 88.2539 185.346 88.1439 185.075 87.9238C184.821 87.6868 184.61 87.3906 184.441 87.0352L183.958 85.7148H178.855C178.381 85.7148 177.983 85.5456 177.661 85.207C177.323 84.8854 177.153 84.4876 177.153 84.0137Z" fill="white"/>
<path d="M86.3516 28.5625C86.8086 28.5794 87.1979 28.7487 87.5195 29.0703C87.8411 29.375 88.0104 29.7559 88.0273 30.2129V34.4531H96.2793V30.2129C96.2962 29.7389 96.474 29.3496 96.8125 29.0449C97.151 28.7233 97.5573 28.5625 98.0312 28.5625C98.4883 28.5794 98.8776 28.7487 99.1992 29.0703C99.5208 29.375 99.6901 29.7559 99.707 30.2129V42.6543C99.6055 43.6699 99.0469 44.2201 98.0312 44.3047C97.5573 44.3047 97.1426 44.1523 96.7871 43.8477C96.4486 43.526 96.2793 43.1283 96.2793 42.6543V37.8555H88.0273V42.6543C87.9258 43.6699 87.3672 44.2201 86.3516 44.3047C85.8776 44.3047 85.4629 44.1523 85.1074 43.8477C84.7689 43.526 84.5996 43.1283 84.5996 42.6543V30.2129C84.6165 29.7389 84.7943 29.3496 85.1328 29.0449C85.4714 28.7233 85.8776 28.5625 86.3516 28.5625Z" fill="white"/>
<path d="M90.3125 62.0137C90.3125 61.5397 90.4733 61.1419 90.7949 60.8203C91.1335 60.4818 91.5397 60.3125 92.0137 60.3125H95.8984L95.2383 58.4336C94.9674 57.7396 94.6966 57.0879 94.4258 56.4785C94.1719 55.8522 93.8757 55.2852 93.5371 54.7773C93.2324 54.2695 92.8854 53.9987 92.4961 53.9648C92.0898 53.9987 91.7259 54.2695 91.4043 54.7773C91.0827 55.2852 90.7865 55.8522 90.5156 56.4785C90.2617 57.0879 89.9993 57.7396 89.7285 58.4336L87.3164 65.0352C87.1471 65.3906 86.9271 65.6868 86.6562 65.9238C86.4023 66.1439 86.013 66.2539 85.4883 66.2539C84.9974 66.2539 84.5911 66.0846 84.2695 65.7461C83.9648 65.4076 83.8294 65.0013 83.8633 64.5273C83.8802 64.3073 83.931 64.1042 84.0156 63.918L86.8086 56.707C87.5872 54.8112 88.3659 53.2793 89.1445 52.1113C89.9062 50.9603 91.0234 50.3763 92.4961 50.3594C93.9518 50.3763 95.0605 50.9603 95.8223 52.1113C96.6009 53.2454 97.3796 54.7773 98.1582 56.707L100.951 63.918C101.036 64.1042 101.087 64.3073 101.104 64.5273C101.137 65.0013 100.993 65.4076 100.672 65.7461C100.367 66.0846 99.9694 66.2539 99.4785 66.2539C98.9199 66.2539 98.5052 66.1439 98.2344 65.9238C97.9805 65.6868 97.7689 65.3906 97.5996 65.0352L97.1172 63.7148H92.0137C91.5397 63.7148 91.1419 63.5456 90.8203 63.207C90.4818 62.8854 90.3125 62.4876 90.3125 62.0137Z" fill="white"/>
<path d="M90.3125 106.014C90.3125 105.54 90.4733 105.142 90.7949 104.82C91.1335 104.482 91.5397 104.312 92.0137 104.312H95.8984L95.2383 102.434C94.9674 101.74 94.6966 101.088 94.4258 100.479C94.1719 99.8522 93.8757 99.2852 93.5371 98.7773C93.2324 98.2695 92.8854 97.9987 92.4961 97.9648C92.0898 97.9987 91.7259 98.2695 91.4043 98.7773C91.0827 99.2852 90.7865 99.8522 90.5156 100.479C90.2617 101.088 89.9993 101.74 89.7285 102.434L87.3164 109.035C87.1471 109.391 86.9271 109.687 86.6562 109.924C86.4023 110.144 86.013 110.254 85.4883 110.254C84.9974 110.254 84.5911 110.085 84.2695 109.746C83.9648 109.408 83.8294 109.001 83.8633 108.527C83.8802 108.307 83.931 108.104 84.0156 107.918L86.8086 100.707C87.5872 98.8112 88.3659 97.2793 89.1445 96.1113C89.9062 94.9603 91.0234 94.3763 92.4961 94.3594C93.9518 94.3763 95.0605 94.9603 95.8223 96.1113C96.6009 97.2454 97.3796 98.7773 98.1582 100.707L100.951 107.918C101.036 108.104 101.087 108.307 101.104 108.527C101.137 109.001 100.993 109.408 100.672 109.746C100.367 110.085 99.9694 110.254 99.4785 110.254C98.9199 110.254 98.5052 110.144 98.2344 109.924C97.9805 109.687 97.7689 109.391 97.5996 109.035L97.1172 107.715H92.0137C91.5397 107.715 91.1419 107.546 90.8203 107.207C90.4818 106.885 90.3125 106.488 90.3125 106.014Z" fill="white"/>
<path d="M92.6992 116.283C93.5794 116.283 94.4427 116.385 95.2891 116.588C96.1523 116.791 96.9733 117.096 97.752 117.502C98.5306 117.891 99.2161 118.416 99.8086 119.076C100.418 119.736 100.748 120.523 100.799 121.438V122.504V130.604C100.697 131.619 100.139 132.169 99.123 132.254C98.6491 132.254 98.2344 132.102 97.8789 131.797C97.5404 131.475 97.3711 131.077 97.3711 130.604V122.225C97.3372 121.7 97.1341 121.268 96.7617 120.93C96.4062 120.574 96 120.295 95.543 120.092C95.1029 119.889 94.6374 119.736 94.1465 119.635C93.6725 119.533 93.1901 119.482 92.6992 119.482C92.2083 119.482 91.7174 119.533 91.2266 119.635C90.7526 119.736 90.2871 119.889 89.8301 120.092C89.39 120.295 88.9837 120.574 88.6113 120.93C88.2559 121.268 88.0612 121.7 88.0273 122.225V130.604C87.9427 131.619 87.3926 132.169 86.377 132.254C85.903 132.254 85.4883 132.102 85.1328 131.797C84.7943 131.475 84.625 131.077 84.625 130.604V122.504V121.438C84.6758 120.523 84.9974 119.736 85.5898 119.076C86.1823 118.416 86.8678 117.891 87.6465 117.502C88.4251 117.096 89.2376 116.791 90.084 116.588C90.9473 116.385 91.819 116.283 92.6992 116.283Z" fill="white"/>
<defs>
<linearGradient id="paint0_linear_5_4" x1="196" y1="191.684" x2="5.99999" y2="10.3157" gradientUnits="userSpaceOnUse">
<stop stop-color="#12A2B2"/>
<stop offset="1" stop-color="#1E1E1E"/>
</linearGradient>
<linearGradient id="paint1_linear_5_4" x1="6" y1="16.4103" x2="196" y2="185.59" gradientUnits="userSpaceOnUse">
<stop stop-color="#12A2B2"/>
<stop offset="1" stop-color="#08454C"/>
</linearGradient>
</defs>
</svg>
